<svg xmlns="http://www.w3.org/2000/svg" width="1200" height="782" viewBox="0 0 1200 782" version="1.1">
	<path d="M 812.327 3.750 C 811.463 5.813, 799.789 36.658, 786.385 72.297 C 772.981 107.935, 760.853 139.548, 759.433 142.549 C 756.552 148.641, 749.778 155.181, 733.568 167.524 C 716.345 180.637, 701.803 186.303, 682.276 187.508 C 669.738 188.281, 667.063 187.521, 664.500 182.454 C 662.561 178.621, 662.490 176.183, 662.185 102.500 C 661.866 25.758, 662.398 9.173, 665.272 6.299 C 666.300 5.272, 669.598 4.642, 675.639 4.318 C 687.113 3.703, 689.158 2.790, 681 1.924 C 672.249 0.995, 622.768 0.988, 616.500 1.915 C 610.050 2.868, 612.399 3.791, 622.359 4.215 C 633.557 4.692, 633.606 4.777, 634.482 25.228 C 634.866 34.178, 635.252 72.100, 635.340 109.500 C 635.510 181.640, 635.392 183.649, 630.857 186.077 C 629.766 186.660, 624.830 187.400, 619.888 187.720 C 614.520 188.068, 611.267 188.667, 611.808 189.208 C 612.333 189.733, 631.603 189.967, 657.607 189.765 C 697.650 189.454, 703.094 189.221, 708 187.606 C 717.103 184.609, 729.573 178.256, 739.308 171.656 C 744.364 168.229, 749.096 165.058, 749.824 164.608 C 751.408 163.630, 748.141 170.275, 743.328 177.821 C 739.215 184.269, 734.528 186.658, 724.087 187.629 C 719.620 188.044, 717.369 188.618, 718.183 189.134 C 719.953 190.256, 790 190.243, 790 189.121 C 790 188.637, 784.487 188.046, 777.750 187.808 C 763.910 187.318, 760.070 185.997, 758.006 181.016 C 756.615 177.656, 757.018 169.090, 758.979 160.313 C 760.118 155.221, 760.546 154.759, 782.319 135.164 C 794.519 124.185, 808.100 112.208, 812.500 108.547 C 823.897 99.066, 836.833 90.427, 837.935 91.562 C 839.696 93.374, 860.769 148.256, 865.779 164.078 C 870.048 177.560, 870.555 182.093, 868.128 185.093 C 866.307 187.344, 865.428 187.522, 854.585 187.836 C 847.925 188.029, 843.229 188.561, 843.553 189.086 C 844.277 190.258, 923.693 190.306, 924.417 189.135 C 924.711 188.659, 921.983 188.032, 918.355 187.740 C 914.097 187.399, 910.828 186.528, 909.130 185.283 C 902.084 180.116, 895.397 166.074, 875.781 115.251 C 867.280 93.226, 864.662 85.331, 864.592 81.503 L 864.500 76.506 871.500 74.774 C 883.919 71.702, 894.748 70.788, 904.444 71.993 C 919.774 73.898, 952.232 83.058, 963.062 88.536 C 969.723 91.905, 978.297 99.224, 981.828 104.555 C 986.209 111.168, 986.678 116.026, 983.912 126.145 C 981.603 134.592, 981.125 141.265, 982.476 146.202 C 983.004 148.134, 982.419 150.932, 980.420 156.025 C 977.928 162.379, 977.747 163.598, 978.741 167.323 C 979.704 170.932, 979.594 171.921, 977.928 174.617 C 974.170 180.697, 976.261 184.706, 982.649 183.670 C 987.620 182.863, 993.186 178.971, 997.902 173.005 C 1010.895 156.567, 1009.570 131.584, 994.678 112.231 C 985.890 100.810, 968.447 86.094, 954.759 78.552 C 951.051 76.509, 947.762 74.424, 947.450 73.919 C 947.135 73.410, 949.025 72.995, 951.691 72.989 C 958.710 72.974, 978.824 68.641, 983.902 66.050 C 994.802 60.489, 1005.059 44.783, 1005.325 33.250 C 1005.466 27.087, 1004.113 24, 1001.270 24 C 999.127 24, 981.624 42.079, 980.022 45.948 C 979.063 48.262, 977.432 49.743, 974.421 51.034 C 970.929 52.531, 969.438 54.113, 966.045 59.923 C 963.634 64.052, 960.760 67.590, 959.137 68.429 C 957.608 69.220, 952.564 70.166, 947.929 70.532 C 940.818 71.093, 937.466 70.763, 926.500 68.422 C 914.833 65.931, 911.613 65.655, 895.099 65.729 C 879.382 65.800, 875.410 66.144, 867.866 68.089 C 863.008 69.342, 858.863 70.172, 858.655 69.933 C 858.447 69.695, 852.998 55.775, 846.546 39 C 840.093 22.225, 833.981 6.588, 832.963 4.250 L 831.112 0 822.505 0 L 813.898 0 812.327 3.750 M 193.081 1.929 C 191.571 2.885, 194.388 3.392, 207.261 4.484 C 210.980 4.800, 215.071 5.457, 216.352 5.944 C 222.546 8.299, 227.711 20.575, 262.024 114.500 C 275.888 152.450, 288.089 185.188, 289.136 187.250 C 290.184 189.313, 291.696 191, 292.497 191 C 295.518 191, 295.933 189.942, 319.997 121 C 352.483 27.930, 359.714 10.403, 367.353 6.223 C 369.868 4.846, 373.072 4.500, 383.308 4.500 C 395.797 4.500, 396.162 4.562, 398.010 7 C 399.053 8.375, 400.207 11.891, 400.576 14.813 C 401.729 23.953, 400.354 178.028, 399.082 182.160 C 397.687 186.692, 394.488 188, 384.792 188 C 380.440 188, 378.111 188.370, 378.500 189 C 379.268 190.243, 450.643 190.386, 451.410 189.146 C 451.700 188.676, 447.930 188.032, 443.032 187.715 C 432.659 187.043, 430.608 186.182, 429.105 181.872 C 427.828 178.208, 427.600 26.021, 428.855 14.732 C 429.883 5.489, 430.963 4.588, 441.535 4.147 C 446.191 3.953, 450 3.461, 450 3.052 C 450 1.681, 423.051 1, 368.783 1 C 317.623 1, 301.963 1.893, 327.529 3.354 C 344.777 4.339, 348.613 7.147, 348.367 18.608 C 348.156 28.401, 341.934 48.238, 317.623 116.623 C 305.962 149.424, 307.043 146.828, 305.901 144.787 C 304.332 141.983, 286.015 95.624, 273.972 63.975 C 260.689 29.068, 256.131 15.500, 255.768 9.780 C 255.517 5.830, 255.687 5.525, 258.500 4.902 C 260.150 4.536, 265.186 4.183, 269.691 4.118 C 277.485 4.006, 280.831 2.917, 277.412 1.605 C 274.878 0.632, 194.642 0.941, 193.081 1.929 M 467.235 1.708 C 462.471 2.623, 466.454 4, 473.868 4 C 482.906 4, 484.714 4.965, 486.100 10.527 C 487.385 15.687, 489.059 146.900, 488.086 166.163 C 487.242 182.849, 486.335 185.257, 480.259 186.945 C 478.192 187.519, 473.575 188.005, 470 188.025 C 465.281 188.051, 463.959 188.328, 465.174 189.038 C 466.230 189.654, 491.510 189.919, 533.674 189.757 L 600.500 189.500 600.500 161.583 C 600.500 140.837, 600.193 133.564, 599.306 133.269 C 598.595 133.032, 597.686 134.615, 597.058 137.185 C 589.401 168.538, 581.590 183.023, 570.642 186.173 C 566.010 187.506, 525.228 187.985, 520.860 186.759 C 519.408 186.351, 517.905 185.226, 517.520 184.259 C 515.034 178.021, 513.501 19.386, 515.848 11.257 C 517.511 5.498, 520.629 4, 530.950 4 C 535.378 4, 539 3.618, 539 3.151 C 539 2.684, 534.612 2.011, 529.250 1.656 C 518.693 0.957, 470.934 0.997, 467.235 1.708 M 809.205 22 C 799.135 48.361, 766.978 136.311, 767.294 136.628 C 767.532 136.866, 773.301 131.818, 780.114 125.410 C 799.670 107.015, 819.711 90.685, 830.208 84.592 L 834.915 81.860 832.872 76.680 C 831.749 73.831, 826.772 60.925, 821.812 48 C 816.853 35.075, 812.202 23.375, 811.478 22 L 810.160 19.500 809.205 22 M 416.095 215.574 C 409.887 220.797, 409.575 230.287, 415.408 236.471 C 418.046 239.268, 419.500 240, 422.418 240 C 430.104 240, 435.993 234.144, 435.993 226.500 C 435.993 215.702, 423.860 209.040, 416.095 215.574 M 463.408 216.529 C 454.875 225.576, 460.319 240, 472.266 240 C 475.544 240, 476.912 239.323, 480.118 236.118 C 483.380 232.855, 484 231.573, 484 228.086 C 484 219.141, 478.561 213.011, 470.618 213.004 C 467.468 213.001, 466.108 213.666, 463.408 216.529 M 433.500 274.081 C 411.213 277.149, 391.117 285.235, 373.470 298.236 C 336.382 325.560, 315.136 373.136, 317.297 424.027 C 319.780 482.519, 352.070 531.115, 401.617 550.930 C 427.922 561.450, 458.394 562.153, 484.775 552.849 C 527.985 537.609, 559.819 501.957, 572.595 454.500 C 578.058 434.204, 578.034 398.339, 572.541 376.878 C 560.723 330.697, 529.983 295.181, 489.234 280.627 C 473.116 274.870, 448.647 271.996, 433.500 274.081 M 81.500 275.051 C 55.724 277.558, 31.731 289.501, 17.717 306.801 C 4.373 323.274, -0.860 339.709, 0.311 361.471 C 1.304 379.909, 6.594 392.274, 18.741 404.552 C 30.087 416.020, 42.208 423.127, 77 438.715 C 99.445 448.771, 118.011 458.477, 125.179 463.903 C 141.082 475.942, 148.302 491.679, 146.590 510.574 C 144.631 532.186, 134.435 546.402, 116.564 552.436 C 103.667 556.790, 84.274 556.396, 69.756 551.485 C 38.522 540.917, 17.401 507.256, 12.982 461 C 12.378 454.675, 11.458 448.462, 10.937 447.194 C 8.730 441.810, 8.001 446.729, 8.032 466.809 C 8.068 490.603, 9.648 545.982, 10.310 546.643 C 11.054 547.387, 35.954 553.830, 46.355 555.970 C 67.323 560.284, 104.105 561.079, 118.755 557.534 C 151.030 549.725, 174.709 528.131, 183 498.947 C 185.951 488.556, 186.709 470.876, 184.623 461.094 C 181.531 446.603, 173.371 433.438, 161.770 424.224 C 149.642 414.592, 136.513 407.601, 98.500 390.533 C 62.486 374.362, 48.875 364.373, 41.403 348.629 C 35.524 336.239, 34.812 325.329, 39.001 311.786 C 42.717 299.768, 50.799 290.541, 62.359 285.116 C 72.185 280.506, 78.005 279.497, 94.500 279.545 C 111.295 279.595, 117.801 280.860, 128.225 286.101 C 154.440 299.285, 168.194 325.640, 172.530 371 C 173.387 379.962, 174.403 383, 176.546 383 C 178.287 383, 178.335 388.870, 175.986 314.581 C 175.316 293.404, 174.738 285.456, 173.825 284.892 C 169.158 282.008, 133.700 276.310, 112.639 275.060 C 93.242 273.909, 93.239 273.909, 81.500 275.051 M 545.695 277.700 C 544.702 277.957, 544.063 278.693, 544.275 279.334 C 544.533 280.113, 549.645 280.715, 559.685 281.149 C 576.608 281.880, 578.767 282.573, 584.324 289.065 C 593.424 299.696, 594.798 303.164, 652.960 462.288 C 679.859 535.881, 686.577 553.910, 687.408 554.741 C 687.696 555.030, 689.584 555.319, 691.602 555.383 L 695.272 555.500 723.098 476 C 773.795 331.160, 776.043 325.039, 785.860 305.162 C 792.210 292.304, 796.383 286.890, 802.357 283.762 C 806.063 281.821, 808.429 281.549, 824.777 281.186 C 846.679 280.699, 847.853 281.017, 851.164 288.336 L 853.500 293.500 853.784 351 C 853.940 382.625, 853.674 437.975, 853.193 474 C 852.247 544.769, 852.241 544.841, 846.834 548.365 C 845.326 549.348, 840.785 550.104, 834 550.503 C 828.225 550.843, 822.375 551.370, 821 551.675 C 818.657 552.194, 818.626 552.280, 820.500 553.044 C 822.825 553.992, 923.357 554.279, 926.835 553.348 C 930.562 552.349, 927.323 551.038, 921 550.984 C 912.155 550.910, 901.214 549.186, 898.562 547.449 C 897.135 546.513, 895.353 543.678, 894.304 540.670 C 892.603 535.796, 892.513 529.406, 892.730 429 C 892.978 314.605, 893.580 290.561, 896.330 285.297 C 898.509 281.125, 902.580 280.013, 915.691 280.006 C 926.050 280, 930.004 278.758, 923.230 277.639 C 918.294 276.823, 730.165 276.817, 726.086 277.633 C 724.346 277.981, 723.088 278.768, 723.292 279.383 C 723.537 280.123, 729.910 280.700, 742.173 281.092 C 764.741 281.814, 766.995 282.579, 771.335 291 C 777.461 302.885, 774.899 312.253, 730.621 439.879 C 721.008 467.587, 712.716 490.684, 712.196 491.204 C 710.981 492.419, 710.166 490.441, 678.748 410 C 654.794 348.672, 637.079 299.266, 635.541 289.500 C 635.106 286.737, 635.360 284.886, 636.364 283.515 C 637.680 281.717, 639.347 281.482, 654.078 281.015 C 664.795 280.676, 670.466 280.117, 670.710 279.377 C 670.915 278.760, 670.051 277.978, 668.791 277.641 C 666.157 276.936, 548.426 276.992, 545.695 277.700 M 940.235 277.708 C 935.510 278.616, 939.428 280.001, 946.809 280.033 C 951.039 280.051, 957.580 280.462, 961.345 280.948 C 969.559 282.006, 972.290 284.141, 973.990 290.832 C 975.881 298.273, 976.299 354.212, 975.186 450.747 C 974.236 533.135, 974.046 539.238, 972.334 542.682 C 969.146 549.095, 966.511 550.270, 954.294 550.733 C 948.357 550.958, 942.825 551.383, 942 551.678 C 937.282 553.366, 949.504 553.859, 996 553.859 C 1043.094 553.859, 1056.352 553.312, 1049 551.671 C 1047.625 551.364, 1041.610 550.829, 1035.633 550.482 C 1023.264 549.763, 1020.707 548.903, 1018.085 544.578 C 1014.572 538.785, 1014 531.969, 1014 495.933 L 1014 460.965 1028.125 439.733 C 1035.893 428.055, 1042.578 418.138, 1042.979 417.695 C 1043.381 417.253, 1046.812 417.414, 1050.605 418.053 C 1057.113 419.149, 1057.810 419.536, 1063.019 424.935 C 1069.743 431.905, 1077.445 446.417, 1088.792 473.500 C 1104.183 510.231, 1116.971 536.496, 1123.866 545.538 C 1130.232 553.885, 1130.804 554.019, 1159.484 553.869 C 1187.231 553.724, 1201.930 552.876, 1196 551.762 C 1194.075 551.401, 1189.800 550.840, 1186.500 550.516 C 1169.714 548.868, 1163.757 543.060, 1149.070 514.028 C 1145.306 506.588, 1138.794 492.717, 1134.600 483.204 C 1114.087 436.688, 1103.442 421.493, 1084.824 412.150 C 1076.275 407.860, 1063.259 404, 1057.340 404 C 1055.170 404, 1054 403.518, 1054 402.623 C 1054 399.866, 1105.081 324.553, 1117.499 309 C 1130.225 293.062, 1134.357 289.214, 1143.363 284.916 C 1150.940 281.299, 1152.291 280.992, 1163 280.453 C 1169.325 280.135, 1175.625 279.626, 1177 279.322 C 1184.361 277.698, 1171.199 277.141, 1125.500 277.141 C 1080.344 277.141, 1068.302 277.641, 1073 279.322 C 1073.825 279.617, 1080.350 280.054, 1087.500 280.293 C 1095.349 280.556, 1101.619 281.255, 1103.325 282.059 C 1114.283 287.221, 1109.252 305.649, 1087.341 340.604 C 1082.478 348.361, 1064.325 376.383, 1047 402.873 L 1015.500 451.039 1014.600 435.269 C 1013.619 418.099, 1015.461 294.023, 1016.784 288.091 C 1018.127 282.072, 1021.305 280.684, 1034.736 280.248 C 1047.740 279.825, 1050.728 279.290, 1047.500 277.963 C 1045.488 277.136, 944.463 276.895, 940.235 277.708 M 429.850 280.371 C 406.323 285.799, 389.402 299.831, 377.425 323.848 C 367.255 344.243, 362.514 364.928, 360.889 396 C 356.147 486.631, 377.717 540.291, 423.609 552.028 C 429.448 553.521, 434.619 553.996, 444.910 553.985 C 460.475 553.968, 467.657 552.605, 478.448 547.619 C 487.790 543.303, 492.120 540.326, 499.366 533.238 C 520.545 512.522, 531.717 480.368, 534.131 433.187 C 536.729 382.412, 529.442 338.612, 514.227 313.546 C 508.915 304.795, 496.153 291.893, 489.080 288.123 C 477.280 281.834, 470.908 280.066, 456.223 279.007 C 439.433 277.796, 441.463 277.691, 429.850 280.371 M 203.500 279.956 C 201.626 280.720, 201.657 280.806, 204 281.323 C 205.375 281.626, 210.871 282.136, 216.213 282.455 C 221.555 282.774, 227.286 283.307, 228.949 283.640 C 233.541 284.558, 236.737 288.417, 238.019 294.590 C 238.836 298.527, 239.038 343.833, 238.755 459.758 C 238.395 607.696, 238.238 619.943, 236.631 625.500 C 233.337 636.892, 225.781 646.321, 212.978 655.015 C 207.461 658.762, 205.251 662.020, 208.250 661.986 C 210.700 661.958, 224.612 653.717, 231.248 648.362 C 251.711 631.850, 268.949 600.214, 274.491 569 C 276.539 557.468, 277.808 504.688, 277.990 423.500 C 278.152 351.613, 279.461 293.457, 281.014 289.220 C 282.821 284.291, 286.525 282.908, 299.655 282.262 C 305.932 281.952, 311.262 281.385, 311.499 281.002 C 311.736 280.618, 306.475 280.010, 299.808 279.652 C 282.692 278.731, 205.909 278.974, 203.500 279.956 M 491.914 616.903 C 484.580 619.274, 480.997 624.305, 481.004 632.218 C 481.009 638.011, 483.495 641.714, 491.860 648.388 C 500.272 655.100, 502 657.384, 502 661.788 C 502 666.364, 500.603 668.594, 496.936 669.873 C 492.349 671.471, 487.865 669.209, 483.456 663.072 C 479.338 657.339, 477.998 656.768, 478.006 660.750 C 478.026 670.576, 482.192 674.352, 493.055 674.389 C 504.032 674.427, 511.058 668.423, 510.944 659.102 C 510.843 650.885, 509.201 648.095, 500.600 641.530 C 490.342 633.700, 488.537 631.280, 489.425 626.548 C 489.963 623.681, 490.850 622.562, 493.641 621.231 C 497.037 619.612, 497.319 619.629, 500.815 621.656 C 502.816 622.817, 505.139 625.158, 505.977 626.858 C 508.027 631.020, 509.438 630.285, 509.797 624.869 C 510.201 618.778, 507.884 616.717, 500.213 616.345 C 497.071 616.192, 493.336 616.443, 491.914 616.903 M 581.404 617.407 C 569.139 620.385, 560 632.378, 560 645.497 C 560 658.279, 566.974 668.748, 578.058 672.606 C 587.701 675.962, 610.254 674.005, 609.103 669.911 C 608.885 669.135, 608.492 665.888, 608.229 662.697 C 607.811 657.615, 608.044 656.582, 610.100 654.394 C 612.083 652.283, 612.218 651.750, 610.974 650.963 C 608.160 649.183, 590 650.160, 590 652.091 C 590 652.547, 591.800 653.459, 594 654.118 L 598 655.317 598 661.635 C 598 667.269, 597.729 668.131, 595.504 669.589 C 593.702 670.770, 591.966 671.033, 589.254 670.538 C 578.029 668.485, 571.623 659.634, 571.544 646.069 C 571.459 631.428, 576.036 623.390, 585.792 621.050 C 594.354 618.996, 600.239 621.503, 604.241 628.908 C 605.198 630.680, 606.436 631.849, 606.991 631.506 C 608.425 630.619, 608.244 621.710, 606.750 619.702 C 604.262 616.358, 590.762 615.136, 581.404 617.407 M 362.500 617.602 C 357.588 618.867, 357.505 619.030, 360.544 621.453 L 363.500 623.810 363.500 645.500 L 363.500 667.190 360.500 669.609 C 355.683 673.493, 358.258 674.191, 375.564 673.692 C 387.726 673.341, 391.483 672.878, 395.064 671.287 C 405.084 666.836, 410.918 658.893, 411.746 648.576 C 412.511 639.043, 410.580 632.534, 405.316 626.907 C 398.591 619.717, 393.521 617.989, 377.708 617.498 C 370.444 617.272, 363.600 617.319, 362.500 617.602 M 429.250 617.723 C 425.455 618.194, 425.109 619.129, 428.217 620.513 C 431.397 621.928, 431.790 624.445, 431.889 644 C 432.002 666.251, 431.594 668.897, 427.852 670.201 C 426.284 670.748, 425 671.539, 425 671.959 C 425 673.210, 434.574 673.982, 450.211 673.991 L 464.923 674 466.019 669.928 C 466.623 667.688, 466.977 664.426, 466.808 662.678 L 466.500 659.500 464 663.202 C 462.625 665.237, 460.466 667.375, 459.203 667.952 C 456.049 669.391, 444.683 669.283, 443.200 667.800 C 441.657 666.257, 441.543 647.400, 443.071 646.456 C 443.660 646.092, 446.139 646.094, 448.579 646.460 C 452.398 647.032, 453.283 647.639, 454.927 650.812 C 457.413 655.612, 458.193 653.758, 457.797 643.986 C 457.604 639.238, 457.060 636.515, 456.250 636.247 C 455.515 636.003, 455 636.701, 455 637.941 C 455 640.536, 451.549 642, 445.435 642 L 441 642 441 633.434 C 441 622.467, 441.764 621, 447.470 621 C 453.504 621, 456.774 622.440, 458.791 625.985 C 461.518 630.775, 463.154 629.866, 462.802 623.756 C 462.518 618.829, 462.318 618.472, 459.500 617.874 C 456.234 617.180, 434.498 617.072, 429.250 617.723 M 526.170 617.874 C 525.159 618.515, 525.518 619.210, 527.670 620.777 L 530.500 622.837 530.832 641.627 C 531.223 663.693, 530.672 669.012, 527.922 669.731 C 524.939 670.511, 525.656 672.681, 529.125 673.375 C 533.911 674.332, 543.320 674.090, 545 672.966 C 546.301 672.095, 546.250 671.771, 544.608 670.517 C 543.568 669.722, 542.218 668.906, 541.608 668.703 C 540.841 668.447, 540.500 661.343, 540.500 645.586 L 540.500 622.840 543.330 620.778 C 547.250 617.922, 545.387 617.031, 535.500 617.031 C 531.100 617.031, 526.902 617.410, 526.170 617.874 M 624 618.015 C 622.667 618.891, 622.667 619.109, 624 619.985 C 624.825 620.526, 626.047 620.976, 626.715 620.985 C 629.849 621.024, 630.500 625.389, 630.500 646.345 L 630.500 667.190 627.539 669.551 C 625.911 670.849, 624.935 672.269, 625.372 672.706 C 625.809 673.143, 629.465 673.500, 633.497 673.500 C 637.529 673.500, 641.187 673.143, 641.625 672.706 C 642.063 672.269, 641.131 670.882, 639.553 669.624 C 637.302 667.829, 636.519 666.170, 635.915 661.918 C 634.860 654.486, 634.839 635.802, 635.884 634.153 C 636.501 633.180, 641.036 638.034, 652.236 651.653 C 669.104 672.166, 671.338 674.527, 672.937 673.539 C 673.634 673.108, 674.004 665.419, 674.011 651.191 C 674.024 625.415, 674.407 622.227, 677.671 620.740 C 682.079 618.732, 679.606 617.500, 671.167 617.500 C 662.928 617.500, 660.516 618.630, 664.771 620.496 C 666.121 621.088, 667.437 622.913, 668.015 624.996 C 669.117 628.960, 669.319 643.396, 668.370 650.320 L 667.739 654.919 657.620 642.704 C 652.054 635.986, 645.276 627.454, 642.557 623.744 L 637.614 617 631.557 617.015 C 628.226 617.024, 624.825 617.474, 624 618.015 M 723.074 617.807 C 720.063 618.736, 719.136 621, 721.767 621 C 723.490 621, 723.771 621.995, 724.350 630.154 C 724.708 635.188, 724.997 645.876, 724.994 653.904 L 724.987 668.500 721.744 670.431 L 718.500 672.363 724.500 673.246 C 727.800 673.732, 734.974 673.868, 740.442 673.547 C 752.073 672.866, 757.646 670.373, 760.370 664.633 C 763.786 657.434, 760.915 647.358, 754.589 644.341 L 751.071 642.664 754.536 638.829 C 760.622 632.092, 758.819 622.745, 750.815 619.543 C 746.173 617.685, 727.300 616.505, 723.074 617.807 M 771.382 618.191 C 770.977 618.846, 771.206 619.569, 771.890 619.797 C 775.030 620.843, 778.325 625.272, 782.829 634.500 C 789.338 647.835, 790.343 651.185, 790.428 659.840 C 790.496 666.814, 790.352 667.299, 787.539 669.546 C 785.911 670.847, 784.935 672.269, 785.372 672.706 C 786.398 673.732, 802.256 674.404, 805.608 673.562 C 807.636 673.053, 807.939 672.631, 807.047 671.557 C 806.426 670.809, 804.839 669.925, 803.520 669.594 C 801.580 669.108, 800.992 668.131, 800.446 664.490 C 799.260 656.577, 800.815 649.198, 805.703 639.541 C 812.048 627.008, 814.686 623.085, 818.059 621.166 C 819.669 620.250, 820.841 619.050, 820.663 618.500 C 820.230 617.156, 806.966 616.634, 805.689 617.911 C 805.010 618.590, 805.432 619.529, 806.978 620.781 L 809.276 622.642 804.350 632.500 C 801.640 637.922, 798.948 642.517, 798.366 642.711 C 797.101 643.133, 790.055 628.112, 789.281 623.347 C 788.851 620.697, 789.078 620, 790.369 620 C 791.266 620, 792 619.611, 792 619.136 C 792 617.079, 772.618 616.191, 771.382 618.191 M 375.038 621.956 C 371.993 623.881, 372.556 664.413, 375.670 667.528 C 379.068 670.925, 386.378 670.568, 392.079 666.726 C 397.526 663.054, 400.343 656.282, 400.420 646.668 C 400.496 637.271, 399.026 632.238, 394.800 627.425 C 390.525 622.556, 379.091 619.392, 375.038 621.956 M 735 629.809 C 735 635.429, 735.468 639.257, 736.292 640.384 C 737.504 642.043, 737.832 642.051, 741.656 640.521 C 752.095 636.344, 748.867 621, 737.550 621 C 735.010 621, 735 621.034, 735 629.809 M 735 654.918 C 735 664.386, 735.170 665.261, 737.455 667.545 C 740.310 670.401, 740.916 670.480, 745.452 668.585 C 749.532 666.880, 751.249 663.983, 751.179 658.923 C 751.075 651.362, 746.906 646.645, 739.250 645.423 L 735 644.744 735 654.918 M 931.217 724.092 C 921.276 725.787, 914.109 730.754, 909.464 739.167 C 906.810 743.973, 906.521 745.389, 906.542 753.500 C 906.568 763.590, 908.246 768.092, 914.200 774.046 C 920.139 779.986, 925.032 781.519, 937.500 781.349 C 943.550 781.267, 949.850 780.780, 951.500 780.268 L 954.500 779.336 954.145 771.260 C 953.802 763.442, 953.876 763.127, 956.455 761.437 C 960.400 758.853, 958.089 758.033, 946.809 758.015 C 936.657 757.999, 933.544 759.248, 938.996 761.149 C 942.544 762.385, 944 765.250, 944 770.994 C 944 777.516, 940.299 779.322, 931.781 776.956 C 922.626 774.413, 917.613 765.617, 917.557 752 C 917.496 737.017, 923.582 728.897, 935.370 728.235 C 942.865 727.815, 946.917 729.958, 949.980 735.961 C 951.113 738.182, 952.482 740, 953.020 740 C 954.298 740, 954.292 729.415, 953.013 727.024 C 951.550 724.290, 939.536 722.674, 931.217 724.092 M 259.600 726.417 C 256.355 727.782, 252.222 730.331, 250.416 732.081 C 243.377 738.904, 240.385 751.934, 243.443 762.453 C 245.821 770.632, 253.376 778.181, 261.567 780.562 C 268.092 782.460, 281.960 782.162, 285.925 780.040 C 288.435 778.697, 291 773.386, 291 769.532 C 291 766.105, 289.687 766.348, 286.323 770.400 C 281.680 775.991, 276.715 778.370, 271.249 777.621 C 262.579 776.432, 257.166 770.715, 254.367 759.789 C 250.146 743.311, 258.927 727.993, 272.588 728.004 C 278.938 728.009, 283.256 730.643, 285.592 735.937 C 288.059 741.528, 289.545 740.538, 289.291 733.471 C 288.995 725.214, 288.114 724.614, 275.739 724.243 C 266.679 723.971, 264.820 724.221, 259.600 726.417 M 322.788 726.320 C 321.195 727.797, 319.091 732.252, 317.004 738.570 C 313.345 749.644, 305.889 770.007, 303.930 774.274 C 303.230 775.800, 301.590 777.316, 300.285 777.643 C 298.980 777.971, 298.082 778.747, 298.290 779.369 C 298.836 781.009, 314.201 780.897, 314.750 779.250 C 314.994 778.517, 314.306 778, 313.083 778 C 310.443 778, 310.300 774.127, 312.632 765.816 L 314.264 760 319.382 760.014 C 328.085 760.037, 328.761 760.485, 330.995 767.721 C 333.417 775.562, 333.517 778, 331.417 778 C 330.546 778, 330.021 778.563, 330.250 779.250 C 330.541 780.124, 333.322 780.500, 339.500 780.500 C 345.678 780.500, 348.459 780.124, 348.750 779.250 C 348.979 778.563, 348.463 778, 347.604 778 C 345.195 778, 342.696 772.109, 335.915 750.444 C 329.034 728.461, 327.383 724, 326.133 724 C 325.670 724, 324.165 725.044, 322.788 726.320 M 630.160 726.608 C 616.537 733.396, 610.925 753.051, 618.399 767.801 C 627.219 785.206, 653.504 786.817, 664.654 770.636 C 672.927 758.633, 670.754 739.335, 660.041 729.656 C 652.973 723.271, 639.595 721.906, 630.160 726.608 M 360.595 725.846 C 360.233 726.432, 361.076 727.659, 362.468 728.571 C 364.981 730.218, 365 730.337, 365 744.461 C 365 752.289, 364.711 762.769, 364.357 767.751 C 363.767 776.056, 363.513 776.901, 361.301 777.909 C 359.973 778.514, 359.164 779.457, 359.503 780.004 C 360.191 781.118, 379.271 781.396, 380.359 780.308 C 380.739 779.927, 379.840 778.650, 378.360 777.470 C 375.797 775.426, 375.666 774.883, 375.585 765.939 C 375.511 757.771, 375.727 756.507, 377.244 756.204 C 378.440 755.965, 379.852 757.315, 381.744 760.508 C 391.936 777.711, 395.610 781.235, 403.527 781.407 C 407.926 781.502, 410.702 780.139, 408 779.211 C 403.997 777.835, 391.065 759.225, 391.018 754.773 C 391.008 753.823, 392.086 752.334, 393.414 751.464 C 398.910 747.863, 400.565 737.563, 396.615 731.535 C 393.486 726.759, 389.630 725.634, 374.877 725.190 C 365.884 724.919, 361.030 725.142, 360.595 725.846 M 418.641 725.692 C 418.261 726.073, 419.198 727.380, 420.725 728.597 L 423.500 730.810 423.500 753 L 423.500 775.190 420.544 777.547 C 416.653 780.649, 418.085 781.168, 429.498 780.791 C 435.464 780.595, 438.473 780.094, 438.753 779.250 C 438.990 778.532, 438.326 778, 437.190 778 C 436.103 778, 434.880 777.212, 434.473 776.250 C 433.272 773.415, 432.696 753.032, 433.468 740.678 C 434.147 729.807, 434.305 729.182, 436.648 728.115 C 438.003 727.497, 438.836 726.543, 438.497 725.996 C 437.810 724.883, 419.727 724.606, 418.641 725.692 M 451.494 726.009 C 451.151 726.564, 452.190 727.776, 453.802 728.701 C 456.559 730.283, 456.771 730.863, 457.361 738.442 C 457.706 742.874, 457.991 753.086, 457.994 761.135 C 458 775.694, 457.987 775.779, 455.468 777.429 C 451.611 779.956, 453.375 781, 461.500 781 C 469.319 781, 471.750 779.755, 467.611 777.869 C 466.236 777.242, 464.805 776.003, 464.433 775.115 C 463.362 772.561, 462.799 748.957, 463.694 744.151 L 464.504 739.802 473.502 751.135 C 488.197 769.642, 499.085 782.066, 500.074 781.455 C 500.587 781.137, 501.033 772.110, 501.073 761.191 C 501.162 737.075, 501.857 731.344, 505.002 728.798 C 506.558 727.537, 506.989 726.589, 506.313 725.913 C 504.857 724.457, 490.762 725.191, 490.247 726.750 C 490.006 727.478, 490.689 728, 491.881 728 C 493.008 728, 494.392 728.864, 494.958 729.921 C 496.448 732.705, 497.577 760.525, 496.234 761.356 C 495.120 762.044, 484.764 750.187, 472.616 734.315 L 465.500 725.017 458.809 725.009 C 455.129 725.004, 451.837 725.454, 451.494 726.009 M 545.526 725.957 C 545.201 726.484, 546.293 727.617, 547.953 728.476 C 549.673 729.365, 551.300 731.211, 551.736 732.768 C 552.156 734.271, 552.500 744.424, 552.500 755.331 L 552.500 775.162 549.745 777.168 C 548.230 778.272, 547.244 779.585, 547.554 780.087 C 548.220 781.165, 562.336 781.331, 563.393 780.273 C 563.793 779.874, 562.768 778.411, 561.116 777.023 L 558.112 774.500 557.418 757.250 C 556.954 745.728, 557.062 740, 557.744 740 C 558.305 740, 564.312 746.862, 571.092 755.250 C 589.152 777.592, 593.266 782.134, 594.409 780.991 C 595.206 780.194, 596.570 754.364, 596.928 733.269 C 596.990 729.598, 597.337 728.954, 599.544 728.400 C 606.482 726.658, 596.176 723.994, 588.253 725.480 C 584.449 726.194, 584.127 727.137, 587.217 728.513 C 588.437 729.056, 589.742 730.625, 590.118 732 C 591.020 735.302, 591.071 753.462, 590.192 758.355 L 589.500 762.209 578.181 748.355 C 571.955 740.735, 565.467 732.362, 563.762 729.750 L 560.663 725 553.391 725 C 549.391 725, 545.852 725.431, 545.526 725.957 M 684.382 726.191 C 683.977 726.846, 684.112 727.537, 684.681 727.727 C 685.251 727.917, 686.568 728.696, 687.608 729.459 C 689.365 730.747, 689.500 732.424, 689.500 753.018 L 689.500 775.190 686.544 777.547 C 684.207 779.410, 683.909 780.028, 685.123 780.494 C 687.810 781.525, 704.311 780.584, 704.710 779.377 C 704.915 778.760, 704.169 778.016, 703.053 777.724 C 700.152 776.965, 699 773.027, 699 763.865 C 699 756.136, 699.077 755.872, 701.250 756.180 C 703.466 756.495, 704.674 758.087, 713.178 771.900 C 717.080 778.238, 720.377 780.590, 726.645 781.506 C 733.112 782.452, 733.896 780.805, 729.059 776.434 C 726.751 774.349, 722.488 768.617, 719.585 763.695 L 714.307 754.746 718.542 750.510 C 723.152 745.901, 724.876 740.434, 723.152 735.899 C 721.494 731.538, 717.005 727.096, 713.186 726.035 C 707.880 724.561, 685.314 724.684, 684.382 726.191 M 742.449 726.083 C 741.998 726.813, 742.099 727.533, 742.681 727.727 C 743.251 727.917, 744.568 728.694, 745.608 729.454 C 747.317 730.701, 747.529 732.515, 747.795 748.167 C 748.159 769.566, 747.366 776.114, 744.244 777.487 C 738.050 780.212, 743.958 781.400, 760.552 780.767 C 771.227 780.359, 774.524 779.878, 777.151 778.344 C 781.647 775.718, 784.388 770.679, 784.368 765.078 C 784.347 759.118, 781.882 754.567, 777.222 751.885 L 773.473 749.727 776.677 746.523 C 780.781 742.419, 781.700 738.743, 779.905 733.611 C 777.552 726.884, 774.095 725.586, 757.376 725.151 C 746.554 724.870, 743.064 725.088, 742.449 726.083 M 799.382 726.191 C 798.977 726.846, 799.063 727.528, 799.573 727.707 C 803.410 729.054, 803.448 729.291, 803.474 752.290 C 803.501 775.985, 803.135 778, 798.794 778 C 797.670 778, 797.011 778.534, 797.249 779.250 C 797.559 780.181, 802.676 780.569, 817.288 780.771 L 836.910 781.042 838.455 775.839 C 841.026 767.181, 840.134 765.675, 835.615 771.046 C 834.205 772.721, 831.803 774.743, 830.276 775.540 C 826.615 777.449, 819.012 777.397, 816.223 775.443 C 814.193 774.022, 814 773.067, 814 764.462 C 814 755.237, 814.053 755.025, 816.507 754.409 C 817.885 754.063, 820.601 754.078, 822.542 754.442 C 825.444 754.986, 826.177 755.634, 826.668 758.091 C 827.775 763.625, 829.492 760.563, 829.795 752.515 C 830.108 744.192, 828.813 740.732, 827.085 745.276 C 825.948 748.268, 823.220 750, 819.648 750 C 814.285 750, 814 749.471, 814 739.510 C 814 729.049, 814.006 729.042, 822.798 729.014 C 826.171 729.003, 827.623 729.569, 829.548 731.646 C 830.896 733.101, 832 734.939, 832 735.729 C 832 736.520, 832.563 736.982, 833.250 736.756 C 833.938 736.530, 834.643 734.371, 834.818 731.959 C 835.056 728.671, 834.695 727.250, 833.377 726.286 C 830.980 724.534, 800.459 724.448, 799.382 726.191 M 851.595 725.846 C 851.233 726.432, 852.076 727.659, 853.468 728.571 C 855.981 730.218, 856 730.337, 856 744.461 C 856 752.289, 855.711 762.769, 855.357 767.751 C 854.754 776.241, 854.552 776.883, 852.129 777.987 C 849.840 779.030, 849.740 779.275, 851.251 780.120 C 853.785 781.539, 871.240 780.798, 871.752 779.250 C 871.996 778.514, 871.299 778, 870.059 778 C 867.116 778, 866 774.400, 866 764.904 C 866 758.715, 866.338 756.808, 867.513 756.357 C 869.713 755.512, 871.163 757.088, 875.549 765.090 C 882.315 777.432, 890.135 783.259, 897.463 781.420 C 900.641 780.622, 900.673 779.698, 897.578 778.042 C 893.843 776.043, 882 758.125, 882 754.472 C 882 753.737, 883.318 752.198, 884.928 751.051 C 888.536 748.482, 890.394 743.185, 889.735 737.341 C 889.192 732.528, 887.159 729.676, 882.502 727.197 C 878.825 725.241, 852.676 724.097, 851.595 725.846 M 636.280 729.091 C 630.246 732.077, 626.730 739.446, 626.630 749.314 C 626.526 759.621, 627.688 765.186, 630.978 770.148 C 634.869 776.015, 639.053 778.390, 644.267 777.691 C 649.734 776.958, 653.013 774.370, 655.977 768.448 C 658.092 764.223, 658.441 762.185, 658.368 754.500 C 658.238 740.861, 654.361 732.431, 646.599 728.905 C 641.453 726.568, 641.373 726.570, 636.280 729.091 M 375.607 730.582 C 375.273 731.452, 375 735.915, 375 740.500 C 375 745.085, 375.273 749.548, 375.607 750.418 C 376.373 752.415, 380.229 752.450, 384.011 750.494 C 390.093 747.349, 390.290 735.733, 384.341 731.054 C 381.223 728.601, 376.466 728.344, 375.607 730.582 M 699 738.918 C 699 751.062, 699.314 752, 703.384 752 C 709.746 752, 713.838 745.835, 712.525 738.229 C 711.467 732.105, 707.948 729, 702.066 729 L 699 729 699 738.918 M 758.035 730.934 C 756.705 733.421, 756.697 743.074, 758.024 746.562 C 758.949 748.997, 759.403 749.197, 762.774 748.657 C 767.863 747.843, 770 744.941, 770 738.844 C 770 734.938, 769.488 733.397, 767.545 731.455 C 764.499 728.409, 759.532 728.137, 758.035 730.934 M 866.607 730.582 C 866.273 731.452, 866 735.915, 866 740.500 C 866 751.110, 866.360 752, 870.655 752 C 879.585 752, 883.209 737.719, 875.850 731.527 C 872.454 728.670, 867.534 728.167, 866.607 730.582 M 320.018 743.251 C 317.510 750.171, 316.251 754.917, 316.780 755.447 C 317.696 756.362, 325.840 756.069, 326.439 755.099 C 327.115 754.006, 323.303 741.305, 322.070 740.543 C 321.589 740.246, 320.665 741.464, 320.018 743.251 M 758.250 754.118 C 755.910 756.517, 757.421 774.386, 760.107 776.087 C 762.203 777.415, 765.755 777.178, 769.011 775.494 C 774.973 772.411, 775.314 761.462, 769.615 756.108 C 766.742 753.409, 760.079 752.242, 758.250 754.118" stroke="none" fill="black" fill-rule="evenodd"/>
</svg>