<?xml version="1.0" standalone="no"?>
<svg xmlns="http://www.w3.org/2000/svg" viewBox="0 0 270 270" fill="#0a0a0a">
  <g transform="translate(0,270) scale(0.1,-0.1)">
    <!-- Ring (outer circle with inner cutout) -->
    <path fill-rule="evenodd" d="M1327 2514 c-1 -1 -39 -4 -83 -8 -45 -3 -126 -18 -180 -32 -55 -14
-109 -28 -121 -31 -13 -3 -23 -9 -23 -14 0 -5 -7 -9 -16 -9 -8 0 -50 -18 -92
-41 -254 -136 -451 -357 -549 -618 -50 -133 -73 -262 -73 -415 -1 -94 1 -112
20 -217 38 -210 159 -439 314 -594 65 -65 178 -155 194 -155 6 0 12 -4 14 -9
2 -4 41 -28 88 -53 92 -47 172 -77 285 -104 109 -25 376 -26 485 -1 290 68
524 220 694 450 109 149 175 302 213 502 13 67 9 344 -7 410 -7 33 -14 65 -16
70 -14 73 -110 290 -142 323 -7 8 -19 26 -26 40 -8 15 -23 36 -35 46 -12 11
-21 23 -21 28 0 17 -155 163 -221 208 -35 25 -66 48 -69 51 -10 11 -197 97
-245 113 -79 25 -176 45 -246 51 -96 9 -139 12 -142 9z m168 -137 c11 -2 40
-8 65 -12 75 -12 134 -33 240 -84 313 -150 530 -449 577 -791 8 -63 8 -225 -1
-285 -25 -171 -101 -352 -205 -485 -53 -68 -161 -173 -211 -206 -25 -16 -47
-31 -50 -34 -28 -32 -208 -110 -305 -134 -187 -45 -406 -41 -548 11 -23 8 -49
16 -57 18 -31 6 -215 99 -230 115 -3 3 -21 17 -40 30 -63 44 -152 133 -212
214 -53 71 -143 239 -152 284 -1 9 -6 24 -9 32 -36 90 -51 303 -33 453 7 56
33 154 56 212 6 17 11 32 11 35 1 6 71 142 81 155 4 6 28 38 53 72 49 66 186
199 222 216 13 6 23 14 23 19 0 4 5 8 11 8 6 0 24 9 40 21 29 20 199 98 229
104 8 2 35 8 60 14 25 5 68 13 95 16 28 4 51 8 52 9 5 4 218 -2 238 -7z"/>
    <!-- Lightning bolt -->
    <path d="M1040 1770 c0 -3 16 -29 35 -58 25 -37 42 -52 58 -52 12 1 45 1 72 1
28 0 77 0 110 0 90 1 131 -2 118 -8 -7 -2 -13 -9 -13 -13 0 -9 -84 -128 -113
-160 -7 -8 -31 -40 -52 -70 -22 -30 -43 -59 -48 -65 -4 -5 -33 -44 -63 -85
-70 -95 -66 -90 -180 -243 -53 -71 -94 -130 -92 -131 2 -3 173 46 218 62 8 3
21 6 28 8 8 1 21 6 30 10 9 4 22 8 28 9 5 2 68 21 140 43 208 65 334 104 347
106 7 1 18 5 25 9 7 5 23 10 36 13 12 2 52 13 87 24 35 12 102 32 149 46 47
15 90 31 95 36 7 7 3 8 -10 5 -11 -3 -38 -8 -60 -11 -22 -4 -51 -8 -65 -11
-14 -2 -41 -7 -60 -9 -19 -3 -46 -8 -60 -10 -14 -3 -43 -7 -65 -10 -22 -4 -65
-11 -95 -18 -30 -6 -66 -12 -80 -13 -14 -1 -41 -4 -60 -8 -40 -8 -58 -11 -193
-33 -54 -9 -100 -14 -103 -12 -2 2 38 62 89 134 50 71 99 139 107 151 8 11 69
97 135 189 66 92 121 171 123 174 1 4 -137 6 -308 6 -170 0 -310 -3 -310 -6z"/>
  </g>
</svg>
