<svg xmlns="http://www.w3.org/2000/svg" viewBox="0 0 1320 350" fill="#000">
  <!-- Z -->
  <rect x="80" y="55" width="160" height="45"/>
  <polygon points="195,100 240,100 125,250 80,250"/>
  <rect x="80" y="250" width="160" height="45"/>

  <!-- A -->
  <polygon points="280,295 320,295 360,55 345,55"/>
  <polygon points="375,55 400,55 440,295 400,295"/>
  <rect x="325" y="200" width="70" height="30"/>

  <!-- P -->
  <rect x="480" y="55" width="45" height="240"/>
  <rect x="525" y="55" width="115" height="45"/>
  <rect x="595" y="100" width="45" height="70"/>
  <rect x="525" y="170" width="115" height="45"/>

  <!-- T -->
  <rect x="680" y="55" width="160" height="45"/>
  <rect x="738" y="100" width="45" height="195"/>

  <!-- E -->
  <rect x="880" y="55" width="45" height="240"/>
  <rect x="925" y="55" width="115" height="45"/>
  <rect x="925" y="145" width="95" height="45"/>
  <rect x="925" y="250" width="115" height="45"/>

  <!-- C -->
  <rect x="1080" y="55" width="45" height="240"/>
  <rect x="1125" y="55" width="115" height="45"/>
  <rect x="1125" y="250" width="115" height="45"/>
</svg>
