<svg xmlns="http://www.w3.org/2000/svg" viewBox="0 0 1500 480" fill="#0a0a0a">
  <!-- z -->
  <rect x="30" y="130" width="220" height="65" rx="32"/>
  <polygon points="220,195 250,195 60,265 30,265"/>
  <rect x="30" y="265" width="220" height="65" rx="32"/>

  <!-- a : bowl (ring) + stem -->
  <path fill-rule="evenodd" d="M 395 130 a 100 100 0 1 0 0.01 0 z M 395 190 a 40 40 0 1 0 -0.01 0 z"/>
  <rect x="445" y="135" width="60" height="195" rx="30"/>

  <!-- p : stem with descender + bowl (ring) -->
  <rect x="540" y="130" width="65" height="300" rx="32"/>
  <path fill-rule="evenodd" d="M 660 110 a 100 100 0 1 0 0.01 0 z M 660 170 a 40 40 0 1 0 -0.01 0 z"/>

  <!-- t : vertical (with ascender) + crossbar -->
  <rect x="840" y="65" width="60" height="265" rx="30"/>
  <rect x="785" y="150" width="170" height="55" rx="28"/>

  <!-- e : C-shape with crossbar across middle (gap on right like real e) -->
  <path d="M 1185 175 A 110 110 0 1 0 1185 285 L 1125 250 A 40 40 0 1 1 1125 210 Z"/>
  <rect x="985" y="205" width="210" height="55" rx="27"/>

  <!-- c : open ring with gap on right side -->
  <path d="M 1440 175 A 110 110 0 1 0 1440 285 L 1380 250 A 40 40 0 1 1 1380 210 Z"/>
</svg>
