<svg xmlns="http://www.w3.org/2000/svg" width="679" height="138" viewBox="0 0 679 138" version="1.1">
	<path d="M 67.655 2.829 C 65.496 5.214, 65.542 9.301, 67.750 11.180 C 68.713 11.999, 73.087 13.203, 77.470 13.856 C 89.019 15.574, 100.692 21.447, 108.632 29.532 C 134.932 56.313, 128.069 100.883, 95.028 117.881 C 85.583 122.740, 78.684 124.430, 68.500 124.379 C 53.373 124.303, 39.091 118.080, 28.655 107.017 C 11.021 88.324, 8.248 62.070, 21.510 39.380 C 24.520 34.231, 35.085 23, 36.920 23 C 37.672 23, 38.017 33.995, 38.056 59.250 C 38.096 84.598, 38.472 96.542, 39.306 98.965 C 39.999 100.976, 41.970 103.422, 44 104.792 C 47.384 107.075, 48.030 107.141, 63.500 106.779 C 77.230 106.458, 80.315 106.082, 85.247 104.132 C 93.599 100.828, 101.148 93.502, 105.708 84.276 C 109.198 77.214, 109.433 76.158, 109.404 67.618 C 109.381 60.552, 108.863 57.198, 107.102 52.715 C 103.988 44.787, 95.646 35.936, 87.514 31.932 C 80.230 28.347, 70.541 26.982, 67.851 29.163 C 62.682 33.354, 66.030 39.370, 74.062 40.321 C 100.092 43.404, 105.954 79.999, 82.343 92.018 C 78.068 94.194, 75.945 94.525, 64.250 94.840 L 51 95.196 51 52.733 C 51 10.811, 50.973 10.235, 48.852 7.539 C 46.047 3.973, 43.106 4.533, 34.198 10.327 C 13.492 23.796, 2.386 42.394, 1.283 65.450 C 0.673 78.214, 2.529 87.306, 8.107 98.866 C 11.507 105.912, 13.857 109.077, 20.886 116.074 C 30.450 125.593, 36.623 129.515, 48.500 133.614 C 55.572 136.055, 57.950 136.375, 69 136.375 C 80.050 136.375, 82.428 136.055, 89.500 133.614 C 101.383 129.513, 107.555 125.590, 117.100 116.074 C 131.577 101.640, 137.699 85.856, 136.714 65.500 C 135.842 47.487, 129.382 33.123, 116.440 20.421 C 107.975 12.112, 96.985 5.937, 85.377 2.968 C 75.553 0.456, 69.843 0.411, 67.655 2.829 M 165 70.500 L 165 104 168.500 104 C 171.858 104, 172 103.853, 172 100.365 L 172 96.730 173.973 99.238 C 180.621 107.690, 195.981 106.530, 202.843 97.058 C 211.898 84.558, 207.972 63.722, 195.685 59.067 C 191.997 57.669, 183.450 57.701, 180.684 59.122 C 179.483 59.739, 177.262 61.399, 175.750 62.809 L 173 65.374 173 51.187 L 173 37 169 37 L 165 37 165 70.500 M 302 70.443 L 302 104 306.513 104 L 311.027 104 310.763 70.750 L 310.500 37.500 306.250 37.193 L 302 36.885 302 70.443 M 545 70.500 L 545 104 549 104 L 553 104 553 70.500 L 553 37 549 37 L 545 37 545 70.500 M 566.818 43.500 C 565.115 47.238, 567.101 51, 570.779 51 C 574.295 51, 576 49.367, 576 46 C 576 42.633, 574.295 41, 570.779 41 C 568.739 41, 567.641 41.693, 566.818 43.500 M 227.500 59.334 C 223.242 61.268, 217.321 68.183, 216.072 72.679 C 214.428 78.602, 214.802 87.968, 216.865 92.509 C 221.577 102.880, 232.490 107.018, 246.951 103.917 C 252.067 102.820, 252.937 101.606, 251.428 97.672 C 250.979 96.503, 250.171 96.377, 247.684 97.091 C 242.140 98.681, 232.811 98.182, 229.420 96.114 C 226.191 94.145, 223 88.670, 223 85.099 C 223 83.054, 223.413 83, 239.139 83 L 255.278 83 254.750 77.178 C 254.104 70.056, 251.121 63.934, 246.795 60.854 C 242.823 58.026, 232.220 57.191, 227.500 59.334 M 270.062 59.827 C 266.309 61.840, 262.997 67.076, 263.005 70.984 C 263.015 75.786, 266.283 79.323, 274.567 83.500 C 280.682 86.583, 282.576 88.039, 282.833 89.852 C 284.034 98.340, 278.404 100.453, 265.250 96.451 C 263.432 95.898, 262.971 96.173, 262.850 97.883 C 262.767 99.048, 262.655 100.563, 262.600 101.250 C 262.460 102.996, 268.539 104.876, 274.538 104.944 C 288.325 105.098, 296.322 93.035, 288.784 83.453 C 287.594 81.940, 283.893 79.466, 280.558 77.954 C 273.164 74.601, 270.541 71.966, 271.358 68.712 C 272.379 64.643, 278.842 62.849, 284.598 65.037 C 287.546 66.158, 288.422 65.672, 289.420 62.359 C 289.950 60.602, 289.495 60.020, 286.883 59.109 C 282.004 57.408, 273.930 57.753, 270.062 59.827 M 328.676 59.452 C 323.702 61.225, 323.465 61.531, 324.802 64.464 C 325.908 66.892, 326.003 66.910, 330.090 65.468 C 339.177 62.262, 346.284 64.750, 347.595 71.597 L 348.189 74.693 341.568 75.311 C 333.913 76.026, 327.538 78.599, 324.063 82.378 C 322.225 84.375, 321.523 86.451, 321.207 90.812 C 320.839 95.906, 321.097 96.962, 323.374 99.668 C 328.559 105.829, 337.436 106.625, 345.018 101.607 L 349 98.972 349 101.486 C 349 103.724, 349.411 104, 352.750 104 L 356.500 104.001 356.177 86.750 C 355.815 67.440, 354.965 64.293, 349.015 60.250 C 346.384 58.462, 344.349 58.009, 339.102 58.044 C 335.471 58.068, 330.779 58.702, 328.676 59.452 M 378.500 59.573 C 368.736 64.651, 364.136 76.063, 367.016 88.066 C 370.431 102.303, 386.541 108.610, 396.703 99.687 L 400.322 96.510 399.767 102.628 C 399.462 105.993, 398.453 109.905, 397.525 111.321 C 394.042 116.638, 383.176 118.316, 375.343 114.746 C 372.558 113.478, 371.189 114.425, 370.779 117.905 C 370.398 121.132, 375.234 122.831, 385 122.902 C 396.849 122.987, 404.561 118.169, 406.924 109.205 C 407.461 107.167, 408.035 95.037, 408.200 82.249 L 408.500 58.998 404.750 58.999 C 401.192 59, 400.998 59.167, 400.970 62.250 C 400.945 64.846, 400.743 65.163, 399.963 63.828 C 396.858 58.506, 385.052 56.165, 378.500 59.573 M 451.500 59.476 C 438.589 65.491, 434.150 83.930, 442.654 96.217 C 447.842 103.713, 460.044 107.092, 468.782 103.451 C 486.510 96.066, 487.874 68.609, 470.943 59.971 C 466.323 57.614, 456.058 57.353, 451.500 59.476 M 507.018 60.130 C 505.102 61.298, 502.986 62.984, 502.315 63.877 C 501.254 65.288, 501.007 65.076, 500.422 62.250 C 499.824 59.358, 499.378 59, 496.375 59 L 493 59 493 81.500 L 493 104 497.500 104 L 502 104 502 87.900 L 502 71.800 505.400 68.400 C 509.728 64.072, 515.355 63.682, 519.694 67.411 L 522.500 69.822 522.816 86.911 L 523.132 104 527.650 104 L 532.169 104 531.834 87.250 C 531.457 68.327, 530.336 64.415, 524.102 60.263 C 519.561 57.239, 511.859 57.179, 507.018 60.130 M 603.500 59.536 C 601.850 60.374, 599.753 61.947, 598.840 63.030 C 596.573 65.720, 596 65.512, 596 62 C 596 59.238, 595.722 59, 592.500 59 L 589 59 589 81.500 L 589 104 592.912 104 L 596.824 104 597.162 88.250 C 597.441 75.230, 597.806 72.050, 599.264 69.904 C 602.893 64.564, 610.958 63.341, 615.694 67.411 L 618.500 69.822 618.816 86.911 L 619.132 104 623.650 104 L 628.169 104 627.834 87.250 C 627.457 68.327, 626.336 64.415, 620.102 60.263 C 616.036 57.555, 608.086 57.207, 603.500 59.536 M 650.500 59.368 C 646.460 61.248, 641.445 66.676, 639.551 71.218 C 638.664 73.345, 638 77.861, 638 81.772 C 638 98.201, 648.646 106.774, 666.309 104.567 C 673.318 103.691, 675.354 102.257, 674.487 98.805 C 673.885 96.404, 673.570 96.263, 670.672 97.094 C 664.949 98.735, 655.810 98.182, 652.190 95.974 C 648.890 93.962, 646 88.866, 646 85.058 C 646 83.145, 646.741 83.038, 661.750 82.775 L 677.500 82.500 677.399 77 C 677.277 70.313, 674.349 64.097, 669.795 60.854 C 665.789 58.002, 655.190 57.185, 650.500 59.368 M 567 81.500 L 567 104 571 104 L 575 104 575 81.500 L 575 59 571 59 L 567 59 567 81.500 M 182.643 65.008 C 176.091 67.018, 173 72.305, 173 81.500 C 173 92.045, 177.473 98.003, 185.385 97.996 C 193.962 97.988, 199.001 91.826, 198.998 81.349 C 198.995 69.757, 191.517 62.286, 182.643 65.008 M 228.514 66.168 C 225.988 68.154, 223 73.466, 223 75.968 C 223 76.620, 227.418 77, 235 77 C 248.267 77, 248.278 76.993, 245.606 70.599 C 244.839 68.763, 243.164 66.528, 241.883 65.631 C 238.508 63.266, 231.863 63.533, 228.514 66.168 M 383.071 65.711 C 377.893 68.413, 375.693 72.095, 375.202 78.881 C 374.671 86.228, 376.242 91.185, 380.143 94.467 C 385.786 99.215, 395.239 97.231, 398.365 90.643 C 400.324 86.515, 400.549 74.626, 398.735 71.096 C 395.758 65.302, 388.582 62.835, 383.071 65.711 M 454 66.199 C 449.574 69.203, 447.731 72.992, 447.193 80.194 C 445.884 97.724, 463.958 105.676, 471.725 90.987 C 474.368 85.990, 474.775 77.755, 472.629 72.718 C 469.238 64.760, 460.582 61.731, 454 66.199 M 651.514 66.168 C 648.988 68.154, 646 73.466, 646 75.968 C 646 76.620, 650.418 77, 658 77 C 664.600 77, 669.997 76.662, 669.994 76.250 C 669.972 73.179, 667.486 67.741, 665.331 66.045 C 661.767 63.242, 655.158 63.301, 651.514 66.168 M 336.123 82.374 C 329.769 84.673, 327.130 90.885, 330.477 95.663 C 332.424 98.443, 336.403 99.352, 340.585 97.972 C 345.725 96.276, 348 92.715, 348 86.365 L 348 81 343.750 81.076 C 341.413 81.118, 337.980 81.702, 336.123 82.374" stroke="none" fill="black" fill-rule="evenodd"/>
</svg>