<svg xmlns="http://www.w3.org/2000/svg" width="451" height="133" viewBox="0 0 451 133" version="1.1">
	<path d="M 319.020 1.284 C 311.648 5.014, 313.349 16.037, 321.532 17.572 C 327.338 18.661, 331.936 14.873, 331.936 9 C 331.936 4.847, 330.336 2.458, 326.603 1.039 C 323.114 -0.287, 322.059 -0.253, 319.020 1.284 M 425 15.674 L 425 28.349 422.736 26.222 C 415.093 19.041, 400.540 19.322, 392.658 26.803 C 387.378 31.815, 385.536 36.656, 385.517 45.578 C 385.502 52.841, 385.806 54.151, 388.526 58.552 C 390.402 61.586, 393.414 64.598, 396.448 66.474 C 400.718 69.113, 402.269 69.500, 408.590 69.500 C 415.144 69.500, 416.275 69.191, 420.418 66.271 L 425 63.041 425 66.021 C 425 68.965, 425.064 69, 430.500 69 L 436 69 436 36 L 436 3 430.500 3 L 425 3 425 15.674 M 441.571 4.571 C 437.189 8.954, 442.726 15.411, 448.361 12.488 L 450.970 11.134 451.251 40.317 L 451.531 69.500 451.766 38.261 C 451.978 9.940, 451.839 6.835, 450.278 5.011 C 448.221 2.609, 443.759 2.384, 441.571 4.571 M 441.861 6.405 C 440.378 9.661, 442.260 12.230, 445.814 11.801 C 451.304 11.136, 451.175 4.844, 445.658 4.184 C 443.637 3.943, 442.746 4.464, 441.861 6.405 M 444.015 8.177 C 444.027 10.690, 444.267 11.135, 445 10 C 445.646 9, 445.974 8.917, 445.985 9.750 C 445.993 10.438, 446.423 11, 446.940 11 C 448.679 11, 447.541 5.535, 445.729 5.186 C 444.368 4.924, 444.003 5.561, 444.015 8.177 M 320.487 8.042 C 319.667 10.624, 321.083 12.323, 323.644 11.830 C 324.859 11.596, 325.500 10.613, 325.500 8.986 C 325.500 5.640, 321.489 4.884, 320.487 8.042 M 1 38.500 L 1 70 18.250 69.978 C 32.906 69.959, 36.116 69.676, 39.599 68.095 C 45.526 65.403, 48.356 60.915, 48.776 53.543 C 49.176 46.529, 47.130 41.753, 42.318 38.464 L 39.338 36.427 42.312 32.753 C 46.426 27.670, 46.982 21.128, 43.815 15.074 C 40.011 7.801, 37.427 7, 17.766 7 L 1 7 1 38.500 M 286.236 15.708 C 284.990 15.947, 282.773 17.644, 281.309 19.479 C 279.037 22.327, 278.296 22.683, 276.258 21.908 C 272.271 20.392, 262.813 20.902, 258.491 22.865 C 247.168 28.009, 243.255 41.586, 249.966 52.445 L 252.169 56.010 249.585 59.082 C 244.993 64.538, 246.395 73.896, 252.301 77.223 C 253.619 77.965, 260.250 78.669, 268.846 78.980 C 283.069 79.496, 283.210 79.524, 285.407 82.280 C 287.568 84.991, 287.751 85.032, 292.811 83.947 C 295.665 83.335, 298 82.370, 298 81.803 C 298 81.236, 297.017 79.024, 295.816 76.886 C 292.285 70.604, 287.721 69, 273.375 69 C 260.163 69, 257.563 68.136, 258.155 63.944 C 258.490 61.571, 258.746 61.500, 267 61.500 C 274.212 61.500, 276.175 61.121, 279.956 59 C 282.406 57.625, 285.748 54.595, 287.383 52.268 C 291.284 46.711, 291.709 37.546, 288.332 31.831 C 286.274 28.349, 286.252 28.082, 287.910 26.581 C 288.871 25.712, 290.860 25, 292.329 25 C 294.868 25, 295 24.752, 295 20 L 295 15 291.750 15.136 C 289.962 15.211, 287.481 15.468, 286.236 15.708 M 11 26.456 L 11 35.911 15.151 34.447 C 17.435 33.641, 21.689 32.701, 24.605 32.359 C 31.162 31.588, 34 29.202, 34 24.461 C 34 18.373, 31.517 17, 20.500 17 L 11 17 11 26.456 M 76.500 21.703 C 75.400 21.963, 72.813 23.507, 70.750 25.135 L 67 28.094 67 25.047 C 67 22.057, 66.906 22, 62 22 L 57 22 57 45.500 L 57 69 62 69 L 67 69 67.002 56.250 C 67.003 46.107, 67.361 42.788, 68.752 40.020 C 70.969 35.606, 76.318 32, 80.648 32 L 84 32 84 26.500 C 84 21.139, 83.931 21.003, 81.250 21.116 C 79.737 21.180, 77.600 21.444, 76.500 21.703 M 158.502 22.575 C 156.853 23.435, 154.716 24.852, 153.752 25.724 C 152.124 27.197, 152 27.121, 152 24.655 C 152 22.103, 151.786 22, 146.500 22 L 141 22 141 45.500 L 141 69 146.500 69 L 152 69 152 53.577 C 152 38.487, 152.055 38.088, 154.560 35.111 C 157.622 31.472, 162.617 30.269, 167.986 31.878 C 174.511 33.833, 175.400 36.309, 175.834 53.750 L 176.214 69 181.167 69 L 186.121 69 185.811 50.250 C 185.513 32.308, 185.397 31.355, 183.099 28.133 C 181.778 26.282, 178.853 23.929, 176.599 22.905 C 171.538 20.607, 162.591 20.444, 158.502 22.575 M 213.500 21.659 C 212.400 21.959, 210.037 23.306, 208.250 24.653 L 205 27.102 205 24.551 C 205 22.126, 204.729 22, 199.500 22 L 194 22 194 45.500 L 194 69 199.500 69 L 205 69 205 54.565 C 205 46.626, 205.439 38.976, 205.975 37.566 C 208.109 31.953, 216.956 29.374, 223.128 32.566 C 227.953 35.061, 229 39.065, 229 55.020 L 229 69.105 234.250 68.802 L 239.500 68.500 239.719 53 C 239.979 34.549, 238.735 29.456, 232.806 24.702 C 229.666 22.185, 228.091 21.694, 222.306 21.428 C 218.563 21.255, 214.600 21.359, 213.500 21.659 M 312.554 21.677 C 308.690 22.759, 302.970 27.089, 300.559 30.756 C 292.412 43.147, 296.662 61.120, 309.283 67.646 C 316.246 71.247, 327.236 70.197, 332.955 65.385 L 336 62.822 336 65.911 C 336 68.989, 336.020 69, 341.500 69 L 347 69 347 45.500 L 347 22 341.500 22 C 336.292 22, 336 22.133, 336 24.514 L 336 27.028 331.861 24.289 C 328.533 22.087, 326.424 21.509, 321.111 21.341 C 317.475 21.226, 313.624 21.377, 312.554 21.677 M 372.373 22.918 C 370.104 23.948, 367.940 25.289, 367.564 25.896 C 366.369 27.830, 365 27.085, 365 24.500 C 365 22.167, 364.667 22, 360 22 L 355 22 355 45.500 L 355 69 359.887 69 L 364.773 69 365.153 55.182 C 365.459 44.039, 365.878 40.835, 367.320 38.634 C 369.738 34.944, 374.799 32.008, 378.750 32.004 L 382 32 382 26.500 C 382 21.161, 381.919 21.001, 379.250 21.022 C 377.738 21.034, 374.643 21.887, 372.373 22.918 M 89 37.351 C 89 53.058, 89.704 57.201, 93.237 62.273 C 97.385 68.228, 109.726 71.514, 118.763 69.069 C 123.880 67.685, 129.791 62.744, 131.649 58.298 C 132.599 56.024, 133 50.155, 133 38.532 L 133 22 128 22 L 123 22 123 35.532 C 123 53.388, 121.061 58.025, 113 59.449 C 108.689 60.210, 103.079 57.602, 101.279 54 C 100.452 52.345, 100.025 46.516, 100.015 36.750 L 100 22 94.500 22 L 89 22 89 37.351 M 263.357 31.938 C 257.588 34.410, 256.025 43.752, 260.612 48.339 C 268.527 56.254, 282.417 48.853, 279.012 38.535 C 278.414 36.724, 277.060 34.459, 276.003 33.503 C 273.785 31.495, 266.495 30.593, 263.357 31.938 M 315.218 32.663 C 309.175 35.642, 306.201 42.523, 308.055 49.238 C 311.481 61.647, 328.601 63.408, 334.520 51.961 C 340.710 39.992, 327.383 26.667, 315.218 32.663 M 404.020 32.752 C 387.318 41.143, 399.332 65.697, 416.437 58.131 C 420.225 56.455, 421.452 55.231, 423.116 51.472 C 428.806 38.607, 416.459 26.502, 404.020 32.752 M 19.500 43.392 C 11.353 45.956, 11 46.376, 11 53.535 L 11 60 20.550 60 C 31.884 60, 35.516 58.601, 36.811 53.737 C 39.301 44.387, 31.381 39.654, 19.500 43.392 M 172.750 119.080 C 171.787 119.641, 171 121.225, 171 122.601 C 171 124.531, 171.828 125.448, 174.632 126.619 C 177.380 127.768, 177.982 128.418, 177.107 129.293 C 176.231 130.169, 175.441 130.132, 173.857 129.143 C 171.074 127.405, 169.262 129.119, 171.507 131.364 C 173.481 133.338, 176.963 133.478, 179.418 131.684 C 181.919 129.855, 181.052 126.859, 177.493 125.034 C 175.847 124.190, 174.342 123.417, 174.150 123.317 C 173.957 123.216, 174.097 122.652, 174.461 122.064 C 174.913 121.332, 175.715 121.312, 177 122 C 179.618 123.401, 180.878 121.115, 178.462 119.348 C 176.285 117.757, 175.116 117.702, 172.750 119.080 M 262.321 119.167 C 255.695 122.437, 258.283 133, 265.712 133 C 268.523 133, 272.502 129.929, 270.941 128.964 C 270.247 128.535, 268.850 128.701, 267.836 129.334 C 265.352 130.886, 262.599 129.121, 262.190 125.716 C 261.805 122.509, 265.260 120.141, 267.551 122.042 C 268.334 122.692, 269.735 122.932, 270.665 122.575 C 272.127 122.014, 272.163 121.738, 270.928 120.529 C 268.901 118.545, 264.873 117.907, 262.321 119.167 M 284.321 119.167 C 277.537 122.515, 280.311 133, 287.980 133 C 290.842 133, 295 128.650, 295 125.656 C 295 120.562, 288.947 116.884, 284.321 119.167 M 366.050 119.759 C 363.349 121.946, 364.125 124.496, 368.121 126.563 C 371.102 128.104, 371.973 130, 369.700 130 C 368.985 130, 367.860 129.460, 367.200 128.800 C 366.267 127.867, 365.722 127.882, 364.750 128.867 C 363.748 129.883, 363.885 130.419, 365.441 131.567 C 370.701 135.449, 377.446 130.446, 372.977 125.977 C 371.890 124.890, 370.325 124, 369.500 124 C 367.943 124, 367.515 122.818, 368.658 121.675 C 369.020 121.313, 369.939 121.534, 370.700 122.166 C 371.748 123.035, 372.379 123.017, 373.292 122.090 C 374.238 121.131, 374.079 120.554, 372.559 119.433 C 370.020 117.559, 368.684 117.626, 366.050 119.759 M 61 126.057 L 61 133.115 65.172 132.807 C 70.121 132.443, 71.784 130, 67.083 130 C 65.009 130, 64 129.509, 64 128.500 C 64 127.567, 64.944 127, 66.500 127 C 68.056 127, 69 126.433, 69 125.500 C 69 124.567, 68.056 124, 66.500 124 C 63.153 124, 63.294 122.216, 66.673 121.816 C 71.501 121.245, 70.633 119, 65.583 119 L 61 119 61 126.057 M 78.971 121.750 C 81.668 130.678, 82.582 132.500, 84.365 132.500 C 85.741 132.500, 86.837 130.814, 88.594 126 C 89.899 122.425, 90.974 119.388, 90.983 119.250 C 90.993 119.112, 90.100 119, 89 119 C 87.900 119, 87 119.623, 87 120.385 C 87 121.147, 86.361 123.285, 85.581 125.135 L 84.162 128.500 82.962 123.750 C 82.084 120.273, 81.277 119, 79.951 119 C 78.440 119, 78.277 119.456, 78.971 121.750 M 100 126 L 100 133 104.500 133 C 107.833 133, 109 132.611, 109 131.500 C 109 130.500, 108 130, 106 130 C 104 130, 103 129.500, 103 128.500 C 103 127.567, 103.944 127, 105.500 127 C 107.056 127, 108 126.433, 108 125.500 C 108 124.567, 107.056 124, 105.500 124 C 102.153 124, 102.294 122.216, 105.673 121.816 C 110.501 121.245, 109.633 119, 104.583 119 L 100 119 100 126 M 118.204 125.670 C 118.392 129.893, 118.959 132.492, 119.750 132.754 C 120.534 133.013, 121 132.204, 121 130.583 C 121 127.313, 122.481 127.279, 124.592 130.500 C 125.493 131.875, 126.853 133, 127.615 133 C 129.367 133, 129.327 132.017, 127.476 129.570 C 126.186 127.864, 126.208 127.428, 127.667 125.816 C 129.009 124.333, 129.105 123.525, 128.180 121.496 C 127.209 119.365, 126.375 119, 122.476 119 L 117.909 119 118.204 125.670 M 137 119.535 C 137 119.830, 137.752 121.218, 138.671 122.621 C 139.591 124.024, 140.605 126.784, 140.925 128.754 C 141.625 133.060, 144 134.417, 144 130.511 C 144 129.051, 145.168 125.864, 146.595 123.428 C 149.093 119.166, 149.114 119, 147.162 119 C 146.013 119, 144.860 119.866, 144.500 121 C 144.151 122.100, 143.554 123, 143.173 123 C 142.793 123, 141.919 122.100, 141.232 121 C 140.124 119.225, 137 118.144, 137 119.535 M 189 120.500 C 189 121.325, 189.651 122, 190.448 122 C 191.489 122, 191.980 123.473, 192.198 127.250 C 192.420 131.116, 192.896 132.500, 194 132.500 C 195.104 132.500, 195.580 131.116, 195.802 127.250 C 196.020 123.473, 196.511 122, 197.552 122 C 198.349 122, 199 121.325, 199 120.500 C 199 119.367, 197.778 119, 194 119 C 190.222 119, 189 119.367, 189 120.500 M 208.204 125.750 L 208.500 132.500 212.750 132.807 C 215.987 133.042, 217 132.760, 217 131.624 C 217 130.753, 215.888 130.001, 214.327 129.816 C 210.379 129.349, 210.107 127, 214 127 C 217.467 127, 217.794 124.764, 214.417 124.153 C 210.898 123.516, 210.464 122, 213.800 122 C 215.978 122, 217 121.521, 217 120.500 C 217 119.387, 215.828 119, 212.454 119 L 207.909 119 208.204 125.750 M 227 126.083 C 227 131.303, 227.329 133.058, 228.250 132.755 C 228.938 132.529, 229.640 131.393, 229.812 130.232 C 230.025 128.790, 230.969 128.023, 232.793 127.810 C 234.645 127.595, 235.751 126.676, 236.404 124.810 C 237.717 121.052, 235.765 119, 230.878 119 L 227 119 227 126.083 M 304 124.345 C 304 131.797, 307.649 134.864, 313.066 131.965 C 314.646 131.119, 315 129.839, 315 124.965 C 315 120.329, 314.666 119, 313.500 119 C 312.365 119, 312 120.226, 312 124.031 C 312 127.722, 311.573 129.226, 310.399 129.677 C 308.202 130.520, 307.034 128.300, 307.015 123.250 C 307.004 120.146, 306.596 119, 305.500 119 C 304.354 119, 304 120.261, 304 124.345 M 325.204 125.670 C 325.392 129.893, 325.959 132.492, 326.750 132.754 C 327.620 133.041, 328 131.864, 328 128.886 L 328 124.606 331.087 128.803 C 332.784 131.111, 334.584 133, 335.087 133 C 335.589 133, 336 129.850, 336 126 C 336 120.444, 335.690 119, 334.500 119 C 333.435 119, 333 120.081, 333 122.732 L 333 126.464 330.464 122.732 C 326.443 116.815, 324.851 117.705, 325.204 125.670 M 345 120.094 C 345 120.695, 345.900 121.423, 347 121.710 C 348.688 122.152, 349 123.074, 349 127.617 C 349 131.735, 349.352 133, 350.500 133 C 351.648 133, 352 131.735, 352 127.617 C 352 123.074, 352.312 122.152, 354 121.710 C 358.084 120.642, 355.963 119, 350.500 119 C 347.186 119, 345 119.435, 345 120.094 M 285.596 122.306 C 281.846 125.048, 285.833 131.848, 289.750 129.393 C 292.112 127.912, 292.469 124.611, 290.482 122.625 C 288.517 120.660, 287.902 120.620, 285.596 122.306 M 121 123.500 C 121 124.333, 121.889 125, 123 125 C 124.111 125, 125 124.333, 125 123.500 C 125 122.667, 124.111 122, 123 122 C 121.889 122, 121 122.667, 121 123.500 M 230 123.500 C 230 124.530, 230.655 125.020, 231.750 124.810 C 233.858 124.404, 233.725 122.629, 231.553 122.177 C 230.647 121.988, 230 122.539, 230 123.500" stroke="none" fill="black" fill-rule="evenodd"/>
</svg>