<svg xmlns="http://www.w3.org/2000/svg" width="225" height="225" viewBox="0 0 225 225" version="1.1">
	<path d="M -0 112.504 L -0 225.009 112.750 224.754 L 225.500 224.500 225.754 112.250 L 226.009 0 113.004 0 L 0 0 -0 112.504 M 0.483 113 C 0.483 174.875, 0.603 200.188, 0.750 169.250 C 0.897 138.313, 0.897 87.688, 0.750 56.750 C 0.603 25.813, 0.483 51.125, 0.483 113 M 105.079 46.882 L 101.657 47.500 101.895 54.729 C 102.109 61.231, 101.887 62.204, 99.689 64.402 C 96.720 67.371, 90.116 69.497, 86.603 68.615 C 82.860 67.676, 80.846 63.898, 80.595 57.346 C 80.467 54.021, 79.882 51.461, 79.196 51.232 C 77.798 50.766, 72.496 52.324, 65.267 55.327 L 60.034 57.500 60.017 62.782 C 59.999 68.477, 61.955 74.259, 64.996 77.496 C 66.870 79.491, 66.856 79.581, 64.023 83.801 C 58.949 91.355, 56.600 103.843, 56.648 123 C 56.705 145.427, 59.672 156.097, 68.600 165.979 C 77.507 175.837, 86.736 178.462, 112.500 178.462 C 138.264 178.462, 147.493 175.837, 156.400 165.979 C 165.227 156.209, 168.263 145.439, 168.375 123.500 C 168.477 103.338, 165.955 90.393, 160.475 82.966 C 158.024 79.644, 158.021 79.607, 159.956 77.547 C 163.039 74.265, 165 68.513, 165 62.751 C 165 56.826, 165.448 57.197, 153.095 52.886 C 144.728 49.967, 144.526 50.064, 144.270 57.139 C 143.911 67.055, 140.035 70.525, 132.007 68.120 C 124.725 65.938, 123.523 64.170, 123.320 55.340 L 123.140 47.500 119.320 46.808 C 114.832 45.994, 109.845 46.020, 105.079 46.882 M 93.628 81.031 C 83.463 82.636, 78.332 87.221, 75.994 96.791 C 73.926 105.251, 73.573 131.402, 75.395 141.107 C 79.030 160.471, 82.505 162.472, 112.500 162.472 C 133.052 162.472, 137.853 161.677, 142.884 157.444 C 148.738 152.519, 151.483 138.242, 150.740 116.597 C 149.936 93.218, 146.491 85.006, 136.219 81.982 C 131.290 80.532, 101.068 79.857, 93.628 81.031 M 86 121 L 86 152 94 152 L 102 152 102 139.607 C 102 125.266, 101.433 126, 112.500 126 C 123.567 126, 123 125.266, 123 139.607 L 123 152 131 152 L 139 152 139 121 L 139 90 130.938 90 L 122.876 90 123.006 98.250 C 123.078 102.787, 123.106 107.737, 123.068 109.250 L 123 112 112.500 112 L 102 112 101.892 103.750 C 101.833 99.213, 101.772 94.263, 101.757 92.750 L 101.730 90 93.865 90 L 86 90 86 121" stroke="none" fill="black" fill-rule="evenodd"/>
</svg>