<svg xmlns="http://www.w3.org/2000/svg" width="1400" height="508" viewBox="0 0 1400 508" version="1.1">
	<path d="M 176.164 40.750 C 172.201 63.163, 163.357 113.225, 156.511 152 C 149.666 190.775, 143.338 225.137, 142.450 228.359 C 139.836 237.845, 137.351 242.710, 132.439 247.962 C 126.303 254.522, 121.286 256.410, 111.634 255.790 C 92.943 254.591, 89.672 244.520, 96 207.662 C 97.650 198.052, 99 189.917, 99 189.585 C 99 189.252, 78.638 189.097, 53.750 189.240 L 8.500 189.500 6.291 201.500 C 0.361 233.721, -0.505 251.798, 3.046 269.226 C 5.566 281.590, 8.509 288.989, 14.486 297.979 C 26.692 316.340, 48.035 328.250, 76.231 332.437 C 88.371 334.240, 116.219 334.524, 129.026 332.976 C 163.955 328.753, 188.492 317.699, 207.969 297.412 C 224.382 280.316, 235.435 258.920, 242.925 229.741 C 244.512 223.558, 249.256 198.700, 253.468 174.500 C 257.679 150.300, 266.271 101.476, 272.562 66.003 C 278.853 30.530, 284 1.167, 284 0.753 C 284 0.339, 261.358 0, 233.685 0 L 183.369 0 176.164 40.750 M 436.211 23.741 C 429.077 36.808, 409.404 72.925, 392.493 104 C 375.583 135.075, 352.050 178.275, 340.198 200 C 328.346 221.725, 312.929 250.075, 305.937 263 C 298.945 275.925, 288.449 295.230, 282.613 305.901 C 276.776 316.571, 272 325.459, 272 325.651 C 272 325.843, 294.746 326, 322.547 326 L 373.094 326 384.237 303 L 395.379 280 447.190 280 C 485.378 280, 499 280.300, 499 281.143 C 499 283.033, 504.175 325.479, 504.440 325.759 C 504.574 325.901, 528.072 325.901, 556.657 325.759 L 608.630 325.500 600.380 281.500 C 595.842 257.300, 587.160 210.950, 581.086 178.500 C 566.987 103.182, 549.344 9.680, 548.253 4.500 L 547.411 0.500 498.296 0.241 L 449.182 -0.019 436.211 23.741 M 698 0.769 C 698 1.482, 693.213 28.630, 658.107 227 C 645.329 299.201, 641 324.093, 641 325.361 C 641 325.712, 663.658 326, 691.352 326 L 741.704 326 742.770 319.750 C 745.449 304.041, 758.098 232.259, 758.542 230.250 L 759.038 228 793.913 228 C 830.699 228, 843.497 227.182, 859 223.838 C 909.630 212.917, 945.027 182.160, 960.501 135.644 C 966.283 118.263, 967.505 110.499, 967.454 91.500 C 967.415 77.101, 967.061 73.200, 965.142 66 C 960.521 48.664, 950.262 32.201, 937.691 21.944 C 924.545 11.219, 904.098 3.459, 882.697 1.072 C 871.559 -0.169, 698 -0.455, 698 0.769 M 1031.596 2.750 C 1031.286 4.263, 1029.206 15.850, 1026.974 28.500 C 1022.301 54.975, 1006.963 141.678, 994.600 211.500 C 980.442 291.466, 975 322.907, 975 324.747 C 975 326.410, 982.021 326.488, 1112.249 326.257 L 1249.499 326.014 1250.196 323.257 C 1251.058 319.852, 1264 245.644, 1264 244.109 C 1264 243.306, 1240.016 243, 1176.981 243 L 1089.962 243 1090.461 240.750 C 1090.736 239.512, 1092.301 230.726, 1093.938 221.224 C 1095.575 211.722, 1097.185 203.509, 1097.516 202.974 C 1097.898 202.356, 1126.054 202, 1174.559 202 C 1216.602 202, 1251.032 201.887, 1251.072 201.750 C 1251.111 201.613, 1254.166 184.400, 1257.861 163.500 L 1264.578 125.500 1188.582 125.244 C 1146.785 125.103, 1112.226 124.626, 1111.784 124.184 C 1111.144 123.544, 1114.595 101.304, 1117.592 86.750 L 1118.159 84 1202.611 84 C 1269.265 84, 1287.158 83.737, 1287.515 82.750 C 1288.033 81.317, 1302 2.476, 1302 0.983 C 1302 0.344, 1254.804 0, 1167.079 0 L 1032.159 0 1031.596 2.750 M 1348.033 1.536 C 1341.005 3.508, 1334.130 7.949, 1328.622 14.076 C 1310.653 34.062, 1317.206 65.677, 1341.725 77.291 C 1348.013 80.269, 1349.255 80.500, 1359 80.500 C 1368.662 80.500, 1370.019 80.254, 1376 77.413 C 1383.843 73.689, 1390.582 67.099, 1395.138 58.699 C 1398.401 52.683, 1398.500 52.159, 1398.500 40.984 C 1398.500 30.020, 1398.345 29.152, 1395.259 22.879 C 1386.829 5.743, 1366.226 -3.568, 1348.033 1.536 M 1350.734 7.025 C 1344.516 8.594, 1338.934 11.934, 1333.908 17.095 C 1327.513 23.660, 1324.672 31.052, 1324.657 41.168 C 1324.646 47.792, 1325.082 49.724, 1327.853 55.353 C 1334.009 67.858, 1345.332 75, 1359 75 C 1371.949 75, 1383.181 68.324, 1389.538 56.848 C 1392.293 51.873, 1392.500 50.767, 1392.500 41 C 1392.500 32.105, 1392.153 29.796, 1390.231 25.896 C 1387.169 19.681, 1380.040 12.656, 1373.595 9.503 C 1367.634 6.586, 1357.030 5.437, 1350.734 7.025 M 1342.493 19.158 C 1342.199 19.925, 1342.080 29.990, 1342.229 41.526 L 1342.500 62.500 1346.250 62.810 L 1350 63.121 1350 53.917 L 1350 44.713 1357.250 45.386 C 1366.639 46.257, 1368.320 47.815, 1369 56.277 L 1369.500 62.500 1373.250 62.810 L 1377 63.121 1377 57.461 C 1377 51.249, 1374.924 45.808, 1371.620 43.362 C 1369.947 42.123, 1369.804 41.678, 1370.943 41.249 C 1374.637 39.856, 1377 36.089, 1377 31.593 C 1377 21.067, 1373.294 18.724, 1355.764 18.168 C 1345.522 17.843, 1342.923 18.037, 1342.493 19.158 M 1350 31.474 L 1350 39.212 1358.089 38.844 C 1367.147 38.433, 1369 37.180, 1369 31.464 C 1369 26.526, 1366.227 24.778, 1357.506 24.219 L 1350 23.737 1350 31.474 M 784 84.774 C 784 85.200, 781.529 99.488, 778.510 116.524 C 775.490 133.561, 773.015 148.063, 773.010 148.750 C 773.002 149.716, 778.507 149.998, 797.250 149.992 C 832.204 149.981, 842.924 148.430, 853.959 141.787 C 863.892 135.807, 869.735 125.004, 870.738 110.766 C 871.895 94.359, 865.276 87.476, 846.022 85.062 C 836.327 83.846, 784 83.604, 784 84.774 M 455.662 157.473 C 442.607 183.859, 431.669 206.471, 431.355 207.723 L 430.783 210 460.926 210 L 491.069 210 490.451 205.250 C 490.111 202.637, 487.485 180.025, 484.615 155 L 479.397 109.500 455.662 157.473 M 339.714 428.619 C 339.321 429.012, 339 431.283, 339 433.667 L 339 438 343.055 438 L 347.110 438 346.805 433.250 C 346.517 428.770, 346.327 428.483, 343.464 428.203 C 341.794 428.039, 340.107 428.227, 339.714 428.619 M 353.398 429.405 C 353.102 430.177, 353.003 432.315, 353.180 434.155 C 353.474 437.231, 353.802 437.525, 357.250 437.810 L 361 438.121 361 433.060 L 361 428 357.469 428 C 355.358 428, 353.720 428.565, 353.398 429.405 M 342.153 444.311 C 337.448 446.088, 332.129 451.462, 329.705 456.887 C 326.843 463.292, 326.087 481.348, 328.354 489.147 C 331.781 500.936, 339.134 507, 350 507 C 366.015 507, 373.646 495.408, 372.854 472.283 C 372.519 462.473, 372.163 460.699, 369.477 455.448 C 365.292 447.265, 360.052 443.684, 351.729 443.319 C 348.303 443.169, 343.994 443.616, 342.153 444.311 M 672.271 444.964 C 666.392 447.632, 664.008 451.886, 664.004 459.715 C 664 465.279, 664.334 466.311, 667.189 469.562 C 668.942 471.559, 673.654 475.405, 677.659 478.107 C 685.590 483.459, 687 485.254, 687 490 C 687 494.184, 685.543 496.668, 682.020 498.490 C 678.083 500.525, 674.076 500.390, 668.583 498.036 L 664 496.071 664 500.438 C 664 504.436, 664.265 504.897, 667.149 505.902 C 671.555 507.438, 682.416 507.271, 686.400 505.606 C 694.634 502.166, 698.361 490.509, 694.065 481.635 C 692.321 478.031, 690.143 475.937, 683.483 471.460 C 678.871 468.359, 674.536 465.145, 673.849 464.318 C 671.788 461.835, 672.340 456.332, 674.926 453.579 C 678.629 449.637, 683.467 449.317, 691.250 452.499 C 692.745 453.110, 693 452.629, 693 449.205 C 693 445.607, 692.677 445.083, 689.851 444.098 C 685.043 442.422, 676.997 442.818, 672.271 444.964 M 1044.271 444.964 C 1038.392 447.632, 1036.008 451.886, 1036.004 459.715 C 1036 465.279, 1036.334 466.311, 1039.189 469.562 C 1040.942 471.559, 1045.654 475.405, 1049.659 478.107 C 1057.590 483.459, 1059 485.254, 1059 490 C 1059 494.184, 1057.543 496.668, 1054.020 498.490 C 1050.155 500.488, 1047.059 500.394, 1041.011 498.096 L 1036 496.192 1036 500.519 C 1036 504.595, 1036.207 504.913, 1039.583 506.028 C 1045.068 507.838, 1057.290 506.910, 1060.699 504.425 C 1065.240 501.115, 1068.198 494.392, 1067.746 488.411 C 1067.185 480.977, 1064.202 476.976, 1054.422 470.534 C 1043.481 463.329, 1041.787 459.264, 1047.241 453.302 C 1050.589 449.641, 1055.641 449.388, 1063.250 452.499 C 1064.745 453.110, 1065 452.629, 1065 449.205 C 1065 445.607, 1064.677 445.083, 1061.851 444.098 C 1057.043 442.422, 1048.997 442.818, 1044.271 444.964 M 273 475.557 L 273 507.115 277.250 506.807 L 281.500 506.500 281.777 492.287 L 282.054 478.074 291.277 477.787 L 300.500 477.500 300.500 474 L 300.500 470.500 291.250 470.212 L 282 469.925 282 460.462 L 282 451 292 451 L 302 451 302 447.500 L 302 444 287.500 444 L 273 444 273 475.557 M 402 475.557 L 402 507.115 406.250 506.807 L 410.500 506.500 410.777 492.250 C 411.079 476.745, 410.823 477.268, 417.238 479.049 C 421.684 480.284, 422.186 481.129, 426.969 495.437 L 430.667 506.500 435.464 506.810 C 439.750 507.087, 440.184 506.928, 439.542 505.310 C 439.147 504.315, 436.856 497.875, 434.450 491 C 431.849 483.567, 429.230 477.811, 427.990 476.801 L 425.903 475.101 428.704 473.653 C 432.744 471.564, 434.661 469.075, 435.946 464.250 C 437.953 456.710, 434.595 448.940, 427.800 445.405 C 425.936 444.435, 421.521 444, 413.550 444 L 402 444 402 475.557 M 506 475.500 L 506 507 510.500 507 L 515 507 515 492.538 L 515 478.075 524.250 477.788 L 533.500 477.500 533.500 474 L 533.500 470.500 524.250 470.212 L 515 469.925 515 460.499 L 515 451.072 524.750 450.786 L 534.500 450.500 534.813 447.250 L 535.127 444 520.563 444 L 506 444 506 475.500 M 562 475.500 L 562 507 566.500 507 L 571 507 571 492.500 C 571 476.662, 570.731 477.242, 577.238 479.049 C 581.684 480.284, 582.186 481.129, 586.969 495.437 L 590.667 506.500 595.334 506.805 C 597.900 506.972, 600 506.934, 600 506.720 C 600 504.292, 589.625 478.125, 588.229 477.031 C 586.433 475.623, 586.479 475.477, 589.335 473.531 C 594.684 469.886, 596.467 466.505, 596.467 460 C 596.467 453.393, 594.689 450.115, 589.010 446.250 C 586.041 444.229, 584.497 444, 573.852 444 L 562 444 562 475.500 M 627 475.500 L 627 507 631 507 L 635 507 635 475.500 L 635 444 631 444 L 627 444 627 475.500 M 723.236 475.250 L 723.500 506.500 727.723 506.806 L 731.946 507.112 732.223 492.359 L 732.500 477.606 743 492.279 L 753.500 506.953 758.750 506.976 C 761.638 506.989, 764 506.816, 764 506.591 C 764 506.367, 758.665 499.228, 752.144 490.729 C 745.623 482.229, 740.015 474.834, 739.682 474.295 C 739.349 473.756, 744.223 466.832, 750.512 458.908 L 761.948 444.500 757.224 444.171 C 751.866 443.798, 753.153 442.615, 739.565 460.402 L 732 470.304 732 457.152 L 732 444 727.486 444 L 722.972 444 723.236 475.250 M 803.514 445.195 C 799.832 455.504, 783 505.592, 783 506.239 C 783 506.721, 784.855 506.977, 787.121 506.807 L 791.242 506.500 793.795 498.220 L 796.347 489.940 807.864 490.220 L 819.381 490.500 821.940 498.500 L 824.500 506.500 828.750 506.807 C 831.087 506.977, 833 506.797, 833 506.409 C 833 506.021, 828.921 493.058, 823.935 477.602 C 818.949 462.146, 814.527 448.375, 814.107 447 C 813.455 444.865, 812.660 444.455, 808.662 444.195 C 805.488 443.988, 803.829 444.310, 803.514 445.195 M 898 475.500 L 898 507.115 902.250 506.807 L 906.500 506.500 906.500 492.249 L 906.500 477.998 917.250 477.999 L 928 478 928 492.500 L 928 507 932 507 L 936 507 936 475.500 L 936 444 932 444 L 928 444 928 457 L 928 470 917.530 470 L 907.060 470 906.780 457.250 L 906.500 444.500 902.250 444.193 L 898 443.885 898 475.500 M 967.239 468.250 C 967.766 494.600, 968.225 497.023, 973.668 502.186 C 977.426 505.751, 981.014 507, 987.500 507 C 996.572 507, 1001.666 503.963, 1005.110 496.500 C 1006.742 492.964, 1006.959 489.686, 1006.978 468.250 L 1007 444 1003 444 L 999 444 998.994 465.750 C 998.991 477.712, 998.549 489.075, 998.012 491 C 996.444 496.616, 992.640 500, 987.894 500 C 982.407 500, 980.164 498.574, 977.937 493.669 C 976.260 489.975, 976.041 486.907, 976.022 466.750 L 976 444 971.377 444 L 966.754 444 967.239 468.250 M 346 450.704 C 338.399 453.470, 333.731 468.296, 335.996 482.477 C 337.221 490.141, 339.932 496.138, 343.209 498.434 C 346.051 500.424, 352.236 500.446, 356.040 498.479 C 367.399 492.606, 367.399 457.394, 356.040 451.521 C 353.115 450.008, 348.863 449.662, 346 450.704 M 411 461.287 L 411 471.574 416.876 471.012 C 423.637 470.365, 425.454 469.185, 427.028 464.417 C 429.641 456.497, 425.273 451, 416.365 451 L 411 451 411 461.287 M 571 461.278 L 571 471.557 575.250 471.322 C 582.067 470.944, 583.941 470.144, 586.027 466.723 C 588.930 461.962, 588.595 457.441, 585.077 453.923 C 582.545 451.391, 581.408 451, 576.577 451 L 571 451 571 461.278 M 803.500 467.166 C 801.300 474.402, 799.355 480.924, 799.177 481.661 C 798.924 482.706, 800.869 483, 808.034 483 C 814.944 483, 817.106 482.691, 816.778 481.750 C 816.538 481.063, 814.577 474.542, 812.421 467.260 C 810.264 459.978, 808.275 454.018, 808 454.016 C 807.725 454.013, 805.700 459.931, 803.500 467.166" stroke="none" fill="black" fill-rule="evenodd"/>
</svg>