<svg xmlns="http://www.w3.org/2000/svg" width="1400" height="248" viewBox="0 0 1400 248" version="1.1">
	<path d="M 1253.314 4.750 C 1248.278 18.886, 1186.643 171.410, 1173.953 201.139 C 1165.258 221.509, 1162.397 226.591, 1158.645 228.327 C 1155.785 229.650, 1147.959 230.914, 1142.250 230.976 C 1140.126 230.999, 1140 231.405, 1140 238.250 L 1140 245.500 1179.500 245.500 L 1219 245.500 1219 238.387 L 1219 231.274 1209.286 230.561 C 1197.615 229.704, 1193.328 228.156, 1192.402 224.464 C 1191.519 220.949, 1194.330 210.665, 1202.029 189.240 L 1208.232 171.979 1252.310 172.240 L 1296.389 172.500 1300.539 183 C 1302.822 188.775, 1306.816 198.900, 1309.414 205.500 C 1312.013 212.100, 1314.390 219.590, 1314.696 222.144 C 1315.474 228.625, 1313.561 229.707, 1299.748 230.600 L 1289 231.295 1289 238.397 L 1289 245.500 1343.250 245.401 L 1397.500 245.301 1397.802 239.002 C 1397.967 235.538, 1397.722 232.322, 1397.256 231.856 C 1396.790 231.390, 1392.906 230.713, 1388.625 230.351 C 1377.739 229.431, 1375.584 227.761, 1370.735 216.496 C 1368.605 211.548, 1363.795 200.750, 1360.046 192.500 C 1356.297 184.250, 1339.409 145.100, 1322.517 105.500 C 1305.625 65.900, 1288.872 26.637, 1285.288 18.250 L 1278.771 3 1266.354 3 C 1255.433 3, 1253.862 3.211, 1253.314 4.750 M 3.417 4.917 C 2.672 5.661, 2.977 18.868, 3.750 19.328 C 4.163 19.573, 7.650 20.056, 11.500 20.401 C 22.714 21.407, 27.522 22.084, 28.648 22.816 C 32.773 25.497, 33.266 33.348, 34.594 117.562 C 35.252 159.330, 33.975 208.431, 31.945 219.423 C 30.337 228.125, 28.273 229.043, 7.500 230.299 L 3.500 230.541 3.500 237.854 L 3.500 245.167 58.250 245.333 L 113 245.500 113 238.295 L 113 231.091 109.750 230.599 C 107.963 230.328, 102.932 229.857, 98.571 229.551 C 89.268 228.899, 86.495 227.406, 85.027 222.259 C 84.390 220.025, 83.698 201.052, 83.322 175.500 C 82.745 136.356, 82.836 132.378, 84.331 131.138 C 88.956 127.305, 93.889 131.845, 126.023 169.500 C 139.634 185.450, 156.690 205.250, 163.926 213.500 C 171.161 221.750, 179.651 232.325, 182.791 237 L 188.500 245.500 223.500 245.500 L 258.500 245.500 258.500 238.149 L 258.500 230.798 252.500 230.347 C 240.149 229.420, 239.009 228.269, 170.508 147.500 C 157.913 132.650, 144.240 116.537, 140.124 111.693 L 132.639 102.886 147.570 87.830 C 162.141 73.137, 192.931 45.003, 206.057 34.389 C 214.386 27.653, 223.333 22.257, 228.458 20.877 C 230.656 20.285, 236.290 19.508, 240.978 19.150 L 249.500 18.500 249.791 11.377 L 250.082 4.254 218.044 4.377 L 186.005 4.500 186.002 11.544 L 186 18.588 174.081 32.044 C 160.277 47.628, 102.694 105.998, 92.762 114.473 C 88.561 118.058, 85.455 120.005, 84.512 119.643 C 83.206 119.142, 83 114.656, 83 86.677 C 83 49.557, 84.219 30.022, 86.813 25.581 C 89 21.835, 95.859 20.098, 108.750 20.024 L 113 20 113 12.250 L 113 4.500 58.417 4.500 C 28.397 4.500, 3.646 4.688, 3.417 4.917 M 280 12.250 L 280 20 284.750 20.020 C 291.925 20.050, 302.757 21.823, 305.995 23.498 C 310.527 25.841, 310.810 29.552, 311.626 97.500 C 312.257 150.044, 310.824 220.702, 309.032 225.415 C 308.548 226.689, 304.658 229.576, 299.604 232.413 L 291 237.242 291.001 241.371 L 291.002 245.500 374.251 245.471 C 436.811 245.449, 458.521 245.138, 461.607 244.221 L 465.714 243 466.413 232.750 C 466.797 227.112, 468.210 214.400, 469.552 204.500 C 470.894 194.600, 471.994 185.713, 471.996 184.750 C 471.999 183.242, 470.985 183, 464.653 183 L 457.306 183 453.905 198.644 C 449.529 218.767, 449.097 219.475, 440.328 220.912 C 422.604 223.815, 383.899 225.108, 367.147 223.358 L 361 222.715 361.031 137.108 C 361.061 53.606, 361.689 29.319, 363.926 25.138 C 365.331 22.512, 370.282 21.144, 381.289 20.338 L 390.079 19.695 389.789 12.302 L 389.500 4.908 334.750 4.704 L 280 4.500 280 12.250 M 503.417 4.917 C 503.188 5.146, 503 8.633, 503 12.667 L 503 20 506.750 20.030 C 508.813 20.047, 513.875 20.308, 518 20.609 C 526.733 21.248, 530.029 23.092, 531.369 28.091 C 532.825 33.520, 533.376 185.352, 532.016 206.350 C 531.381 216.168, 530.614 224.843, 530.313 225.628 C 529.267 228.354, 525.441 229.399, 514.500 229.948 L 503.500 230.500 503.213 238 L 502.925 245.500 557.963 245.500 L 613 245.500 613 237.863 L 613 230.227 602.750 229.821 C 590.258 229.326, 587.044 227.992, 585.072 222.487 C 581.909 213.661, 582.762 32.568, 585.998 25.779 C 587.650 22.312, 591.030 21.260, 603.250 20.407 L 613 19.726 613 12.113 L 613 4.500 558.417 4.500 C 528.397 4.500, 503.646 4.688, 503.417 4.917 M 641.418 4.917 C 641.188 5.146, 641 8.388, 641 12.121 L 641 18.909 644.250 19.402 C 646.038 19.673, 650.650 20.118, 654.500 20.389 C 663.904 21.053, 667.700 22.541, 669.734 26.358 C 671.177 29.067, 671.528 35.226, 672.274 71 C 673.780 143.154, 672.010 216.254, 668.556 224.520 C 666.798 228.727, 663.267 229.875, 651 230.227 L 641.500 230.500 641.205 238.403 L 640.910 246.306 650.109 245.653 C 655.168 245.294, 673.863 245, 691.654 245 L 724 245 724 238.150 L 724 231.301 714.166 230.656 C 701.478 229.825, 698.175 228.663, 696.396 224.405 C 694.383 219.589, 692.828 161.895, 693.198 105.807 L 693.500 60.113 703.500 72.268 C 750.470 129.361, 806.391 195.692, 837.875 231.658 L 850.250 245.794 857.666 246.897 C 868.164 248.458, 883.055 248.370, 882.539 246.750 C 880.597 240.657, 879.440 118.038, 880.905 73.581 C 882.218 33.720, 883.068 25.290, 886.023 22.828 C 887.813 21.336, 892.728 20.442, 904 19.559 C 905.925 19.408, 908.307 19.221, 909.294 19.142 C 910.866 19.018, 911.051 18.130, 910.794 11.950 L 910.500 4.901 869.500 4.901 L 828.500 4.901 828.206 11.950 C 827.947 18.159, 828.126 19.005, 829.706 19.045 C 830.693 19.070, 833.975 19.300, 837 19.556 C 855.508 21.127, 856.517 21.626, 858.095 30 C 858.713 33.283, 859.348 64.327, 859.670 107 L 860.210 178.500 857.482 176 C 853.606 172.447, 825.947 141.398, 809.824 122.500 C 792.892 102.654, 756.882 58.337, 733.427 28.477 C 723.696 16.089, 715.288 5.678, 714.741 5.340 C 713.645 4.662, 642.088 4.249, 641.418 4.917 M 933.584 4.865 C 933.243 5.415, 933.416 13.659, 933.968 23.183 C 934.520 32.707, 934.977 45.563, 934.985 51.750 L 935 63 942.353 63 L 949.705 63 950.393 52.750 C 950.771 47.112, 951.625 39.804, 952.290 36.510 C 954.073 27.682, 953.681 27.783, 988.551 27.208 L 1017.679 26.727 1018.335 38.113 C 1019.315 55.120, 1019.083 189.258, 1018.044 206.215 C 1017.542 214.410, 1016.557 222.163, 1015.822 223.715 C 1013.766 228.047, 1008.549 229.989, 997.097 230.687 L 987 231.302 987 238.401 L 987 245.500 1043.500 245.500 L 1100 245.500 1100 238.401 L 1100 231.301 1089.504 230.707 C 1071.884 229.709, 1070.227 227.991, 1068.956 209.403 C 1067.937 194.487, 1067.691 47.624, 1068.665 35.112 L 1069.318 26.725 1097.909 27.330 C 1113.634 27.662, 1127.751 28.229, 1129.280 28.590 C 1130.809 28.950, 1132.576 30.202, 1133.206 31.372 C 1134.240 33.294, 1136.845 53.390, 1136.955 60.294 L 1137 63.088 1144.250 62.794 L 1151.500 62.500 1152.112 38.500 C 1152.449 25.300, 1153.076 12.542, 1153.506 10.148 C 1154.014 7.324, 1153.914 5.565, 1153.221 5.137 C 1152.635 4.774, 1145.932 4.843, 1138.327 5.289 C 1121.276 6.290, 938.133 5.695, 935.851 4.632 C 934.944 4.209, 933.924 4.314, 933.584 4.865 M 1250.004 67.500 C 1249.379 69.150, 1241.664 88.654, 1232.860 110.843 C 1224.055 133.031, 1217.148 151.481, 1217.509 151.843 C 1218.390 152.723, 1285.643 152.691, 1286.524 151.809 C 1287.077 151.256, 1254.967 71.551, 1251.955 66 C 1251.321 64.832, 1250.889 65.164, 1250.004 67.500" stroke="none" fill="black" fill-rule="evenodd"/>
</svg>