<svg xmlns="http://www.w3.org/2000/svg" width="978" height="200" viewBox="0 0 978 200" version="1.1">
	<path d="M 446.734 53.041 C 424.765 58.494, 411.558 86.270, 417.511 114.500 C 423.346 142.168, 446.229 154.740, 470.514 143.622 C 473.388 142.306, 477.599 139.551, 479.870 137.498 C 483.995 133.772, 484 133.758, 484 126.438 L 484 119.110 488.672 118.805 C 491.283 118.634, 493.525 117.949, 493.755 117.250 C 494.073 116.284, 490.403 116, 477.583 116 C 463.509 116, 461 116.227, 461 117.500 C 461 118.633, 462.222 119, 466 119 L 471 119 471 127.050 C 471 137.013, 469.430 140.448, 463.684 143.057 C 458.751 145.296, 450.310 145.574, 445.702 143.649 C 435.473 139.375, 430.015 124.188, 430.015 100 C 430.015 65.951, 440.756 50.353, 460.193 56.176 C 468.281 58.599, 477.086 69.434, 478.585 78.807 C 479.915 87.126, 481 82.722, 481 69 C 481 61.031, 480.599 55, 480.070 55 C 479.558 55, 478.995 55.967, 478.820 57.148 C 478.330 60.435, 475.487 61.793, 472.753 60.043 C 462.147 53.256, 454.336 51.154, 446.734 53.041 M 610.500 52.876 C 596.982 56.390, 585.848 68.969, 581.508 85.632 C 579.575 93.053, 579.575 106.947, 581.508 114.368 C 585.102 128.168, 593.948 139.942, 604.500 144.972 C 611.881 148.489, 621.613 148.356, 629 144.635 C 644.129 137.015, 653 120.517, 653 100 C 653 79.707, 644.078 62.914, 629.409 55.595 C 623.921 52.857, 615.328 51.621, 610.500 52.876 M 31.717 54.617 C 30.228 56.105, 32.422 57, 37.559 57 L 43 57 43 99.950 L 43 142.900 37.250 143.200 C 34.058 143.367, 31.611 143.945, 31.750 144.500 C 31.911 145.142, 44.250 145.500, 66.250 145.500 L 100.500 145.500 100.500 130.750 C 100.500 114.917, 98.958 110.497, 97.887 123.262 C 96.531 139.421, 90.922 143, 66.951 143 L 55 143 55 100 L 55 57 61.083 57 C 65.505 57, 67.053 56.659, 66.751 55.750 C 66.445 54.830, 61.852 54.428, 49.357 54.227 C 40.019 54.077, 32.081 54.252, 31.717 54.617 M 108.667 54.667 C 107.040 56.293, 108.353 57, 113 57 L 118 57 118 100 L 118 143 112.917 143 C 109.295 143, 107.953 143.359, 108.250 144.250 C 108.569 145.210, 116.478 145.561, 142.333 145.763 L 176 146.027 176 132.513 C 176 125.081, 175.650 119, 175.221 119 C 174.793 119, 173.947 122.150, 173.341 125.999 C 171.152 139.899, 165.767 143, 143.818 143 L 131 143 131 122 L 131 101 138.444 101 C 148.089 101, 150.768 102.975, 151.670 110.750 C 152.899 121.351, 154 115.536, 154 98.441 C 154 86.990, 153.652 81.097, 153 81.500 C 152.450 81.840, 152 83.456, 152 85.091 C 152 93.676, 146.819 98, 136.532 98 L 131 98 131 77.402 L 131 56.804 144.250 57.178 C 158.899 57.591, 162.168 58.618, 166.008 64.011 C 167.199 65.684, 168.472 69.140, 168.837 71.693 C 169.202 74.245, 170.036 76.512, 170.690 76.730 C 171.574 77.025, 171.750 74.746, 171.377 67.813 C 171.101 62.691, 170.670 57.487, 170.419 56.250 L 169.962 54 139.648 54 C 122.975 54, 109.033 54.300, 108.667 54.667 M 189 55.448 C 189 56.485, 190.463 56.981, 194.165 57.198 L 199.329 57.500 210.174 78.500 C 216.138 90.050, 220.833 100.280, 220.607 101.233 C 220.381 102.186, 215.315 111.341, 209.348 121.578 C 197.727 141.518, 196.322 143, 189.050 143 C 186.117 143, 185 143.414, 185 144.500 C 185 145.759, 187.167 146, 198.500 146 C 209.833 146, 212 145.759, 212 144.500 C 212 143.387, 210.830 143, 207.469 143 C 204.495 143, 202.752 142.516, 202.397 141.592 C 202.005 140.570, 220.085 107.009, 222.572 104.142 C 222.870 103.798, 242 141.504, 242 142.435 C 242 142.686, 239.863 143.028, 237.250 143.195 C 234.637 143.363, 232.613 143.950, 232.750 144.500 C 232.904 145.116, 239.333 145.500, 249.500 145.500 C 259.667 145.500, 266.096 145.116, 266.250 144.500 C 266.387 143.950, 264.349 143.362, 261.720 143.194 L 256.939 142.888 243.833 116.654 L 230.728 90.421 239.385 75.316 C 244.146 67.008, 248.746 59.626, 249.607 58.911 C 250.468 58.196, 253.047 57.361, 255.337 57.056 C 263.533 55.962, 258.978 54.499, 246.503 54.220 C 236.023 53.986, 234 54.179, 234 55.415 C 234 56.466, 235.368 56.978, 238.750 57.195 C 242.663 57.446, 243.552 57.863, 243.795 59.560 C 244.065 61.449, 230.310 87, 229.023 87 C 228.496 87, 214 58.526, 214 57.491 C 214 57.221, 216.025 57, 218.500 57 C 221.833 57, 223 56.611, 223 55.500 C 223 54.225, 220.444 54, 206 54 C 191.828 54, 189 54.241, 189 55.448 M 276 55.500 C 276 56.652, 277.278 57, 281.500 57 L 287 57 287 100 L 287 143 281.500 143 C 277.278 143, 276 143.348, 276 144.500 C 276 145.773, 278.500 146, 292.500 146 C 306.500 146, 309 145.773, 309 144.500 C 309 143.367, 307.778 143, 304 143 L 299 143 299 100 L 299 57 304 57 C 307.778 57, 309 56.633, 309 55.500 C 309 54.227, 306.500 54, 292.500 54 C 278.500 54, 276 54.227, 276 55.500 M 322.723 54.610 C 321.225 56.109, 323.420 57, 328.610 57 L 334.103 57 333.801 98.348 C 333.564 130.901, 333.218 140.035, 332.172 141.294 C 331.442 142.173, 328.967 143.029, 326.672 143.196 C 324.377 143.363, 322.613 143.950, 322.750 144.500 C 322.899 145.097, 327.833 145.500, 335 145.500 C 342.323 145.500, 347.006 145.110, 347.015 144.500 C 347.023 143.950, 345.034 143.364, 342.595 143.198 C 340.155 143.033, 337.668 142.305, 337.068 141.582 C 336.310 140.669, 336.057 128.337, 336.238 101.271 L 336.500 62.274 363.536 103.816 C 378.406 126.664, 391.118 145.539, 391.786 145.762 C 392.725 146.075, 393 136.516, 393 103.518 C 393 76.031, 393.368 60.181, 394.035 58.934 C 394.821 57.465, 396.144 57, 399.535 57 C 402.877 57, 404 56.615, 404 55.469 C 404 54.163, 402.204 53.980, 391.750 54.219 C 384.437 54.387, 379.500 54.903, 379.500 55.500 C 379.500 56.050, 381.635 56.637, 384.244 56.805 C 387.682 57.025, 389.269 57.634, 390.009 59.016 C 390.656 60.225, 390.932 71.905, 390.765 90.905 L 390.500 120.887 368.857 87.694 L 347.215 54.500 335.303 54.221 C 328.752 54.067, 323.091 54.242, 322.723 54.610 M 498 68 C 498 82.908, 499.281 86.648, 500.371 74.923 C 501.639 61.279, 506.602 57.020, 521.250 57.006 L 527 57 527 99.950 L 527 142.900 521.488 143.200 C 518.457 143.365, 515.982 143.950, 515.988 144.500 C 515.996 145.128, 522.508 145.500, 533.500 145.500 C 544.333 145.500, 551.095 145.119, 551.250 144.500 C 551.389 143.945, 548.942 143.367, 545.750 143.200 L 540 142.900 540 99.950 L 540 57 545.750 57.006 C 561.013 57.020, 567 62.949, 567 78.049 C 567 80.222, 567.450 82, 568 82 C 568.619 82, 569 76.667, 569 68 L 569 54 533.500 54 L 498 54 498 68 M 665.667 54.667 C 664.008 56.326, 665.405 57, 670.500 57 L 676 57 676 98.800 C 676 129.978, 675.695 140.905, 674.800 141.800 C 674.140 142.460, 671.628 143, 669.217 143 C 666.155 143, 664.959 143.377, 665.248 144.250 C 665.543 145.137, 669.193 145.581, 677.832 145.781 C 688.212 146.020, 690 145.837, 690 144.531 C 690 143.390, 688.886 143, 685.622 143 C 683.141 143, 680.754 142.408, 680.111 141.633 C 679.298 140.654, 679.050 129.274, 679.238 101.463 L 679.500 62.660 706.500 104.290 C 721.350 127.187, 734.063 145.939, 734.750 145.960 C 735.731 145.991, 736 136.694, 736 102.700 C 736 70.356, 736.304 59.096, 737.200 58.200 C 737.860 57.540, 740.335 57, 742.700 57 C 745.894 57, 747 56.606, 747 55.469 C 747 54.163, 745.212 53.980, 734.832 54.219 C 726.193 54.419, 722.543 54.863, 722.248 55.750 C 721.959 56.620, 723.150 57.005, 726.167 57.015 C 733.720 57.042, 733.465 56.216, 733.797 81.712 C 733.961 94.245, 733.961 108.299, 733.797 112.942 L 733.500 121.384 711.612 87.692 L 689.723 54 678.028 54 C 671.596 54, 666.033 54.300, 665.667 54.667 M 764.460 55.245 C 764.195 55.935, 764.096 76.525, 764.239 101 L 764.500 145.500 855.750 145.755 L 947 146.011 947 136.505 L 947 127 901 127 L 855 127 855 118 L 855 109 901 109 L 947 109 947 100.010 L 947 91.020 901.250 90.760 L 855.500 90.500 855.211 81.750 L 854.922 73 900.999 73 L 947.075 73 946.788 63.750 L 946.500 54.500 855.721 54.245 C 783.627 54.042, 764.842 54.248, 764.460 55.245 M 606.946 57.823 C 597.749 63.662, 593.704 76.545, 593.704 100 C 593.704 116.619, 595.398 126.280, 599.702 134.203 C 607.399 148.374, 624.481 148.825, 632.714 135.076 C 637.527 127.039, 639.416 117.151, 639.416 100 C 639.416 82.849, 637.527 72.961, 632.714 64.924 C 626.742 54.950, 616.092 52.016, 606.946 57.823 M 777.821 72.411 C 778.105 79.866, 777.934 80.880, 776.321 81.297 C 775.319 81.556, 777.987 81.820, 782.250 81.884 L 790 82 789.985 78.750 L 789.971 75.500 788.712 78 C 787.823 79.768, 786.487 80.593, 784.152 80.819 L 780.849 81.138 781.175 72.567 C 781.479 64.554, 781.370 63.995, 779.500 63.995 C 777.633 63.995, 777.521 64.555, 777.821 72.411 M 803.821 72.411 C 804.105 79.866, 803.934 80.880, 802.321 81.297 C 801.319 81.556, 803.987 81.820, 808.250 81.884 C 814.328 81.975, 816 81.694, 816 80.582 C 816 79.802, 816.262 78.339, 816.582 77.332 C 816.947 76.180, 816.359 76.521, 814.998 78.250 C 813.521 80.127, 811.907 81, 809.917 81 C 807.181 81, 807 80.752, 807 77 C 807 72.670, 809.030 71.505, 810.920 74.750 C 811.734 76.148, 811.939 75.695, 811.939 72.500 C 811.939 69.305, 811.734 68.852, 810.920 70.250 C 810.359 71.213, 809.201 72, 808.345 72 C 807.134 72, 806.874 71.116, 807.171 68 C 807.503 64.524, 807.287 64, 805.526 63.998 C 803.626 63.995, 803.520 64.519, 803.821 72.411 M 811.621 64.689 C 812.787 64.918, 814.219 66.094, 814.803 67.303 C 815.831 69.429, 815.867 69.412, 815.932 66.750 C 815.993 64.274, 815.677 64.014, 812.750 64.136 C 810.636 64.225, 810.241 64.418, 811.621 64.689 M 832.583 68.800 L 835.281 73.600 832.890 77.268 C 831.576 79.285, 829.825 81.123, 829 81.352 C 828.175 81.581, 829.075 81.785, 831 81.805 C 832.925 81.825, 833.935 81.614, 833.244 81.336 C 832.287 80.950, 832.398 80.135, 833.710 77.915 C 834.656 76.312, 835.687 75, 836 75 C 836.313 75, 837.344 76.312, 838.290 77.915 C 839.602 80.135, 839.713 80.950, 838.756 81.336 C 838.065 81.614, 839.499 81.878, 841.941 81.921 C 845.664 81.987, 846.126 81.798, 844.800 80.750 C 843.929 80.063, 842.074 77.646, 840.678 75.380 L 838.139 71.260 840.606 67.630 C 841.962 65.633, 842.718 64.003, 842.286 64.006 C 841.854 64.010, 840.672 65.467, 839.660 67.244 C 837.896 70.342, 837.762 70.396, 836.410 68.546 C 835.635 67.486, 835 66.029, 835 65.309 C 835 64.572, 833.883 64, 832.442 64 L 829.885 64 832.583 68.800 M 778.750 91.662 C 779.601 92.006, 780 94.669, 780 100 C 780 105.331, 779.601 107.994, 778.750 108.338 C 778.063 108.615, 779.525 108.842, 782 108.842 C 784.475 108.842, 785.938 108.615, 785.250 108.338 C 784.399 107.994, 784 105.331, 784 100 C 784 94.669, 784.399 92.006, 785.250 91.662 C 785.938 91.385, 784.475 91.158, 782 91.158 C 779.525 91.158, 778.063 91.385, 778.750 91.662 M 800.750 91.662 C 801.601 92.006, 802 94.669, 802 100 C 802 105.331, 801.601 107.994, 800.750 108.338 C 800.063 108.615, 801.075 108.825, 803 108.805 C 804.925 108.785, 805.712 108.562, 804.750 108.311 C 803.281 107.927, 803 106.659, 803 100.427 C 803 96.342, 803.168 93, 803.374 93 C 803.580 93, 806.167 96.688, 809.124 101.197 L 814.500 109.393 814.788 100.763 C 815.027 93.608, 815.369 92.055, 816.788 91.682 C 817.730 91.435, 816.925 91.187, 815 91.131 C 812.778 91.067, 811.980 91.335, 812.815 91.864 C 813.664 92.403, 814.018 94.254, 813.815 97.093 L 813.500 101.488 810.146 96.244 C 807.077 91.446, 806.481 91.007, 803.146 91.079 C 801.141 91.122, 800.063 91.385, 800.750 91.662 M 831.306 93.250 C 828.572 96.260, 827.786 100.087, 829.116 103.903 C 830.043 106.563, 832.549 109, 834.358 109 C 834.627 109, 834.152 107.608, 833.304 105.907 C 831.326 101.942, 832.062 94.159, 834.590 92.311 C 836.026 91.260, 836.081 91, 834.865 91 C 834.031 91, 832.429 92.013, 831.306 93.250 M 839.199 92.353 C 839.915 92.984, 841.063 94.153, 841.750 94.950 C 842.804 96.173, 843 96.017, 842.999 93.950 C 842.999 92.029, 842.448 91.468, 840.449 91.353 C 838.447 91.237, 838.178 91.452, 839.199 92.353 M 840 104.800 C 840 105.790, 839.460 107.140, 838.800 107.800 C 837.867 108.733, 837.943 109, 839.145 109 C 840.907 109, 844 105.924, 844 104.171 C 844 103.527, 843.100 103, 842 103 C 840.741 103, 840 103.667, 840 104.800 M 774.030 121.208 C 774.058 124.176, 774.172 124.303, 775.195 122.500 C 776.379 120.411, 777.973 119.041, 779.250 119.015 C 779.663 119.007, 780 122.825, 780 127.500 C 780 135.333, 780.157 136, 782 136 C 783.843 136, 784 135.333, 784 127.500 C 784 122.825, 784.337 119.007, 784.750 119.015 C 786.011 119.041, 787.611 120.399, 788.856 122.500 C 789.934 124.320, 790.017 124.230, 789.771 121.500 L 789.500 118.500 781.750 118.208 L 774 117.916 774.030 121.208 M 803.455 120.455 C 801.645 122.265, 801 123.989, 801 127.020 C 801 132.282, 802.183 134.419, 805.962 135.984 C 814.491 139.517, 821.126 127.398, 814.364 120.636 C 810.973 117.245, 806.734 117.175, 803.455 120.455 M 830.026 119.622 C 831.415 120.485, 834.732 124.523, 837.397 128.596 C 840.062 132.668, 842.638 136, 843.121 136 C 843.605 136, 844 132.213, 844 127.583 C 844 121.786, 844.389 119.010, 845.250 118.662 C 845.938 118.385, 844.951 118.122, 843.059 118.079 C 840.017 118.009, 839.822 118.149, 841.377 119.286 C 842.701 120.255, 843.057 121.675, 842.818 125.036 L 842.500 129.500 838.608 123.750 C 835.065 118.514, 834.394 118.002, 831.108 118.027 L 827.500 118.053 830.026 119.622 M 805.515 119.976 C 804.142 122.198, 803.958 130.593, 805.229 132.991 C 806.751 135.861, 809.450 136.702, 811.548 134.960 C 813.362 133.455, 813.558 121.958, 811.800 120.200 C 810.356 118.756, 806.357 118.614, 805.515 119.976" stroke="none" fill="black" fill-rule="evenodd"/>
</svg>