<svg xmlns="http://www.w3.org/2000/svg" width="260" height="121" viewBox="0 0 260 121" version="1.1">
	<path d="M 0 61.011 L 0 121.007 130.250 120.754 L 260.500 120.500 260.758 60.500 L 261.015 0.500 130.508 0.757 L 0 1.015 0 61.011 M 0.470 61 C 0.470 94.275, 0.596 107.888, 0.749 91.250 C 0.903 74.613, 0.903 47.388, 0.749 30.750 C 0.596 14.113, 0.470 27.725, 0.470 61 M 2 61 L 2 119 130 119 L 258 119 258 61 L 258 3 130 3 L 2 3 2 61 M 11.750 11.080 C 10.787 11.641, 10 13.185, 10 14.511 C 10 16.462, 10.734 17.121, 13.837 17.956 C 16.476 18.667, 18.082 19.850, 18.981 21.745 C 19.699 23.260, 26.921 44.075, 35.029 68 C 50.009 112.204, 51.518 115.536, 53.976 109.821 C 54.526 108.545, 58.580 95.504, 62.987 80.842 L 71 54.183 70.921 41.842 C 70.836 28.571, 70.667 28.613, 66.931 42.821 C 65.727 47.398, 64.417 50.773, 64.019 50.321 C 63.622 49.870, 60.246 40.613, 56.519 29.750 L 49.741 10 31.621 10.030 C 21.182 10.048, 12.758 10.493, 11.750 11.080 M 77 55.487 L 77 100.975 73 103.500 C 68.471 106.359, 68.003 108.188, 71.223 110.443 C 73.055 111.727, 76.967 112, 93.500 112 C 110.033 112, 113.945 111.727, 115.777 110.443 C 118.997 108.188, 118.529 106.359, 114 103.500 L 110 100.975 110 61 L 110 21.025 114 18.500 C 118.529 15.641, 118.997 13.812, 115.777 11.557 C 113.963 10.286, 110.202 10, 95.277 10 L 77 10 77 55.487 M 126.419 11.132 C 126.034 11.754, 126.421 12.656, 127.278 13.136 C 128.136 13.616, 130.730 19.744, 133.043 26.754 C 135.357 33.764, 137.589 39.873, 138.003 40.329 C 138.990 41.413, 143.157 27.788, 143.609 22 C 143.859 18.802, 143.737 18.220, 143.188 19.990 C 142.288 22.889, 141.867 22.341, 139.553 15.250 L 137.839 10 132.479 10 C 129.530 10, 126.803 10.509, 126.419 11.132 M 146 23.917 C 146 33.701, 145.651 37.950, 144.823 38.226 C 144.176 38.441, 143.977 39.154, 144.382 39.809 C 144.816 40.512, 147.529 41, 151 41 C 156.571 41, 159.251 39.891, 157.016 38.510 C 156.416 38.139, 156 32.808, 156 25.500 C 156 18.192, 156.416 12.861, 157.016 12.490 C 159.194 11.144, 156.633 10, 151.441 10 L 146 10 146 23.917 M 170.036 12.750 C 170.055 14.262, 170.723 18.200, 171.520 21.500 C 173.418 29.362, 173.383 29.805, 170.828 30.180 C 167.347 30.693, 167.364 33, 170.849 33 C 174.179 33, 176.022 36.064, 174.091 38.390 C 172.431 40.391, 173.836 41, 180.108 41 C 185.503 41, 188.524 39.597, 186.270 38.138 C 185.728 37.787, 184.062 32.100, 182.568 25.500 C 181.073 18.900, 179.629 12.713, 179.358 11.750 C 178.984 10.421, 177.800 10, 174.433 10 C 170.255 10, 170.002 10.158, 170.036 12.750 M 190 11.500 C 190 12.325, 190.450 13, 191 13 C 191.613 13, 192 17.833, 192 25.500 C 192 33.167, 191.613 38, 191 38 C 190.450 38, 190 38.675, 190 39.500 C 190 40.678, 191.382 41, 196.441 41 C 202.495 41, 205.316 39.932, 203.016 38.510 C 202.407 38.133, 202 32.305, 202 23.941 L 202 10 196 10 C 191.333 10, 190 10.333, 190 11.500 M 204 11.310 C 204 12.175, 204.450 13.160, 205 13.500 C 206.408 14.370, 206.249 23.351, 204.800 24.800 C 203.867 25.733, 203.867 26.267, 204.800 27.200 C 205.460 27.860, 206 30.490, 206 33.045 C 206 36.275, 206.557 38.194, 207.829 39.345 C 210.256 41.542, 215.283 41.450, 217.345 39.171 C 219.418 36.881, 219.511 34.590, 217.500 35.362 C 216.374 35.794, 216 35.197, 216 32.969 C 216 29.964, 213.046 26.025, 210.750 25.970 C 210.063 25.953, 210.400 25.447, 211.500 24.845 C 216.457 22.134, 217.346 17.661, 213.750 13.522 C 211.020 10.380, 204 8.787, 204 11.310 M 222 11.500 C 222 12.325, 222.450 13, 223 13 C 224.502 13, 224.328 37.724, 222.823 38.226 C 222.176 38.441, 221.977 39.154, 222.382 39.809 C 222.816 40.512, 225.529 41, 229 41 C 232.471 41, 235.184 40.512, 235.618 39.809 C 236.023 39.154, 235.824 38.441, 235.177 38.226 C 233.668 37.723, 233.517 13.417, 235.016 12.490 C 237.316 11.068, 234.495 10, 228.441 10 C 223.382 10, 222 10.322, 222 11.500 M 239.711 10.623 C 239.317 11.016, 239.738 12.158, 240.645 13.160 C 242.193 14.870, 242.065 15.328, 238.583 20.573 L 234.871 26.163 236.851 32.026 C 238.174 35.943, 238.469 38.010, 237.739 38.254 C 237.138 38.454, 236.977 39.154, 237.382 39.809 C 238.271 41.248, 249.611 41.438, 250.483 40.028 C 250.813 39.494, 250.445 38.031, 249.665 36.778 C 248.885 35.525, 247.011 31.197, 245.502 27.161 C 242.461 19.030, 242.872 16.477, 247.633 13.929 C 248.960 13.219, 249.888 12.157, 249.695 11.569 C 249.293 10.346, 240.793 9.541, 239.711 10.623 M 167.045 21 C 163.841 33.056, 162.659 36.312, 160.953 37.772 C 158.492 39.880, 159.375 41, 163.500 41 C 166.824 41, 169.483 38.994, 167.177 38.226 C 165.504 37.668, 165.726 34.451, 167.943 27.162 C 169.189 23.063, 169.582 20.059, 169.055 18.662 C 168.347 16.782, 168.084 17.087, 167.045 21 M 129.081 29.128 C 129.023 34.585, 128.576 37.107, 127.511 37.991 C 125.371 39.767, 126.595 41, 130.500 41 C 134.405 41, 135.629 39.767, 133.489 37.991 C 132.578 37.235, 131.982 34.959, 131.955 32.128 C 131.930 29.582, 131.292 26.150, 130.536 24.500 C 129.224 21.635, 129.159 21.842, 129.081 29.128 M 176.667 43.667 C 175.664 44.669, 175.866 48.799, 176.950 49.469 C 177.488 49.801, 176.961 51.646, 175.735 53.724 C 171.210 61.394, 173.811 72.606, 180.951 76.206 C 184.440 77.965, 187.039 77.639, 185.087 75.687 C 183.749 74.349, 183.595 50.369, 184.919 49.550 C 185.440 49.228, 185.192 47.688, 184.346 45.991 C 183.229 43.753, 182.159 43, 180.093 43 C 178.575 43, 177.033 43.300, 176.667 43.667 M 188.683 45.934 C 187.822 47.660, 187.561 49.229, 188.081 49.550 C 189.405 50.369, 189.251 74.349, 187.913 75.687 C 185.961 77.639, 188.560 77.965, 192.049 76.206 C 193.910 75.268, 196.299 72.998, 197.359 71.163 C 199.969 66.643, 199.943 58.263, 197.305 53.792 C 195.784 51.214, 195.575 50.035, 196.407 48.717 C 197.888 46.368, 196.050 43.590, 192.751 43.193 C 190.759 42.954, 189.871 43.552, 188.683 45.934 M 21 69.313 C 21 96.596, 20.404 99.457, 13.861 103.587 C 9.466 106.362, 9.026 108.204, 12.223 110.443 C 15.392 112.663, 34.608 112.663, 37.777 110.443 C 40.933 108.233, 40.538 106.250, 36.463 103.846 C 30.546 100.355, 29.659 97.478, 28.950 79.500 C 28.366 64.679, 28.080 62.874, 25.080 55.004 C 23.299 50.331, 21.652 46.319, 21.421 46.087 C 21.189 45.856, 21 56.308, 21 69.313 M 131.110 48.396 C 129.796 49.124, 128.124 50.796, 127.396 52.110 C 124.173 57.924, 126.961 63.484, 135.045 67.363 C 139.767 69.628, 141.621 73.441, 138.570 74.611 C 137.707 74.943, 137 75.841, 137 76.607 C 137 78.342, 137.255 78.338, 141.568 76.536 C 143.963 75.535, 145.541 73.950, 146.553 71.528 C 149.128 65.365, 147.132 61.885, 138.226 57.012 C 133.011 54.158, 132.254 52.888, 134.455 50.688 C 137.759 47.384, 135.601 45.906, 131.110 48.396 M 138 48.106 C 138 48.714, 139.098 50.076, 140.441 51.132 C 141.783 52.188, 143.164 53.940, 143.508 55.026 C 144.675 58.701, 146 57.027, 146 51.878 C 146 47.914, 145.717 46.981, 144.750 47.754 C 144.038 48.323, 142.639 48.406, 141.500 47.947 C 138.681 46.810, 138 46.841, 138 48.106 M 151 48.941 C 151 49.459, 151.450 50.160, 152 50.500 C 152.572 50.853, 153 55.991, 153 62.500 C 153 69.009, 152.572 74.147, 152 74.500 C 149.590 75.989, 151.409 77, 156.500 77 L 162 77 162 64.059 C 162 56.510, 162.417 50.861, 163 50.500 C 165.526 48.939, 163.461 48, 157.500 48 C 153.925 48, 151 48.423, 151 48.941 M 209 49 C 209 49.550, 209.450 50, 210 50 C 211.498 50, 211.310 73.290, 209.800 74.800 C 207.581 77.019, 210.314 78.382, 214.328 77.057 C 219.929 75.208, 220.476 73.886, 220.720 61.608 C 220.849 55.087, 221.364 50.379, 221.970 50.177 C 222.536 49.988, 223 49.421, 223 48.917 C 223 48.413, 219.850 48, 216 48 C 212 48, 209 48.429, 209 49 M 225 49 C 225 49.550, 225.450 50, 226 50 C 226.611 50, 227 54.647, 227 61.941 C 227 68.823, 226.576 74.144, 226 74.500 C 223.529 76.027, 225.475 77, 231 77 L 237 77 237 62.500 L 237 48 231 48 C 227.667 48, 225 48.444, 225 49 M 239.345 49.829 C 241.738 52.472, 241.752 71.511, 239.364 74.150 C 237.904 75.763, 237.894 76.022, 239.274 76.552 C 241.605 77.446, 246.840 74.311, 249.040 70.701 C 254.128 62.358, 248.543 48, 240.210 48 C 237.832 48, 237.783 48.103, 239.345 49.829 M 126.667 66.667 C 126.300 67.033, 126 69.503, 126 72.155 C 126 76.538, 126.205 76.963, 128.250 76.816 C 129.488 76.726, 131.512 76.987, 132.750 77.394 C 135.684 78.360, 135.815 75.990, 132.926 74.186 C 131.786 73.474, 130.205 71.340, 129.413 69.445 C 127.886 65.791, 127.715 65.618, 126.667 66.667 M 201.571 67.571 C 199.477 69.666, 199.590 71.209, 202.073 74.365 C 204.303 77.200, 208.639 78.107, 207.651 75.532 C 207.341 74.725, 207.518 73.798, 208.044 73.473 C 209.390 72.641, 209.234 68.634, 207.800 67.200 C 206.139 65.539, 203.443 65.700, 201.571 67.571 M 170 68.577 C 170 69.444, 168.650 71.504, 167 73.154 C 165.350 74.804, 164 76.344, 164 76.577 C 164 76.810, 165.800 77, 168 77 L 172 77 172 72 C 172 69.250, 171.550 67, 171 67 C 170.450 67, 170 67.710, 170 68.577 M 126.500 82 C 126.090 82.663, 146.990 83, 188.441 83 C 229.480 83, 251 82.656, 251 82 C 251 80.621, 127.352 80.621, 126.500 82 M 128.392 91.517 C 124.728 95.181, 125.382 99.720, 130 102.677 C 137.634 107.563, 137.480 107.377, 135.515 109.342 C 133.227 111.630, 134.317 112.632, 137.511 111.177 C 143.316 108.532, 143.167 100.847, 137.251 97.882 C 131.980 95.240, 130.913 94.032, 132.021 91.961 C 134.085 88.105, 132.053 87.856, 128.392 91.517 M 135 89.921 C 135 90.270, 135.900 91.326, 137 92.268 C 138.100 93.210, 139 94.660, 139 95.490 C 139 96.321, 139.450 97, 140 97 C 140.550 97, 140.999 95.313, 140.998 93.250 C 140.996 89.775, 140.776 89.492, 137.998 89.394 C 136.349 89.335, 135 89.572, 135 89.921 M 156.985 91.540 C 155.398 95.713, 155.476 97.959, 157.460 105.250 C 159.648 113.291, 162.135 114.449, 163.729 108.171 C 164.500 105.133, 164.266 102.822, 162.600 96.996 C 160.316 89.008, 158.587 87.327, 156.985 91.540 M 183.719 89.784 L 180.937 90.139 184.074 93.069 C 185.800 94.681, 187.389 96, 187.606 96 C 188.341 96, 188.005 90.120, 187.250 89.773 C 186.838 89.584, 185.248 89.588, 183.719 89.784 M 193.500 89.955 C 190.960 90.301, 189.956 90.795, 190.750 91.309 C 192.279 92.299, 192.503 108.571, 191 109.500 C 188.734 110.900, 190.274 112, 194.500 112 L 199 112 199 101.059 C 199 95.041, 198.662 89.959, 198.250 89.764 C 197.838 89.570, 195.700 89.656, 193.500 89.955 M 224.877 89.868 L 222.254 90.500 225.127 93.313 L 228 96.126 228 92.563 C 228 90.603, 227.887 89.053, 227.750 89.118 C 227.613 89.183, 226.320 89.521, 224.877 89.868 M 144.509 91.750 C 144.906 92.713, 146.271 97.202, 147.542 101.727 C 148.814 106.252, 150.138 110.415, 150.486 110.977 C 151.699 112.940, 153.966 111.979, 154.564 109.250 C 154.896 107.737, 155.323 105.982, 155.514 105.349 C 155.705 104.715, 155.190 101.625, 154.369 98.481 C 153.548 95.337, 153.115 92.143, 153.407 91.382 C 153.815 90.318, 152.771 90, 148.862 90 C 144.419 90, 143.876 90.218, 144.509 91.750 M 164.857 91.328 C 165.617 92.244, 165.658 93.705, 164.989 96.038 C 164.444 97.940, 164.398 99.798, 164.884 100.284 C 165.371 100.771, 166.060 99.477, 166.459 97.325 C 166.850 95.221, 167.876 92.713, 168.740 91.750 C 170.202 90.120, 170.085 90, 167.033 90 C 164.422 90, 163.979 90.270, 164.857 91.328 M 171.800 91.200 C 173.272 92.672, 173.447 108.606, 172 109.500 C 169.734 110.900, 171.274 112, 175.500 112 L 180 112 180 101 L 180 90 175.300 90 C 171.644 90, 170.867 90.267, 171.800 91.200 M 200.800 91.200 C 202.272 92.672, 202.447 108.606, 201 109.500 C 200.450 109.840, 200 110.572, 200 111.126 C 200 112.592, 204.110 111.127, 206.735 108.725 C 212.709 103.258, 209.058 90, 201.577 90 C 200.039 90, 199.867 90.267, 200.800 91.200 M 212.500 101.048 L 212.500 112.092 216.500 111.796 L 220.500 111.500 220.784 100.750 L 221.068 90 216.784 90.001 L 212.500 90.003 212.500 101.048 M 233.290 93.250 C 234.605 95.037, 237.666 99.995, 240.091 104.267 C 243.523 110.313, 244.943 111.974, 246.500 111.767 C 250.231 111.269, 249.602 105.990, 244.808 97.580 L 240.500 90.021 235.699 90.011 L 230.898 90 233.290 93.250 M 245 91 C 245 91.550, 245.450 92, 246 92 C 246.550 92, 247 93.773, 247 95.941 C 247 98.109, 247.450 100.160, 248 100.500 C 248.608 100.876, 249 99.410, 249 96.759 C 249 94.362, 249.540 91.860, 250.200 91.200 C 251.133 90.267, 250.689 90, 248.200 90 C 246.440 90, 245 90.450, 245 91 M 181.919 98.664 C 180.811 100.744, 180.774 101.419, 181.750 101.747 C 182.438 101.978, 183 102.804, 183 103.583 C 183 104.362, 183.450 105, 184 105 C 184.550 105, 185 102.975, 185 100.500 C 185 95.389, 183.985 94.785, 181.919 98.664 M 223.074 98.362 C 222.047 100.281, 222.060 101.123, 223.146 102.862 C 225.182 106.123, 226 105.447, 226 100.500 C 226 95.515, 224.992 94.778, 223.074 98.362 M 233 102.241 C 233 105.894, 232.550 109.160, 232 109.500 C 230.004 110.734, 231.071 112, 234.107 112 C 236.701 112, 237.083 111.711, 236.423 110.250 C 235.988 109.287, 235.450 106.025, 235.228 103 C 234.632 94.881, 233 94.325, 233 102.241 M 126 107.802 C 126 111.462, 126.130 111.607, 129.506 111.703 L 133.011 111.802 130.506 108.824 C 129.128 107.187, 128 105.431, 128 104.923 C 128 104.415, 127.550 104, 127 104 C 126.450 104, 126 105.711, 126 107.802 M 183.750 108.182 C 182.238 109.801, 181 111.322, 181 111.563 C 181 111.803, 182.575 112, 184.500 112 C 187.833 112, 188 111.833, 188 108.500 C 188 104.335, 187.385 104.289, 183.750 108.182 M 224.750 108.182 C 223.238 109.801, 222 111.351, 222 111.626 C 222 111.901, 223.463 111.986, 225.250 111.813 C 228.108 111.538, 228.538 111.108, 228.813 108.250 C 229.192 104.326, 228.365 104.312, 224.750 108.182" stroke="none" fill="black" fill-rule="evenodd"/>
</svg>