<svg xmlns="http://www.w3.org/2000/svg" width="750" height="360" viewBox="0 0 750 360" version="1.1">
	<path d="M 330.640 2.750 C 328.247 7.411, 326.724 17.083, 327.385 23.410 C 328.315 32.303, 332.214 37.223, 333.600 31.250 C 335.456 23.251, 340.355 21.749, 346.650 27.250 C 353.913 33.597, 374.898 68.226, 401.947 118.500 C 411.416 136.100, 420.411 152.075, 421.936 154 C 425.576 158.596, 429.409 160.022, 431.766 157.656 C 433.296 156.119, 433.478 153.834, 433.309 138.207 C 433.064 115.493, 429.011 59.678, 427.498 58.164 C 427.149 57.815, 425.997 58.648, 424.938 60.015 C 421.327 64.675, 420.924 68.658, 422.506 84.063 C 424.891 107.298, 425.484 128.143, 423.822 130.314 C 422.488 132.057, 422.330 132.047, 419.804 130.060 C 416.279 127.288, 411.136 118.962, 399.999 98 C 379.150 58.757, 366.502 37.703, 351.867 17.880 C 343.244 6.199, 337.056 -0, 334.023 -0 C 332.881 -0, 331.457 1.157, 330.640 2.750 M 414.571 1.571 C 412.487 3.656, 412.566 4.665, 415.500 13.405 C 417.145 18.306, 418 23.072, 418 27.345 C 418 34.705, 418.614 37, 420.581 37 C 423.733 37, 425.500 30.894, 425.500 20 C 425.500 8.047, 424.178 3.660, 419.909 1.453 C 416.437 -0.343, 416.487 -0.344, 414.571 1.571 M 294.745 2.750 C 291.004 6.932, 288.831 19.295, 283.016 69.500 C 275.062 138.167, 273.907 149.279, 274.201 154.290 C 274.467 158.799, 274.790 159.442, 277.099 160.056 C 279.699 160.746, 286.382 159.018, 288.221 157.179 C 289.506 155.894, 289.731 153.437, 290.996 127 C 292.376 98.138, 294.229 66.145, 295.570 48 C 296.278 38.422, 297.843 30.250, 299.640 26.750 C 300.729 24.628, 301.773 24, 304.210 24 C 309.742 24, 319.310 35.666, 332.422 58.400 C 344.910 80.051, 350.824 93.558, 361.116 123.934 C 367.085 141.552, 368.878 145, 372.066 145 C 374.018 145, 379 139.608, 379 137.496 C 379 136.753, 381.448 129.700, 384.439 121.822 C 391.458 103.339, 391.553 102.905, 389.223 100.028 C 388.179 98.737, 386.833 97.985, 386.233 98.356 C 385.632 98.727, 382.532 103.524, 379.343 109.015 C 376.154 114.507, 372.953 119, 372.230 119 C 371.508 119, 369.297 115.512, 367.318 111.250 C 347.290 68.111, 338.374 51.943, 320.862 27 C 309.557 10.899, 306.426 7.039, 301.598 3.250 C 298.147 0.542, 296.807 0.444, 294.745 2.750 M 450.678 2.160 C 446.693 4.391, 423.407 37.814, 407.091 64.722 C 400.214 76.064, 397.943 80.652, 398.181 82.722 C 398.683 87.089, 401.052 86.051, 405.535 79.500 C 427.519 47.379, 438.509 31.904, 441.579 28.750 C 445.722 24.493, 450.225 23.684, 451.940 26.889 C 453.278 29.388, 454.687 46.207, 455.970 75 C 456.545 87.925, 457.226 102.325, 457.481 107 C 457.737 111.675, 458.236 124.500, 458.590 135.500 C 458.944 146.500, 459.670 156.330, 460.203 157.344 C 461.564 159.936, 469.612 163.314, 472.624 162.558 C 473.970 162.220, 475.477 160.874, 475.975 159.567 C 476.575 157.988, 475.718 145.148, 473.423 121.345 C 468.596 71.264, 464.184 28.722, 462.991 20.746 C 460.887 6.681, 455.941 -0.785, 450.678 2.160 M 325.647 59.762 C 325.100 60.647, 321.985 101.726, 319.882 135.795 C 318.569 157.064, 318.624 157.333, 324.311 157.333 C 331.116 157.333, 330.610 160.561, 331.384 112.167 C 331.968 75.671, 331.851 67.580, 330.699 64.824 C 329.156 61.132, 326.466 58.437, 325.647 59.762 M 511.024 228.548 C 495.104 232.986, 487 243.644, 487 260.144 C 487 278.861, 500.097 292.262, 518.500 292.376 C 530.294 292.448, 539.749 287.623, 545.844 278.422 C 549.780 272.480, 551.285 267.283, 551.336 259.456 C 551.409 248.159, 547.430 239.599, 539.179 233.306 C 532.113 227.917, 520.394 225.936, 511.024 228.548 M 565.324 237 C 564.393 246.353, 564.710 247.942, 567.515 247.985 C 568.074 247.993, 569.340 245.721, 570.329 242.936 C 573.001 235.414, 574.847 234, 582 234 L 588 234 588 258 C 588 280.667, 587.889 282.111, 586 284 C 584.762 285.238, 582.667 286, 580.500 286 C 577.467 286, 577 286.322, 577 288.412 L 577 290.824 594.060 290.838 C 610.979 290.851, 611.117 290.834, 610.810 288.689 C 610.572 287.030, 609.589 286.380, 606.582 285.894 C 600.099 284.846, 600 284.424, 600 257.809 L 600 234 606.309 234 C 609.932 234, 613.380 234.558, 614.409 235.310 C 615.395 236.030, 616.752 239.068, 617.426 242.060 C 618.386 246.321, 619.065 247.500, 620.562 247.500 C 622.540 247.500, 622.863 246.211, 624.317 232.500 L 624.847 227.500 595.558 227.500 L 566.270 227.500 565.324 237 M 642.417 227.917 C 642.188 228.146, 641.973 230.396, 641.940 232.917 C 641.908 235.438, 641.532 239.618, 641.106 242.206 C 640.501 245.874, 640.643 247.033, 641.747 247.456 C 644.233 248.411, 644.571 248.093, 646.356 243.132 C 649.099 235.501, 651.020 234, 658.039 234 L 664 234 664 258.345 C 664 285.531, 664.004 285.515, 657 286.172 C 654.255 286.429, 653.431 286.985, 653.180 288.750 L 652.861 291 669.930 291 L 687 291 687 288.632 C 687 286.613, 686.391 286.182, 682.879 285.711 C 680.612 285.407, 678.250 284.651, 677.629 284.031 C 676.870 283.273, 676.397 274.889, 676.186 258.452 L 675.871 234 682.436 234 C 690.130 234, 692.517 235.656, 693.522 241.694 C 694.484 247.471, 694.850 248.176, 696.703 247.819 C 698.578 247.458, 699.398 244.381, 700.386 234 L 701.005 227.500 671.920 227.500 C 655.923 227.500, 642.647 227.688, 642.417 227.917 M 3 230.486 C 3 231.410, 4.688 232.396, 7.470 233.097 C 9.928 233.716, 12.430 234.813, 13.029 235.535 C 13.812 236.479, 13.818 240.309, 13.050 249.174 C 10.954 273.369, 9.728 282.981, 8.622 283.893 C 8.005 284.403, 5.925 285.224, 4 285.719 C 1.700 286.310, 0.402 287.283, 0.213 288.559 C -0.060 290.403, 0.587 290.493, 13.213 290.356 C 25.330 290.226, 26.500 290.053, 26.500 288.397 C 26.500 287.153, 25.480 286.373, 23.256 285.919 C 16.941 284.627, 16.865 284.376, 17.566 267.100 C 17.914 258.520, 18.349 250.150, 18.532 248.500 C 18.715 246.850, 18.911 244.825, 18.968 244 C 19.077 242.402, 31.357 271.612, 35.678 283.750 C 39.507 294.505, 40.469 293.921, 48.037 276.250 C 51.511 268.137, 56.411 257.225, 58.927 252 L 63.500 242.500 63.772 262.443 C 64.072 284.446, 64.023 284.638, 57.861 285.891 C 55.421 286.387, 54.412 287.180, 54.180 288.787 C 53.862 290.993, 53.914 291, 70 291 C 86.106 291, 86.138 290.995, 85.820 288.778 C 85.570 287.042, 84.560 286.371, 81.199 285.709 C 77.945 285.068, 76.667 284.254, 75.949 282.366 C 75.427 280.993, 75 269.804, 75 257.502 C 75 232.759, 74.376 234.979, 81.750 233.495 C 84.061 233.030, 85 232.286, 85 230.921 C 85 229.145, 84.184 229, 74.184 229 L 63.368 229 61.026 234.750 C 59.738 237.912, 55.354 247.475, 51.284 256 C 45.721 267.652, 43.663 271.110, 42.992 269.927 C 41.115 266.620, 27.058 234.080, 26.437 231.603 L 25.783 229 14.392 229 C 4.981 229, 3 229.258, 3 230.486 M 105 231.389 C 105 232.703, 105.563 233.757, 106.250 233.731 C 114.981 233.407, 115 233.466, 115 260.449 C 115 277.898, 114.686 284.004, 113.750 284.747 C 113.063 285.293, 110.813 286.043, 108.750 286.415 C 105.926 286.924, 105 287.573, 105 289.045 C 105 290.903, 105.790 291, 121 291 C 136.210 291, 137 290.903, 137 289.045 C 137 287.573, 136.075 286.925, 133.250 286.419 C 125.928 285.107, 126 285.365, 126 260.279 C 126 246.794, 126.411 237.101, 127.032 235.941 C 127.663 234.760, 129.601 233.768, 132.032 233.379 C 135.017 232.902, 136 232.281, 136 230.872 C 136 229.123, 134.981 229, 120.500 229 L 105 229 105 231.389 M 158.624 230.538 C 158.015 232.125, 158.422 232.372, 163.494 233.497 C 169.067 234.732, 169 234.417, 169 259.551 C 169 285.849, 169.122 285.409, 161.488 286.554 C 157.995 287.078, 157 287.645, 157 289.114 C 157 290.912, 158.168 291, 181.977 291 C 210.959 291, 208.225 292.115, 212.151 278.693 C 214.124 271.947, 214.235 270.760, 212.967 269.958 C 210.732 268.545, 210.693 268.579, 207.080 275.150 C 201.833 284.695, 201.353 285, 191.571 285 C 185.242 285, 182.751 284.609, 181.571 283.429 C 180.235 282.092, 180 278.451, 180 259.051 C 180 234.370, 179.908 234.785, 185.666 233.554 C 188.688 232.909, 190.539 230.873, 189.264 229.598 C 188.936 229.269, 182.040 229, 173.940 229 C 161.612 229, 159.118 229.250, 158.624 230.538 M 228 230.886 C 228 232.354, 228.994 232.922, 232.477 233.444 C 234.939 233.813, 237.180 234.482, 237.457 234.931 C 238.558 236.712, 238.157 283.243, 237.031 284.373 C 236.413 284.993, 233.791 285.953, 231.204 286.507 C 228.149 287.161, 226.500 288.037, 226.500 289.007 C 226.500 290.291, 229.991 290.500, 251.444 290.500 L 276.388 290.500 278.120 287.500 C 279.073 285.850, 280.661 281.439, 281.650 277.697 C 283.190 271.865, 283.243 270.768, 282.021 270.013 C 280.059 268.800, 279.579 269.244, 275.890 275.693 C 270.744 284.687, 270.230 285.002, 260.750 284.985 C 256.212 284.976, 251.825 284.543, 251 284.022 C 249.736 283.224, 249.500 279.357, 249.500 259.399 C 249.500 233.604, 249.125 235.236, 255.490 233.346 C 257.135 232.858, 258.630 231.680, 258.814 230.729 C 259.118 229.150, 257.796 229, 243.573 229 C 228.979 229, 228 229.119, 228 230.886 M 297 230.869 C 297 232.239, 297.958 232.894, 300.589 233.321 C 307.129 234.382, 307 233.854, 307 259.500 C 307 277.858, 306.714 282.992, 305.643 283.881 C 304.897 284.500, 302.177 285.401, 299.597 285.883 C 294.189 286.893, 293.533 287.340, 294.345 289.457 C 294.857 290.792, 298.345 290.998, 320.219 290.985 C 334.123 290.976, 346.012 290.639, 346.638 290.235 C 347.748 289.517, 352 277.051, 352 274.511 C 352 273.808, 351.118 273.002, 350.039 272.720 C 348.498 272.317, 347.623 273.148, 345.952 276.600 C 342.504 283.722, 340.122 285, 330.299 285 C 317.953 285, 318 285.049, 318 272.336 L 318 261.742 325.250 262.456 C 333.462 263.265, 334.520 263.848, 335.354 268.022 C 335.780 270.150, 336.528 271, 337.975 271 C 339.857 271, 340 270.370, 340 262.082 C 340 257.177, 340.273 252.452, 340.607 251.582 C 341.065 250.389, 340.573 250, 338.607 250 C 336.667 250, 336 250.511, 336 252 C 336 255.982, 332.535 258, 325.700 258 C 322.133 258, 318.879 257.479, 318.200 256.800 C 316.941 255.541, 316.528 241.364, 317.630 237.250 C 318.193 235.150, 318.776 235, 326.394 235 C 335.906 235, 338.451 236.258, 339.423 241.440 C 340.693 248.212, 343.691 246.752, 344.515 238.960 C 344.832 235.957, 345.305 232.488, 345.565 231.250 L 346.038 229 321.519 229 C 298.239 229, 297 229.094, 297 230.869 M 404 230.868 C 404 232.298, 404.958 232.865, 408.078 233.284 C 410.320 233.584, 413.082 234.656, 414.215 235.665 C 416.217 237.449, 416.257 238.130, 415.636 259.966 C 414.938 284.512, 414.898 284.663, 408.861 285.891 C 406.421 286.387, 405.412 287.180, 405.180 288.787 C 404.864 290.982, 404.978 291, 419 291 C 433.072 291, 433.138 290.989, 432.820 288.760 C 432.631 287.437, 431.682 286.391, 430.500 286.204 C 426.756 285.612, 423.145 283.821, 422.545 282.258 C 421.872 280.502, 421.663 245.003, 422.323 244.344 C 422.728 243.939, 452.488 282.277, 456.348 288.176 C 457.960 290.639, 458.822 291, 463.098 291 L 468 291 468 264.434 C 468 248.094, 468.397 237.127, 469.032 235.941 C 469.663 234.760, 471.601 233.768, 474.032 233.379 C 477.017 232.902, 478 232.281, 478 230.872 C 478 229.132, 477.015 229, 464 229 C 450.694 229, 450 229.099, 450 230.988 C 450 232.531, 450.887 233.118, 453.954 233.609 C 460.719 234.690, 460.950 235.385, 461.576 256.588 L 462.135 275.500 458.590 271.500 C 456.640 269.300, 448.172 258.855, 439.772 248.288 L 424.500 229.076 414.250 229.038 C 404.894 229.003, 404 229.163, 404 230.868 M 718.180 231.250 C 718.356 232.488, 719.063 233.556, 719.750 233.625 C 720.438 233.694, 721.868 233.806, 722.929 233.875 C 727.734 234.186, 728 235.583, 728 260.449 C 728 277.898, 727.686 284.004, 726.750 284.747 C 726.063 285.293, 723.813 286.043, 721.750 286.415 C 718.926 286.924, 718 287.573, 718 289.045 C 718 290.903, 718.790 291, 734 291 C 748.818 291, 750 290.865, 750 289.176 C 750 287.870, 748.660 286.948, 745.279 285.926 C 741.695 284.843, 740.395 283.898, 739.879 282 C 738.812 278.077, 738.889 239.423, 739.969 236.582 C 740.712 234.627, 741.876 233.884, 744.969 233.389 C 748.012 232.902, 749 232.286, 749 230.872 C 749 229.123, 747.979 229, 733.430 229 L 717.861 229 718.180 231.250 M 512.619 233.034 C 505.757 235.089, 501.088 242.794, 500.289 253.381 C 498.824 272.791, 507.831 285.944, 522.615 285.984 C 529.760 286.003, 532.877 284.121, 536.072 277.858 C 538.262 273.566, 539.956 262.598, 539.294 257 C 537.199 239.301, 525.824 229.081, 512.619 233.034 M 205.335 338.962 C 202.556 340.131, 201.124 342.718, 201.775 345.392 C 202.582 348.705, 203.935 349.897, 207.680 350.600 C 211.448 351.307, 213.139 353.665, 210.896 355.086 C 208.860 356.375, 208.227 356.227, 205.923 353.923 C 203.706 351.706, 201 351.975, 201 354.412 C 201 358.668, 211.195 360.652, 214.470 357.033 C 218.310 352.790, 215.982 347.588, 209.664 346.296 C 206.433 345.635, 205.028 343.229, 207.104 341.914 C 209.034 340.693, 209.632 340.775, 211.357 342.500 C 212.950 344.093, 216 344.547, 216 343.191 C 216 339.772, 209.519 337.202, 205.335 338.962 M 419.455 340.455 C 418.105 341.805, 417 343.760, 417 344.800 C 417 347.365, 420.219 350.093, 424.209 350.909 C 427.785 351.640, 428.501 353.650, 425.795 355.358 C 424.458 356.201, 423.580 355.954, 421.730 354.217 C 417.543 350.283, 414.644 352.006, 418.086 356.382 C 419.733 358.476, 421 359, 424.418 359 C 429.330 359, 432 356.797, 432 352.743 C 432 349.373, 429.793 347.239, 425.468 346.428 C 423.052 345.975, 422 345.237, 422 343.996 C 422 341.580, 424.397 340.828, 426.653 342.537 C 428.759 344.133, 432 344.457, 432 343.073 C 432 341.430, 426.806 338, 424.320 338 C 422.994 338, 420.805 339.105, 419.455 340.455 M 179 349.500 L 179 360 185.500 360 C 191.333 360, 192 359.795, 192 358 C 192 356.296, 191.333 356, 187.500 356 C 183.667 356, 183 355.704, 183 354 C 183 352.328, 183.667 352, 187.070 352 C 190.718 352, 191.106 351.767, 190.820 349.750 C 190.644 348.512, 189.938 347.444, 189.250 347.375 C 188.563 347.306, 186.875 347.194, 185.500 347.125 C 183.708 347.035, 183 346.433, 183 345 C 183 343.296, 183.667 343, 187.500 343 C 191.333 343, 192 342.704, 192 341 C 192 339.205, 191.333 339, 185.500 339 L 179 339 179 349.500 M 222.429 341 C 222.429 342.594, 223.095 343, 225.714 343 L 229 343 229 351.500 C 229 359.900, 229.029 360, 231.500 360 C 233.971 360, 234 359.900, 234 351.500 L 234 343 237 343 C 239.333 343, 240 342.556, 240 341 C 240 339.152, 239.333 339, 231.214 339 C 223.095 339, 222.429 339.152, 222.429 341 M 441.011 340.250 C 441.017 340.938, 441.704 343.750, 442.539 346.500 C 443.373 349.250, 444.511 353.188, 445.067 355.250 C 445.883 358.279, 446.545 359, 448.511 359 C 450.617 359, 451.165 358.226, 452.583 353.250 C 453.484 350.087, 454.563 347.131, 454.981 346.680 C 455.398 346.229, 456.546 348.839, 457.532 352.481 C 459.185 358.585, 459.521 359.078, 461.846 358.801 C 463.556 358.597, 464.585 357.695, 465.043 356 C 465.414 354.625, 466.647 350.238, 467.782 346.250 L 469.846 339 467.495 339 C 465.458 339, 464.977 339.742, 463.902 344.546 C 463.220 347.596, 462.354 350.281, 461.979 350.513 C 461.604 350.745, 460.477 348.227, 459.475 344.918 C 457.829 339.480, 457.413 338.929, 455.156 339.200 C 453.061 339.452, 452.294 340.549, 450.407 346 C 449.169 349.575, 448.121 351.894, 448.078 351.154 C 448.035 350.414, 447.293 347.376, 446.429 344.404 C 445.229 340.276, 444.403 339, 442.929 339 C 441.868 339, 441.005 339.563, 441.011 340.250 M 479 349.500 L 479 360 485.500 360 C 491.333 360, 492 359.795, 492 358 C 492 356.292, 491.333 356, 487.430 356 C 483.264 356, 482.889 355.802, 483.180 353.750 C 483.451 351.845, 484.083 351.516, 487.300 351.602 C 490.616 351.691, 491.062 351.436, 490.800 349.602 C 490.566 347.962, 489.676 347.432, 486.750 347.190 C 483.812 346.946, 483 346.459, 483 344.940 C 483 343.307, 483.713 343, 487.500 343 C 491.333 343, 492 342.704, 492 341 C 492 339.205, 491.333 339, 485.500 339 L 479 339 479 349.500 M 502 348.899 L 502 358.799 506.750 359.237 C 516.008 360.092, 520.974 355.476, 519.662 347.233 C 518.747 341.489, 515.205 339, 507.944 339 L 502 339 502 348.899 M 529 349.500 L 529 360 535.500 360 C 541.333 360, 542 359.795, 542 358 C 542 356.342, 541.333 356, 538.107 356 C 535.607 356, 534.012 355.475, 533.651 354.532 C 532.913 352.610, 534.820 351.502, 538.249 351.862 C 540.452 352.093, 541 351.741, 541 350.094 C 541 348.029, 537.902 346.538, 534.959 347.188 C 534.136 347.370, 533.404 346.563, 533.204 345.250 C 532.891 343.195, 533.257 343, 537.430 343 C 541.333 343, 542 342.708, 542 341 C 542 339.205, 541.333 339, 535.500 339 L 529 339 529 349.500 M 553 349.500 C 553 359.981, 553.004 360, 555.454 360 C 557.783 360, 557.924 359.661, 558.204 353.384 L 558.500 346.769 562.710 353.384 C 565.648 358, 567.537 360, 568.960 360 C 570.884 360, 571 359.401, 571 349.500 C 571 339.667, 570.873 339, 569 339 C 567.200 339, 566.998 339.673, 566.980 345.750 L 566.960 352.500 562.741 345.750 C 559.188 340.065, 558.086 339, 555.761 339 L 553 339 553 349.500 M 288.315 341.007 C 286.012 341.935, 284 344.880, 284 347.323 C 284 350.148, 287.423 353.117, 290.790 353.213 C 295.295 353.341, 294.294 355.379, 289.422 356 C 284.126 356.675, 284.016 359.377, 289.266 359.811 C 292.342 360.066, 293.577 359.577, 296.016 357.138 C 300.022 353.132, 300.273 346.182, 296.545 342.455 C 293.978 339.887, 291.971 339.534, 288.315 341.007 M 310.500 341.195 C 307.783 342.735, 307.033 344.023, 307.015 347.179 C 306.994 350.851, 309.460 353, 313.694 353 C 316.737 353, 317.067 353.215, 316 354.500 C 315.315 355.325, 313.283 356, 311.485 356 C 308.015 356, 306.014 358.408, 308.645 359.417 C 313.466 361.267, 319.368 358.446, 320.995 353.514 C 322.512 348.919, 321.476 344.520, 318.288 342.012 C 315.410 339.748, 313.420 339.539, 310.500 341.195 M 269 342.500 C 268.315 343.325, 267.135 344, 266.378 344 C 265.620 344, 265 344.675, 265 345.500 C 265 346.433, 265.944 347, 267.500 347 C 269.889 347, 270 347.267, 270 353 C 270 358.333, 270.222 359, 272 359 C 273.852 359, 274 358.333, 274 350 C 274 341.862, 273.820 341, 272.122 341 C 271.090 341, 269.685 341.675, 269 342.500 M 335 341.981 C 335 342.520, 333.855 343.249, 332.456 343.600 C 329.472 344.349, 329.704 346.360, 332.828 346.820 C 334.777 347.106, 335 347.748, 335 353.070 C 335 358.333, 335.225 359, 337 359 C 338.852 359, 339 358.333, 339 350 C 339 341.667, 338.852 341, 337 341 C 335.900 341, 335 341.441, 335 341.981 M 506.835 349.498 C 507.151 355.613, 507.314 356, 509.585 356 C 512.720 356, 516 352.676, 516 349.500 C 516 346.198, 512.680 343.001, 509.250 342.998 L 506.500 342.996 506.835 349.498 M 288.363 345.497 C 288.017 346.398, 288.196 347.596, 288.761 348.161 C 290.391 349.791, 293.500 348.692, 293.500 346.486 C 293.500 343.943, 289.272 343.128, 288.363 345.497 M 311.363 345.497 C 311.017 346.398, 311.196 347.596, 311.761 348.161 C 313.391 349.791, 316.500 348.692, 316.500 346.486 C 316.500 343.943, 312.272 343.128, 311.363 345.497 M 365 350 C 365 351.901, 365.667 352, 378.500 352 C 391.333 352, 392 351.901, 392 350 C 392 348.099, 391.333 348, 378.500 348 C 365.667 348, 365 348.099, 365 350 M 244.139 355.332 C 243.320 356.319, 243.402 357.161, 244.456 358.582 C 245.795 360.388, 245.979 360.401, 247.603 358.800 C 249.031 357.394, 249.106 356.833, 248.042 355.550 C 246.466 353.651, 245.575 353.602, 244.139 355.332" stroke="none" fill="black" fill-rule="evenodd"/>
</svg>