<svg xmlns="http://www.w3.org/2000/svg" width="1200" height="223" viewBox="0 0 1200 223" version="1.1">
	<path d="M 779.500 1.080 C 771.250 1.511, 760.337 2.162, 755.250 2.525 L 746 3.187 746 6.941 L 746 10.696 756.535 11.341 C 768.003 12.042, 771.657 13.330, 774.573 17.699 C 776.259 20.224, 776.524 23.749, 777.260 53.500 C 777.709 71.650, 777.947 111.025, 777.788 141 L 777.500 195.500 775.182 199.500 C 773.908 201.700, 771.766 204.312, 770.423 205.304 C 767.608 207.383, 759.063 208.986, 750.750 208.994 L 745 209 745 213 L 745 217 796 217 L 847 217 847 213.153 L 847 209.305 834.896 208.697 C 815.604 207.727, 812.442 205.028, 810.942 188.248 C 810.463 182.887, 810.055 163.988, 810.036 146.250 L 810 114 815.750 114.006 C 818.913 114.009, 823.247 114.496, 825.382 115.089 C 832.784 117.144, 842.912 128.545, 867.945 163 C 885.399 187.024, 894.614 198.603, 904.355 208.750 L 912.276 217 941.638 217 L 971 217 971 213 C 971 209.144, 970.882 209, 967.710 209 C 963.232 209, 953.619 206.417, 947.216 203.493 C 935.338 198.068, 926.531 189.207, 901.999 158 C 882.053 132.626, 872.386 121.398, 864.906 114.919 L 858.822 109.648 867.161 107.933 C 878.671 105.566, 885.840 102.664, 894.516 96.861 C 903.227 91.035, 908.853 84.798, 912.883 76.500 C 923.343 54.962, 917.522 32.406, 897.617 17.340 C 883.816 6.895, 868.559 2.408, 842 0.985 C 822.024 -0.085, 801.194 -0.053, 779.500 1.080 M 1085.105 1.804 C 1084.574 2.797, 1071.772 33.509, 1056.657 70.054 C 1021.502 155.048, 1007.470 188.299, 1004.224 194.301 C 1000.913 200.421, 995.296 204.541, 986.696 207.157 L 979.893 209.227 980.196 212.864 L 980.500 216.500 1012 216.500 L 1043.500 216.500 1043.500 213.102 C 1043.500 209.777, 1043.364 209.667, 1037.136 207.962 C 1030.270 206.083, 1026.797 203.949, 1023.569 199.624 C 1021.881 197.364, 1021.534 195.496, 1021.628 189.186 C 1021.748 181.059, 1022.572 178.363, 1033.518 150.250 L 1038.287 138 1078.516 138 L 1118.745 138 1128.297 161.250 C 1133.551 174.037, 1138.882 188.016, 1140.144 192.314 C 1142.217 199.376, 1142.297 200.378, 1140.969 202.720 C 1139.070 206.071, 1133.510 208.003, 1123.698 208.721 L 1115.897 209.293 1116.198 212.896 L 1116.500 216.500 1158.250 216.761 L 1200 217.022 1200 213.082 L 1200 209.142 1194.594 208.019 C 1187.924 206.635, 1180.824 202.063, 1178.054 197.368 C 1174.482 191.313, 1161.540 161.370, 1127.001 79.250 L 1093.669 0 1089.870 0 C 1087.231 0, 1085.775 0.551, 1085.105 1.804 M 2.187 6.250 L 2.500 9.500 12 10.744 C 23.250 12.218, 26.579 13.428, 28.827 16.859 C 30.359 19.196, 30.500 26.809, 30.500 106.956 C 30.500 173.480, 30.204 195.471, 29.267 198.542 C 28.254 201.866, 27.222 202.979, 23.466 204.804 C 20.953 206.025, 15.658 207.516, 11.699 208.117 C 2.516 209.511, 1.567 210.029, 1.187 213.851 L 0.873 217 40.437 217 L 80 217 80 213.594 C 80 210.233, 79.931 210.179, 74.750 209.548 C 58.444 207.561, 49.266 203.223, 45.319 195.634 C 44.280 193.635, 43.563 187.284, 42.949 174.634 C 41.970 154.481, 41.932 73.313, 42.885 42.921 L 43.500 23.342 115.500 118.884 C 155.100 171.433, 189.015 216.131, 190.866 218.214 C 193.447 221.116, 194.985 222, 197.457 222 L 200.681 222 201.349 126.750 C 201.717 74.362, 202.423 29.475, 202.919 27 C 204.429 19.461, 213.319 13.825, 227.500 11.418 C 232.668 10.541, 234 9.406, 234 5.878 L 234 3 195 3 L 156 3 156 6.428 L 156 9.856 161.750 10.505 C 175.170 12.018, 183.384 15.663, 187.200 21.800 L 189.500 25.500 189.768 74 C 189.915 100.675, 189.690 131.935, 189.268 143.466 L 188.500 164.433 127.533 83.716 L 66.565 3 34.219 3 L 1.873 3 2.187 6.250 M 247.750 3.689 C 246.699 3.964, 246 5.101, 246 6.538 C 246 9.888, 248.121 10.653, 259.131 11.279 C 265.024 11.613, 269.966 12.448, 271.864 13.430 C 279.588 17.424, 280.213 23.586, 280.534 99 C 280.698 137.419, 281.201 162.722, 281.874 166.421 C 283.754 176.760, 287.015 184.802, 292.334 192.219 C 301.741 205.338, 316.519 214.688, 335.552 219.563 C 344.630 221.887, 347.294 222.110, 366 222.106 C 388.687 222.102, 394.837 221.091, 409.146 215.010 C 431.453 205.531, 443.819 192.225, 450.063 170.984 C 452.192 163.744, 452.288 161.366, 453.029 98 C 453.514 56.472, 454.185 31.266, 454.862 29.127 C 457.864 19.651, 465.043 14.147, 477.361 11.877 L 484 10.654 484 6.827 L 484 3 447.940 3 L 411.879 3 412.190 6.658 L 412.500 10.315 420.500 11.910 C 430.846 13.973, 437.127 17.654, 440.697 23.746 L 443.448 28.439 444.393 66.470 C 445.360 105.346, 444.159 155.854, 442.019 166.322 C 438.983 181.173, 427.789 194.577, 411.905 202.379 C 397.893 209.261, 392.280 210.457, 374 210.457 C 351.174 210.457, 340.451 207.030, 328.609 195.953 C 321.402 189.211, 317.668 182.919, 315.531 173.913 C 312.829 162.530, 311.725 129.433, 312.247 75.464 C 312.719 26.736, 312.832 24.249, 314.764 20.464 C 315.877 18.284, 317.673 15.699, 318.755 14.720 C 321.048 12.647, 329.838 11.014, 338.750 11.006 L 345 11 345 7 L 345 3 297.250 3.116 C 270.988 3.180, 248.713 3.438, 247.750 3.689 M 497 6.847 L 497 10.694 508.074 11.328 C 514.164 11.676, 520.311 12.533, 521.734 13.231 C 525.681 15.168, 527.919 18.908, 529.079 25.505 C 529.682 28.932, 530.502 60.418, 530.994 99 C 531.476 136.846, 532.294 168.492, 532.856 171.034 C 537.007 189.807, 547.990 202.994, 567.703 212.873 C 590.651 224.373, 628.014 226.212, 654.177 217.129 C 669.660 211.754, 682.518 202.742, 690.321 191.798 C 695.348 184.746, 699.587 175.796, 701.111 169.017 C 701.695 166.422, 702.462 136.202, 702.913 98 L 703.700 31.500 706.257 26.500 C 710.620 17.966, 717.626 13.129, 728 11.486 C 733.640 10.593, 735 9.504, 735 5.878 L 735 3 698.440 3 L 661.879 3 662.190 6.725 L 662.500 10.450 669.500 11.624 C 683.682 14.004, 689.486 18.284, 692.723 28.754 C 694.346 34.003, 694.492 39.685, 694.412 94.500 C 694.315 161.088, 693.971 165.522, 687.956 177.741 C 686.226 181.254, 682.070 187.059, 678.719 190.641 C 673.599 196.115, 670.860 198.013, 661.563 202.533 C 646.976 209.626, 637.577 211.451, 619.500 210.701 C 611.705 210.377, 604.298 209.490, 601 208.485 C 582.485 202.843, 568.655 188.795, 565.080 172 C 562.412 159.463, 561.033 73.327, 562.948 38.767 C 564.280 14.716, 566.053 12.465, 584.635 11.225 L 595.500 10.500 595.810 6.750 L 596.121 3 546.560 3 L 497 3 497 6.847 M 810 57.519 L 810 106.311 824.813 105.703 C 850.296 104.657, 863.369 100.659, 872.209 91.208 C 884.047 78.552, 886.293 49.737, 876.911 30.899 C 868.974 14.963, 858.128 10.239, 827.250 9.269 L 810 8.727 810 57.519 M 1076.721 47.565 C 1073.749 53.431, 1061.312 82.762, 1050.171 110.180 L 1042.174 129.859 1048.337 130.509 C 1056.328 131.352, 1113.615 130.722, 1114.554 129.781 C 1115.158 129.176, 1102.121 96.835, 1083.629 53.065 L 1079.221 42.630 1076.721 47.565" stroke="none" fill="black" fill-rule="evenodd"/>
</svg>