<svg xmlns="http://www.w3.org/2000/svg" width="1400" height="386" viewBox="0 0 1400 386" version="1.1">
	<path d="M 241.105 7.583 C 228.635 10.936, 217.483 20.481, 211.746 32.712 C 209.015 38.535, 208.507 40.873, 208.169 49.157 C 207.844 57.112, 208.156 59.959, 209.939 65.315 C 213.990 77.491, 222.102 86.311, 234.766 92.310 C 241.068 95.295, 242.206 95.500, 252.500 95.500 C 263.140 95.500, 263.756 95.378, 271.322 91.765 C 300.160 77.995, 306.355 41.294, 283.624 18.884 C 272.518 7.934, 256.062 3.560, 241.105 7.583 M 58.071 110.752 C 48.436 115.665, 47.556 128.472, 56.474 133.984 C 59.671 135.960, 61.284 136, 137.618 136.006 C 183.712 136.009, 217.943 136.412, 221.485 136.992 C 238.072 139.708, 245.983 151.196, 242.995 168.232 C 241.389 177.391, 194.263 327.649, 191.235 333.266 C 185.439 344.016, 177.079 350.985, 166.722 353.702 C 160.764 355.264, 159.906 355.264, 153.561 353.698 C 145.236 351.644, 140.683 348.926, 136.960 343.786 C 132.931 338.225, 131.610 330.951, 133.066 322.359 C 134.053 316.543, 137.901 308.220, 158.365 267.641 C 182.291 220.197, 182.500 219.728, 182.500 213.457 C 182.500 207.804, 182.184 206.801, 179.528 204.029 C 173.920 198.176, 171.260 197.908, 121.720 198.220 L 77.159 198.500 74.485 201 C 68.792 206.321, 67.577 212.154, 70.995 217.759 C 74.901 224.167, 77.647 224.992, 95.068 224.996 C 114.211 225.001, 119.556 226.292, 125.649 232.386 C 130.857 237.594, 133.557 245.744, 132.561 253.253 C 132.197 255.992, 127.114 273.593, 121.263 292.367 C 110.648 326.429, 110.626 326.522, 110.563 337.052 C 110.502 347.259, 110.620 347.847, 114.189 355.052 C 118.384 363.522, 122.873 368.299, 131.500 373.474 C 140.802 379.053, 148.415 381.002, 160.855 380.988 C 172.883 380.975, 179.356 379.566, 188.955 374.873 C 198.005 370.447, 209.559 358.847, 214.225 349.500 C 217.277 343.387, 262.332 201.920, 268.208 180 C 271.251 168.648, 271.211 151.685, 268.120 142.660 C 262.043 124.918, 246.299 113.143, 224.500 110.037 C 220.335 109.444, 185.908 109.032, 139.500 109.021 C 67.193 109.004, 61.250 109.131, 58.071 110.752 M 1119.645 152.584 C 1106.225 155.833, 1094.118 164.960, 1087.814 176.583 C 1085.578 180.706, 1059 262.417, 1059 265.170 C 1059 265.655, 1065.840 265.928, 1074.200 265.776 L 1089.400 265.500 1093.450 253 L 1097.500 240.500 1127.351 240.500 L 1157.202 240.500 1161.351 253 L 1165.500 265.500 1188.750 265.768 C 1201.537 265.916, 1212 265.703, 1212 265.295 C 1212 262.660, 1185.322 180.548, 1183.168 176.552 C 1176.648 164.460, 1165.085 155.883, 1150.745 152.502 C 1142.963 150.667, 1127.393 150.708, 1119.645 152.584 M 361 154.527 C 327.276 159.815, 312.548 175.204, 324.375 192.797 C 330.466 201.858, 343.283 209.282, 371.027 219.820 C 388.158 226.327, 391.943 228.071, 396.750 231.669 C 403.128 236.443, 399.850 244.156, 390.219 247.035 C 384.107 248.862, 369.364 249.314, 355 248.115 C 342.836 247.100, 326.333 244.753, 321.750 243.387 C 320.174 242.917, 320 243.762, 320 251.874 C 320 256.828, 320.408 261.134, 320.906 261.442 C 323.321 262.935, 346.881 266.073, 363.371 267.098 C 420.045 270.622, 461 257.987, 461 236.978 C 461 224.165, 449.369 214.212, 420.016 201.907 C 412.032 198.560, 401.530 193.972, 396.678 191.711 C 381.949 184.847, 378.016 177.788, 386.371 173.213 C 389.107 171.715, 393.609 171.460, 422.250 171.177 L 455 170.855 455 161.927 L 455 153 412.250 153.097 C 381.984 153.165, 367.018 153.583, 361 154.527 M 524.798 154.931 C 512.570 158.840, 503.805 166.559, 499.978 176.788 C 498.009 182.052, 497.907 183.999, 498.195 210.935 C 498.487 238.315, 498.594 239.692, 500.776 244.120 C 505.526 253.761, 516.203 261.173, 530.088 264.470 C 550.415 269.296, 603.326 268.483, 630.750 262.923 L 636 261.858 636 252.798 L 636 243.738 632.250 244.377 C 611.416 247.928, 567.278 250.186, 559.831 248.081 C 550.754 245.516, 548 241.301, 548 229.969 C 548 216.474, 544.927 217.551, 584.418 217.212 L 618 216.923 618 207.962 L 618 199 585.934 199 C 554.239 199, 550.827 198.688, 548.765 195.600 C 547.590 193.841, 547.888 181.340, 549.172 178.522 C 549.816 177.108, 551.954 174.949, 553.922 173.725 C 557.423 171.548, 558.282 171.493, 593.750 171.193 L 630 170.886 630 161.943 L 630 153 580.250 153.054 C 534.950 153.103, 529.990 153.271, 524.798 154.931 M 698 154.360 C 686.255 157.557, 676.718 165.100, 672.181 174.780 L 669.500 180.500 669.500 209.500 L 669.500 238.500 672.306 244.214 C 679.350 258.559, 693.956 265.095, 723.665 267.199 C 770.237 270.497, 811.072 260.876, 818.870 244.769 C 820.743 240.900, 821 238.620, 821 225.896 C 821 212.855, 820.778 210.990, 818.750 207.036 C 814.740 199.215, 813.737 199, 781.266 199 L 753 199 753 208 L 753 217 759.935 217 C 769.586 217, 771.645 217.974, 773.061 223.206 C 774.397 228.143, 773.829 238.582, 772.044 241.918 C 769.628 246.433, 762.823 248.360, 747.695 248.815 C 732.064 249.285, 727.503 248.221, 722.420 242.918 L 719.500 239.872 719.208 210.018 L 718.917 180.165 721.957 176.701 C 726.637 171.372, 729.667 171, 768.443 171 L 803 171 803 162 L 803 153 752.750 153.067 C 716.399 153.116, 701.255 153.474, 698 154.360 M 847.352 155.230 C 849.243 162.648, 878.231 253.546, 879.469 255.940 C 883.666 264.056, 898.527 269.186, 911.366 266.950 C 918.484 265.710, 927.157 261.217, 929.585 257.511 C 930.474 256.154, 934.235 245.431, 937.942 233.682 C 941.650 221.934, 945.006 211.799, 945.401 211.161 C 946.488 209.401, 949.696 209.773, 950.480 211.750 C 950.861 212.713, 954.050 222.677, 957.566 233.894 C 961.082 245.110, 964.633 255.318, 965.459 256.577 C 969.849 263.278, 979.140 267.246, 990.500 267.270 C 1005.748 267.303, 1014.735 261.469, 1018.818 248.888 C 1019.959 245.375, 1026.785 223.600, 1033.988 200.500 C 1041.191 177.400, 1047.492 157.262, 1047.990 155.750 L 1048.896 153 1036.139 153 L 1023.382 153 1012.504 188.033 C 1006.521 207.301, 1001.013 223.575, 1000.263 224.197 C 999.233 225.051, 998.579 224.982, 997.587 223.914 C 996.865 223.136, 992.553 210.350, 988.004 195.500 C 983.456 180.650, 978.914 166.869, 977.911 164.876 C 974.178 157.455, 966.483 153, 957.398 153 C 949.532 153, 944.617 154.705, 939.501 159.208 C 934.343 163.748, 934.092 164.366, 923.448 198.713 C 919.150 212.580, 915.113 224.126, 914.476 224.371 C 913.840 224.615, 912.863 224.519, 912.306 224.157 C 911.749 223.796, 906.371 207.750, 900.356 188.500 L 889.420 153.500 868.096 153.230 L 846.773 152.960 847.352 155.230 M 1213.462 153.938 C 1213.793 154.474, 1224.673 170.120, 1237.639 188.706 C 1250.605 207.293, 1261.615 223.542, 1262.107 224.815 C 1262.598 226.088, 1263.002 234.188, 1263.004 242.815 C 1263.009 265.018, 1264.087 266.385, 1282.640 267.694 C 1293.785 268.480, 1303.574 266.580, 1307.234 262.919 L 1310 260.154 1310 243.527 C 1310 230.099, 1310.314 226.293, 1311.634 223.742 C 1312.532 222.004, 1323.782 205.576, 1336.634 187.235 C 1349.485 168.895, 1360 153.689, 1360 153.444 C 1360 153.200, 1353.336 153, 1345.191 153 L 1330.381 153 1317.537 171.750 C 1310.472 182.063, 1303.156 192.412, 1301.279 194.750 C 1297.922 198.930, 1295.106 199.988, 1292.216 198.155 C 1291.510 197.707, 1284.050 187.476, 1275.638 175.420 L 1260.342 153.500 1236.601 153.232 C 1221.369 153.060, 1213.075 153.313, 1213.462 153.938 M 1374.360 154.460 C 1373.214 155.263, 1371.725 157.251, 1371.051 158.876 C 1368.833 164.230, 1373.814 171, 1379.970 171 C 1381.002 171, 1383.231 169.835, 1384.923 168.411 C 1387.405 166.323, 1388 165.056, 1388 161.863 C 1388 154.750, 1380.082 150.452, 1374.360 154.460 M 20.299 155.960 C 10.564 161.895, 12.841 176.916, 23.943 180.001 C 26.158 180.616, 59.188 180.983, 111.500 180.972 C 191.763 180.957, 195.685 180.872, 199.669 179.063 C 208.636 174.992, 210.052 163.765, 202.441 157.082 L 198.930 154 111.215 154.004 C 25.982 154.007, 23.409 154.063, 20.299 155.960 M 1376.315 155.007 C 1369.066 157.928, 1371.777 169, 1379.742 169 C 1382.902 169, 1387 165.280, 1387 162.412 C 1387 159.768, 1384.720 156.194, 1382.343 155.110 C 1379.531 153.829, 1379.250 153.825, 1376.315 155.007 M 1375.195 161.672 C 1375.494 166.251, 1378 169.299, 1378 165.083 C 1378 162.429, 1379.666 162.374, 1380.500 165 C 1380.849 166.100, 1381.779 167, 1382.567 167 C 1384.298 167, 1384.416 165.816, 1382.842 164.242 C 1381.966 163.366, 1381.970 162.741, 1382.860 161.669 C 1384.968 159.129, 1383.134 157, 1378.838 157 L 1374.890 157 1375.195 161.672 M 1378 160 C 1378 160.550, 1378.675 161, 1379.500 161 C 1380.325 161, 1381 160.550, 1381 160 C 1381 159.450, 1380.325 159, 1379.500 159 C 1378.675 159, 1378 159.450, 1378 160 M 1120.299 178.960 C 1118.538 180.033, 1116.465 182.169, 1115.693 183.706 C 1113.092 188.883, 1104.696 217.765, 1105.319 219.390 C 1105.861 220.801, 1108.602 221, 1127.500 221 C 1146.207 221, 1149.143 220.791, 1149.668 219.424 C 1150.398 217.522, 1141.304 187.030, 1138.759 182.844 C 1135.371 177.272, 1126.223 175.347, 1120.299 178.960" stroke="none" fill="black" fill-rule="evenodd"/>
</svg>