<svg xmlns="http://www.w3.org/2000/svg" width="300" height="300" viewBox="0 0 300 300" version="1.1">
	<path d="M 10 114.500 C 10 180.333, 10.020 181, 12 181 C 13.774 181, 14 180.333, 14 175.110 C 14 161.411, 19.400 142.015, 27.804 125.530 C 44.994 91.809, 74.788 67.295, 110 57.901 C 118.037 55.757, 135.998 53.052, 142.411 53.020 L 146.321 53 145.682 83.750 C 144.956 118.670, 144.237 122.969, 136.696 137.473 C 122.317 165.131, 93.603 188.579, 60.840 199.415 C 49.552 203.149, 34.643 206, 26.406 206 C 19.877 206, 18 206.694, 18 209.107 C 18 210.955, 21.144 211, 149.500 211 C 277.856 211, 281 210.955, 281 209.107 C 281 206.661, 279.126 206.001, 272.168 205.997 C 257.535 205.989, 235.784 199.986, 218.530 191.193 C 186.558 174.902, 161.206 145.601, 155.504 118.351 C 154.661 114.321, 153.866 100.559, 153.419 82.277 L 152.697 52.718 162.098 53.423 C 211.895 57.156, 252.644 83.908, 274.940 127.505 C 282.414 142.120, 287.886 162.178, 287.965 175.250 C 287.992 179.679, 288.345 181, 289.500 181 C 290.818 181, 291 172.944, 291 114.500 L 291 48 150.500 48 L 10 48 10 114.500 M 9.030 225.750 C 9.054 229.463, 9.283 230.118, 10.080 228.750 C 10.896 227.349, 12.485 227, 18.050 227 L 25 227 25 238.500 C 25 248.759, 24.811 250.008, 23.250 250.070 C 21.754 250.130, 21.790 250.265, 23.500 251 C 26.319 252.212, 37 252.212, 37 251 C 37 250.450, 36.310 250, 35.467 250 C 34.164 250, 33.977 248.313, 34.217 238.750 L 34.500 227.500 41.669 227.208 C 47.864 226.955, 48.900 227.159, 49.303 228.708 C 49.559 229.694, 49.820 228.363, 49.884 225.750 L 50 221 29.500 221 L 9 221 9.030 225.750 M 53.515 221.976 C 53.167 222.539, 53.584 223, 54.441 223 C 55.776 223, 56 224.940, 56 236.500 C 56 247.833, 55.759 250, 54.500 250 C 53.675 250, 53 250.461, 53 251.024 C 53 251.693, 58.808 251.953, 69.750 251.774 L 86.500 251.500 86.805 246.750 C 86.988 243.893, 86.689 242, 86.055 242 C 85.475 242, 85 242.675, 85 243.500 C 85 244.738, 83.167 245, 74.500 245 L 64 245 64 242 L 64 239 72 239 C 76.964 239, 80 239.402, 80 240.059 C 80 240.641, 80.450 240.840, 81 240.500 C 81.550 240.160, 82 237.910, 82 235.500 C 82 233.090, 81.550 230.840, 81 230.500 C 80.450 230.160, 80 230.359, 80 230.941 C 80 231.599, 76.943 232, 71.930 232 C 64.134 232, 63.872 231.924, 64.180 229.750 C 64.485 227.606, 64.982 227.487, 74.750 227.215 C 83.422 226.974, 85 227.166, 85 228.465 C 85 229.309, 85.476 230, 86.057 230 C 86.683 230, 86.989 228.265, 86.807 225.750 L 86.500 221.500 70.324 221.226 C 60.065 221.052, 53.917 221.326, 53.515 221.976 M 89.544 221.929 C 89.180 222.518, 89.584 223, 90.441 223 C 91.776 223, 92 224.940, 92 236.500 C 92 248.060, 91.776 250, 90.441 250 C 89.584 250, 89.160 250.450, 89.500 251 C 89.840 251.550, 93.016 252, 96.559 252 C 100.186 252, 103 251.563, 103 251 C 103 250.450, 102.550 250, 102 250 C 101.450 250, 101 247.525, 101 244.500 L 101 239 105.250 239.056 C 109.178 239.107, 109.825 239.523, 113.797 244.556 C 116.161 247.550, 117.511 250.007, 116.797 250.015 C 115.870 250.026, 115.927 250.307, 117 251 C 118.980 252.280, 129.709 252.280, 130.500 251 C 130.840 250.450, 130.304 249.981, 129.309 249.957 C 128.314 249.934, 125.743 247.637, 123.595 244.854 L 119.691 239.793 122.845 237.324 C 125.373 235.346, 126 234.119, 126 231.150 C 126 226.664, 123.978 223.530, 120.266 222.261 C 116.235 220.884, 90.363 220.604, 89.544 221.929 M 142.644 222.376 C 139.642 223.222, 136.424 225.110, 134.212 227.321 C 131.086 230.448, 130.581 231.641, 130.209 236.791 C 129.814 242.253, 130.011 242.942, 132.912 246.247 C 135.195 248.847, 137.424 250.142, 141.162 251.039 C 146.823 252.397, 158.523 251.843, 163.750 249.969 C 166.918 248.834, 167 248.655, 167 242.902 C 167 238.322, 167.336 237, 168.500 237 C 169.325 237, 170 236.550, 170 236 C 170 235.437, 167.186 235, 163.559 235 C 160.016 235, 156.840 235.450, 156.500 236 C 156.160 236.550, 156.584 237, 157.441 237 C 158.549 237, 159 237.989, 159 240.422 C 159 243.468, 158.602 243.976, 155.383 245.038 C 141.424 249.645, 132.014 234.597, 145.608 229.406 C 150.561 227.514, 160.024 228.167, 162.423 230.566 C 163.652 231.795, 164.126 231.532, 165.922 228.626 C 168.125 225.062, 168.471 223.899, 167.250 224.161 C 166.838 224.250, 165.150 223.767, 163.500 223.086 C 158.905 221.193, 148.145 220.826, 142.644 222.376 M 172 221.976 C 172 222.539, 172.675 223, 173.500 223 C 174.759 223, 175 225.167, 175 236.500 C 175 247.833, 174.759 250, 173.500 250 C 172.675 250, 172 250.450, 172 251 C 172 251.627, 178.333 252, 189 252 L 206 252 205.884 246.750 C 205.820 243.863, 205.562 242.287, 205.311 243.250 C 204.912 244.776, 203.516 245, 194.427 245 L 184 245 184 242 L 184 239 191.300 239 C 195.644 239, 199.086 239.486, 199.800 240.200 C 200.733 241.133, 201 240.089, 201 235.500 C 201 230.911, 200.733 229.867, 199.800 230.800 C 199.086 231.514, 195.644 232, 191.300 232 C 184.180 232, 184 231.938, 184 229.500 L 184 227 194 227 C 202.222 227, 204 227.267, 204 228.500 C 204 229.325, 204.476 230, 205.057 230 C 205.683 230, 205.989 228.265, 205.807 225.750 L 205.500 221.500 188.750 221.226 C 177.808 221.047, 172 221.307, 172 221.976 M 208 222 C 208 222.550, 208.675 223, 209.500 223 C 210.759 223, 211 225.159, 211 236.427 C 211 248.373, 210.807 249.904, 209.250 250.311 C 208.287 250.562, 210.650 250.768, 214.500 250.768 C 218.350 250.768, 220.713 250.562, 219.750 250.311 C 218.253 249.920, 218 248.600, 218 241.196 L 218 232.540 227.269 241.770 C 235.639 250.105, 236.899 251, 240.269 251 L 244 251 244 237 C 244 225.222, 244.238 223, 245.500 223 C 246.325 223, 247 222.550, 247 222 C 247 221.436, 244.167 221, 240.500 221 C 236.833 221, 234 221.436, 234 222 C 234 222.550, 234.675 223, 235.500 223 C 236.717 223, 237 224.623, 237 231.608 L 237 240.216 228.135 232.123 C 223.259 227.672, 218.704 223.348, 218.012 222.515 C 216.599 220.812, 208 220.370, 208 222 M 250.116 225.750 C 250.180 228.363, 250.438 229.713, 250.689 228.750 C 251.073 227.281, 252.341 227, 258.573 227 L 266 227 266 238.427 C 266 248.468, 265.788 249.909, 264.250 250.311 C 263.288 250.562, 266.100 250.768, 270.500 250.768 C 274.900 250.768, 277.712 250.562, 276.750 250.311 C 275.212 249.909, 275 248.468, 275 238.427 L 275 227 281.950 227 C 287.515 227, 289.104 227.349, 289.920 228.750 C 290.717 230.118, 290.946 229.463, 290.970 225.750 L 291 221 270.500 221 L 250 221 250.116 225.750 M 101 230.500 L 101 234 108.465 234 C 114.592 234, 116.100 233.682, 116.880 232.224 C 117.483 231.098, 117.478 229.818, 116.866 228.724 C 116.087 227.333, 114.464 227, 108.450 227 L 101 227 101 230.500" stroke="none" fill="black" fill-rule="evenodd"/>
</svg>