<svg xmlns="http://www.w3.org/2000/svg" width="1181" height="709" viewBox="0 0 1181 709" version="1.1">
	<path d="M -0 354.501 L -0 709.002 590.750 708.751 L 1181.500 708.500 1181.751 354.250 L 1182.003 -0 591.001 -0 L 0 0 -0 354.501 M 0.494 355 C 0.494 549.975, 0.609 629.738, 0.750 532.250 C 0.891 434.763, 0.891 275.238, 0.750 177.750 C 0.609 80.263, 0.494 160.025, 0.494 355 M 71 355.500 L 71 639 591.500 639 L 1112 639 1112 355.500 L 1112 72 591.500 72 L 71 72 71 355.500 M 587.930 135.809 C 587.067 136.739, 584.201 140.791, 581.562 144.813 C 575.217 154.482, 571.074 166.121, 569.215 179.500 C 568.455 184.974, 568.476 207.425, 569.248 213.246 C 570.718 224.342, 571.364 227.525, 573.133 232.363 C 574.160 235.173, 575 238.168, 575 239.019 C 575 241.757, 582.779 255.332, 587.188 260.289 C 589.822 263.249, 589.930 263.276, 592.481 261.605 C 595.083 259.899, 601.228 248.271, 602.575 242.500 C 602.961 240.850, 603.699 238.961, 604.217 238.302 C 604.735 237.643, 605.590 234.493, 606.118 231.302 C 606.646 228.111, 607.478 223.250, 607.966 220.500 C 609.135 213.919, 609.083 191.096, 607.883 183.500 C 607.362 180.200, 606.567 174.478, 606.118 170.783 C 605.668 167.089, 604.802 163.467, 604.194 162.734 C 603.586 162.001, 602.780 159.398, 602.403 156.950 C 602.027 154.503, 600.943 150.925, 599.995 149 C 599.046 147.075, 597.708 143.700, 597.020 141.500 C 595.819 137.663, 592.603 134.003, 590.500 134.082 C 589.950 134.102, 588.794 134.880, 587.930 135.809 M 699.500 183.372 C 696.200 183.992, 692.600 185.003, 691.500 185.618 C 690.400 186.234, 687.925 187.258, 686 187.895 C 682.834 188.943, 677.682 191.987, 664.885 200.373 C 659.428 203.949, 636.241 227.091, 632.695 232.500 C 631.253 234.700, 628.706 238.428, 627.036 240.785 C 625.366 243.142, 624 245.260, 624 245.491 C 624 245.722, 622.908 247.521, 621.573 249.488 C 619.319 252.808, 608.728 273.979, 607.058 278.500 C 602.600 290.570, 599 307.737, 599 316.924 C 599 325.532, 602.483 329.079, 608.477 326.574 C 610.415 325.764, 612 325.320, 612 325.587 C 612 325.854, 613.679 324.931, 615.732 323.536 C 617.785 322.141, 619.873 321, 620.372 321 C 623.756 321, 652.349 298.749, 657.302 292.262 C 658.461 290.743, 662.166 286.350, 665.535 282.500 C 681.792 263.920, 701.344 226.870, 707.226 203.500 C 707.780 201.300, 709.159 196.395, 710.290 192.600 L 712.347 185.700 710.063 183.850 C 707.522 181.792, 707.829 181.806, 699.500 183.372 M 478.079 186.250 C 477.597 187.488, 476.369 191.425, 475.351 195 C 472.860 203.748, 472.841 226.832, 475.317 235.154 C 476.243 238.264, 477 241.864, 477.001 243.154 C 477.001 245.981, 483.733 267.106, 485.061 268.450 C 485.577 268.973, 486 270.104, 486 270.965 C 486 271.825, 486.835 274.098, 487.856 276.015 C 488.877 277.932, 492.286 284.450, 495.432 290.500 C 498.578 296.550, 502.018 302.429, 503.076 303.564 C 504.134 304.700, 505 305.923, 505 306.283 C 505 307.409, 512.890 318.497, 520.232 327.687 C 529.289 339.026, 536.761 346.768, 545.500 353.872 C 556.093 362.481, 574.229 374, 577.193 374 C 577.928 374, 580.209 374.900, 582.261 376 C 586.594 378.322, 588.926 378.506, 591.372 376.717 C 592.917 375.587, 593.127 373.523, 593.135 359.358 C 593.142 346.985, 592.782 342.414, 591.572 339.518 C 590.707 337.449, 590 334.523, 590 333.016 C 590 329.811, 584.575 311.712, 582.455 307.846 C 581.655 306.386, 581 304.582, 581 303.838 C 581 303.093, 579.875 300.371, 578.500 297.788 C 577.125 295.205, 576 292.483, 576 291.740 C 576 290.997, 574.875 288.864, 573.500 287 C 572.125 285.136, 571 283.046, 571 282.356 C 571 281.665, 569.703 279.165, 568.118 276.800 C 566.533 274.435, 564.384 270.925, 563.343 269 C 560.108 263.016, 558.950 261.335, 548.779 247.850 C 529.655 222.495, 513.387 206.450, 486.817 186.733 C 482.306 183.386, 479.262 183.217, 478.079 186.250 M 876.173 452.839 C 869.597 455.192, 863.781 460.712, 860.201 468 C 857.812 472.865, 857.500 474.657, 857.500 483.518 C 857.500 492.855, 857.727 493.996, 860.843 500.328 C 866.370 511.561, 876.424 516.841, 890.100 515.695 C 902.086 514.690, 909.570 509.352, 914.904 498 C 917.150 493.222, 917.487 491.187, 917.475 482.500 C 917.460 471.537, 915.913 466.572, 910.528 460.201 C 903.723 452.149, 887.700 448.716, 876.173 452.839 M 136 455.500 L 136 459 146.500 459 L 157 459 157 487 L 157 515 161.500 515 L 166 515 166 487 L 166 459 176.500 459 L 187 459 187 455.500 L 187 452 161.500 452 L 136 452 136 455.500 M 194 483.500 L 194 515 198.500 515 L 203 515 203 500 L 203 485 218.500 485 L 234 485 234 500 L 234 515 238.500 515 L 243 515 243 483.500 L 243 452 238.500 452 L 234 452 234 465 L 234 478 218.500 478 L 203 478 203 465 L 203 452 198.500 452 L 194 452 194 483.500 M 259 483.500 L 259 515 282 515 L 305 515 305 511.500 L 305 508 286.500 508 L 268 508 268 497 L 268 486 284.500 486 L 301 486 301 482.500 L 301 479 284.500 479 L 268 479 268 469 L 268 459 286 459 L 304 459 304 455.500 L 304 452 281.500 452 L 259 452 259 483.500 M 341 483.500 L 341 515 345.500 515 L 350 515 350 500.500 L 350 486 366 486 L 382 486 382 482.500 L 382 479 366 479 L 350 479 350 469 L 350 459 367.500 459 L 385 459 385 455.500 L 385 452 363 452 L 341 452 341 483.500 M 395 483.421 L 395 515 399.500 515 L 404 515 404 501.500 L 404 488 414.953 488 C 420.977 488, 427.002 488.500, 428.343 489.110 C 431.854 490.710, 432.998 494.063, 433.014 502.797 C 433.035 514.641, 433.230 515, 439.652 515 C 444.981 515, 445.049 514.963, 443.798 512.750 C 443.099 511.512, 442.286 505.842, 441.993 500.150 C 441.470 490.010, 441.393 489.741, 438.205 486.892 L 434.950 483.983 438.427 480.506 C 443.726 475.207, 444.585 464.944, 440.219 459.087 C 435.854 453.230, 433.121 452.529, 413.250 452.171 L 395 451.841 395 483.421 M 459 483.500 L 459 515 463.500 515 L 468 515 468 483.500 L 468 452 463.500 452 L 459 452 459 483.500 M 482 483.500 L 482 515 505 515 L 528 515 528 511.500 L 528 508 509.500 508 L 491 508 491 497 L 491 486 507.500 486 L 524 486 524 482.500 L 524 479 507.500 479 L 491 479 491 469 L 491 459 509 459 L 527 459 527 455.500 L 527 452 504.500 452 L 482 452 482 483.500 M 540 483.448 L 540 515 543.983 515 L 547.966 515 548.233 489.843 L 548.500 464.686 564 489.835 L 579.500 514.983 584.250 514.992 L 589 515 589 483.500 L 589 452 585 452 L 581 452 581 477.172 L 581 502.343 565.607 477.422 L 550.215 452.500 545.107 452.198 L 540 451.895 540 483.448 M 604 483.500 L 604 515 619.250 514.978 C 635.609 514.954, 640.316 513.841, 645.849 508.688 C 651.762 503.180, 655.564 490.641, 654.717 479.441 C 654.058 470.725, 651.254 463.888, 646.218 458.720 C 640.916 453.278, 635.611 452, 618.318 452 L 604 452 604 483.500 M 667 483.500 L 667 515 687 515 L 707 515 707 511.500 L 707 508 691.500 508 L 676 508 676 480 L 676 452 671.500 452 L 667 452 667 483.500 M 714.634 457.750 C 716.667 460.913, 722.081 469.389, 726.665 476.587 L 735 489.673 735 502.337 L 735 515 739.500 515 L 744 515 744 502.358 L 744 489.716 748.086 483.246 C 750.334 479.687, 755.727 471.201, 760.072 464.388 L 767.970 452 762.735 452.024 L 757.500 452.047 748.632 467.024 C 743.754 475.261, 739.645 482, 739.500 482 C 739.355 482, 735.246 475.261, 730.368 467.024 L 721.500 452.047 716.219 452.024 L 710.939 452 714.634 457.750 M 797 483.500 L 797 515 801.500 515 L 806 515 806 500 L 806 485 821.500 485 L 837 485 837 500 L 837 515 841.500 515 L 846 515 846 483.500 L 846 452 841.500 452 L 837 452 837 465 L 837 478 821.500 478 L 806 478 806 465 L 806 452 801.500 452 L 797 452 797 483.500 M 929 483.452 L 929 515 933 515 L 937 515 937.059 489.250 L 937.119 463.500 945.934 489 L 954.749 514.500 959.509 514.500 L 964.269 514.500 972.884 489.500 L 981.500 464.500 981.767 489.750 L 982.034 515 986.017 515 L 990 515 990 483.452 L 990 451.905 983.869 452.202 L 977.739 452.500 968.642 478.818 C 963.639 493.292, 959.414 504.767, 959.253 504.318 C 959.092 503.868, 954.983 492.025, 950.122 478 L 941.283 452.500 935.142 452.202 L 929 451.905 929 483.452 M 1002 483.500 L 1002 515 1025 515 L 1048 515 1048 511.500 L 1048 508 1029.500 508 L 1011 508 1011 497 L 1011 486 1027.500 486 L 1044 486 1044 482.500 L 1044 479 1027.500 479 L 1011 479 1011 469 L 1011 459 1029 459 L 1047 459 1047 455.500 L 1047 452 1024.500 452 L 1002 452 1002 483.500 M 404 469.918 L 404 481 414.532 481 C 430.753 481, 434.806 478.280, 433.697 468.138 C 432.866 460.530, 430.992 459.554, 416.475 459.168 L 404 458.837 404 469.918 M 613 483.500 L 613 508 622.540 508 C 637.087 508, 641.099 505.347, 644.561 493.440 C 646.811 485.698, 646.054 474.691, 642.822 468.179 C 639.381 461.246, 634.358 459, 622.288 459 L 613 459 613 483.500 M 879.655 460.459 C 871.759 463.274, 867.198 470.255, 866.306 480.891 C 864.676 500.330, 877.459 511.889, 895.152 506.975 C 905.604 504.071, 911.713 487.499, 907.527 473.404 C 904.160 462.065, 891.562 456.213, 879.655 460.459" stroke="none" fill="black" fill-rule="evenodd"/>
</svg>