<svg xmlns="http://www.w3.org/2000/svg" width="1340" height="250" viewBox="30 590 1340 250" version="1.1">
	<path d="M 608 600.020 C 607.175 600.564, 603.575 601.943, 600 603.085 C 594.854 604.728, 591.066 605.142, 581.814 605.073 C 570.174 604.985, 565.628 605.922, 564.592 608.620 C 563.685 610.983, 567.850 612.247, 574.377 611.588 C 577.744 611.248, 581.147 611.393, 581.939 611.910 C 583.139 612.696, 581.014 621.002, 569.078 662.176 C 551.852 721.600, 533.512 784.138, 527.443 804.153 C 524.999 812.212, 523 819.075, 523 819.403 C 523 819.731, 528.608 820, 535.461 820 L 547.923 820 548.889 816.250 C 558.246 779.925, 562.564 764.970, 567.802 750.750 L 571.394 741 575.447 741.022 C 581.793 741.056, 587.414 744.133, 590.312 749.158 C 593.828 755.254, 594.869 761.673, 595.964 784 C 596.490 794.725, 597.432 805.300, 598.057 807.500 C 601.044 818.006, 607.068 822.386, 618.500 822.367 C 627.660 822.351, 633.572 819.562, 641.567 811.485 C 650.878 802.079, 659.800 782.849, 655.956 780.473 C 654.253 779.420, 652.090 781.949, 650.915 786.366 C 649.219 792.738, 642.914 804.080, 638.750 808.247 C 635.716 811.283, 634.266 812, 631.155 812 C 625.564 812, 623.906 809.639, 622.924 800.277 C 622.475 796, 622.084 789.669, 622.054 786.208 C 621.985 778.169, 619.525 766.244, 616.545 759.507 C 612.154 749.577, 605.295 743.861, 593 739.886 C 589.975 738.908, 588.216 738.083, 589.090 738.054 C 592.656 737.933, 603.043 731.661, 607.413 726.990 C 610.309 723.894, 613.972 718.064, 617.115 711.550 C 620.506 704.522, 623.452 699.921, 626.085 697.542 C 628.241 695.594, 630.358 694, 630.788 694 C 631.219 694, 633.026 696.952, 634.805 700.559 C 637.417 705.856, 638.741 707.412, 641.682 708.640 C 654.496 713.994, 665.859 697.013, 656.036 687.189 C 650.314 681.468, 637.562 680.550, 629.765 685.298 C 624.786 688.330, 621.391 692.909, 614.556 705.810 C 611.334 711.891, 607.066 719.033, 605.072 721.683 C 600.845 727.297, 593.564 732.494, 587.657 734.111 C 583.056 735.371, 573.465 735.798, 572.455 734.789 C 571.710 734.043, 573.604 727.374, 587.022 683.500 C 601.276 636.893, 607.134 616.427, 610.422 601.750 C 611.073 598.843, 610.455 598.401, 608 600.020 M 716.539 600.957 C 713.613 604.190, 708.599 604.988, 691.184 604.994 C 674.857 605, 671 605.681, 671 608.560 C 671 611.014, 675.951 612.230, 683.131 611.540 C 686.778 611.189, 690.961 611.203, 692.426 611.571 L 695.089 612.239 694.794 713.037 C 694.632 768.475, 694.131 814.203, 693.679 814.655 C 693.227 815.106, 688.727 815.341, 683.679 815.178 C 676.736 814.952, 674.013 815.243, 672.500 816.373 C 668.015 819.720, 671.656 820.126, 706.754 820.191 C 725.468 820.226, 741.279 819.946, 741.890 819.568 C 743.775 818.403, 743.117 816.065, 740.750 815.519 C 739.513 815.233, 734.450 814.887, 729.500 814.750 L 720.500 814.500 720.239 772.577 L 719.978 730.654 724.153 723.577 C 729.395 714.692, 742.767 701.199, 749.500 697.999 C 752.815 696.423, 756.893 695.483, 761.603 695.209 C 772.460 694.578, 776.347 697.259, 779.713 707.702 C 781.039 711.812, 781.230 719.814, 781.051 763.496 C 780.936 791.543, 780.621 814.713, 780.350 814.983 C 780.079 815.254, 775.650 815.334, 770.507 815.161 C 760.031 814.808, 755.633 816.062, 758.232 818.661 C 759.460 819.889, 765.291 820.136, 794.241 820.189 C 813.240 820.223, 829.283 819.943, 829.892 819.567 C 831.775 818.403, 831.116 816.065, 828.750 815.518 C 827.513 815.232, 822.225 814.886, 817 814.749 L 807.500 814.500 807.170 800 C 806.989 792.025, 807.356 773.800, 807.986 759.500 C 809.291 729.894, 808.481 717.915, 804.602 709.442 C 798.475 696.059, 781.657 687.932, 763 689.339 C 753.431 690.061, 748.274 691.915, 740.597 697.394 C 735.333 701.150, 723.204 714.084, 722.167 717.048 C 720.545 721.681, 720.170 710.189, 720.313 660.250 C 720.425 621.411, 720.135 601.915, 719.429 600.712 C 718.433 599.017, 718.283 599.030, 716.539 600.957 M 164.962 623.250 C 159.061 626.226, 156.688 630.705, 157.422 637.486 C 158.055 643.337, 160.326 646.829, 165.071 649.248 C 172.453 653.013, 183.586 649.873, 187.176 643.016 C 190.989 635.732, 188.433 625.550, 181.970 622.279 C 177.980 620.260, 169.986 620.716, 164.962 623.250 M 80.624 661.060 C 78.070 670.976, 72.774 681.032, 67.589 685.811 C 60.930 691.950, 55.713 694.201, 46.099 695.084 C 39.662 695.676, 37.221 696.334, 35.655 697.901 C 34.531 699.025, 33.961 700.294, 34.388 700.722 C 34.816 701.150, 40.741 701.658, 47.557 701.852 L 59.948 702.204 60.626 705.819 C 60.999 707.807, 60.898 719.573, 60.402 731.967 C 59.003 766.921, 59.226 801.723, 60.879 806.405 C 62.884 812.086, 69.614 818.331, 76.593 820.988 C 81.207 822.744, 84.579 823.238, 92 823.243 C 106.874 823.254, 118.870 818.327, 124.431 809.925 C 127.906 804.674, 128.191 801.606, 125.244 801.183 C 123.565 800.942, 122.541 801.677, 121.244 804.056 C 114.869 815.740, 101.134 821.427, 92.299 816.040 C 84.391 811.219, 83.431 802.744, 85.046 752 C 85.721 730.825, 86.098 710.912, 85.886 707.749 L 85.500 701.997 104.559 701.999 C 119.853 702, 124.001 701.707, 125.559 700.519 C 129.132 697.793, 125.289 697.031, 107.875 697.015 C 98.731 697.007, 89.844 696.719, 88.125 696.375 L 85 695.750 85 674.875 C 85 658.593, 84.719 654, 83.721 654 C 82.976 654, 81.685 656.943, 80.624 661.060 M 304 690.367 C 294.910 692.350, 288.294 696.647, 277.750 707.413 L 268 717.369 268 704.851 C 268 697.966, 267.706 692.039, 267.347 691.680 C 266.987 691.321, 265.228 691.932, 263.438 693.038 C 259.071 695.737, 245.238 697.363, 231.898 696.745 C 221.334 696.256, 218 696.901, 218 699.433 C 218 701.401, 221.316 701.971, 232.842 701.986 L 243.184 702 242.842 757.917 C 242.654 788.672, 242.131 814.204, 241.679 814.655 C 241.227 815.106, 236.650 815.334, 231.507 815.161 C 221.027 814.808, 216.633 816.062, 219.234 818.663 C 221.272 820.701, 287.102 820.990, 289.534 818.972 C 292.342 816.641, 289.279 815.518, 278.705 815 L 268.500 814.500 267.760 775 C 266.935 731.039, 267.033 730.073, 273.321 720.126 C 278.600 711.775, 288.578 702.333, 295.972 698.692 C 301.665 695.889, 303.453 695.500, 310.659 695.500 C 318.356 695.500, 319.051 695.680, 321.905 698.411 C 325.767 702.109, 328.084 709.079, 328.876 719.389 C 329.690 729.966, 328.670 813.663, 327.717 814.617 C 327.314 815.019, 322.825 815.250, 317.742 815.129 C 311.270 814.976, 307.949 815.314, 306.660 816.258 C 305.028 817.452, 304.992 817.748, 306.339 818.867 C 308.607 820.749, 375.321 820.808, 377.584 818.930 C 380.706 816.339, 376.547 815, 365.381 815 L 355.144 815 354.440 809.364 C 354.052 806.264, 354.133 794.677, 354.618 783.614 C 355.103 772.551, 355.500 753.150, 355.500 740.500 C 355.500 713.875, 354.750 710.275, 347.528 702.242 C 337.837 691.463, 320.570 686.753, 304 690.367 M 1074 690.119 C 1067.627 691.145, 1055.472 696.805, 1052.231 700.254 C 1051.005 701.559, 1047.864 705.718, 1045.251 709.497 C 1042.638 713.275, 1040.012 716.522, 1039.416 716.711 C 1038.674 716.947, 1038.359 713.132, 1038.416 704.617 C 1038.462 697.776, 1038.165 691.841, 1037.756 691.428 C 1037.347 691.016, 1036.222 691.362, 1035.256 692.198 C 1031.528 695.422, 1026.471 696.249, 1008.500 696.572 C 998.600 696.750, 990.163 696.919, 989.750 696.948 C 989.337 696.977, 989 697.848, 989 698.883 C 989 701.402, 991.584 701.970, 1003.107 701.986 L 1012.714 702 1013.163 739.250 C 1013.651 779.705, 1012.986 813.347, 1011.672 814.661 C 1011.217 815.116, 1006.864 815.344, 1001.999 815.168 C 993.582 814.863, 989 815.849, 989 817.968 C 989 818.461, 989.908 819.153, 991.018 819.506 C 993.746 820.372, 1058.500 820.427, 1059.895 819.565 C 1061.514 818.564, 1061.242 816.307, 1059.418 815.607 C 1058.548 815.273, 1053.598 815, 1048.418 815 L 1039 815 1038.998 794.750 C 1038.997 783.612, 1038.518 767.231, 1037.933 758.346 C 1036.145 731.185, 1038.948 721.109, 1051.887 708.194 C 1065.742 694.367, 1081.416 690.961, 1091.068 699.680 C 1098.288 706.203, 1098.404 707.272, 1098.102 764.497 C 1097.958 791.995, 1097.618 814.715, 1097.349 814.985 C 1097.079 815.255, 1092.650 815.334, 1087.507 815.161 C 1077.035 814.808, 1072.633 816.062, 1075.230 818.658 C 1076.453 819.882, 1082.222 820.133, 1110.427 820.194 C 1140.165 820.258, 1144.352 820.076, 1145.771 818.657 C 1146.657 817.772, 1147.035 816.699, 1146.612 816.274 C 1146.189 815.848, 1141.184 815.275, 1135.490 815 L 1125.137 814.500 1124.348 791.500 C 1123.037 753.279, 1123.306 735.365, 1125.291 728.824 C 1127.403 721.863, 1135.628 709.339, 1141.297 704.452 C 1148.762 698.019, 1153.540 695.766, 1160.828 695.244 C 1171.985 694.446, 1177.549 698.266, 1181.595 709.500 C 1183.148 713.813, 1183.440 718.693, 1183.722 745 C 1183.902 761.775, 1183.701 784.500, 1183.275 795.500 L 1182.500 815.500 1173.381 815.145 C 1164.715 814.807, 1160 815.787, 1160 817.927 C 1160 819.591, 1164.833 819.877, 1197.170 820.126 C 1223.372 820.328, 1230.161 820.112, 1231.462 819.031 C 1234.374 816.614, 1231.329 815.520, 1220.246 815 L 1209.583 814.500 1208.701 810.500 C 1208.198 808.219, 1208.181 797.047, 1208.660 784.500 C 1209.122 772.400, 1209.498 752.600, 1209.496 740.500 C 1209.493 721.901, 1209.215 717.701, 1207.692 713.329 C 1199.226 689.015, 1160.360 681.907, 1137.500 700.493 C 1135.186 702.375, 1131.393 707.408, 1128.500 712.435 L 1123.500 721.125 1122.887 716.292 C 1121.170 702.752, 1109.528 692.811, 1092 689.919 C 1085.570 688.858, 1081.556 688.903, 1074 690.119 M 1294.112 690.514 C 1276.035 695.598, 1259.981 712.164, 1251.853 734.120 C 1249.205 741.274, 1248.676 744.289, 1248.241 754.729 C 1247.920 762.445, 1248.186 769.272, 1248.962 773.229 C 1253.600 796.866, 1271.637 816.153, 1294.596 822.025 C 1314.559 827.130, 1331.466 822.523, 1346.034 808.007 C 1354.591 799.482, 1359.095 791.416, 1359.786 783.379 C 1360.633 773.531, 1356.464 776.221, 1353.068 787.714 C 1350.507 796.383, 1346.495 801.929, 1338.285 808.150 C 1319.443 822.429, 1294.276 821.963, 1284.887 807.162 C 1283.261 804.598, 1281.251 800.250, 1280.422 797.500 C 1278.202 790.139, 1276.556 767.133, 1277.434 755.750 L 1278.187 746 1311.343 745.883 C 1329.579 745.819, 1347.425 745.481, 1351 745.133 L 1357.500 744.500 1357.175 739.500 C 1356.222 724.842, 1344.995 706.501, 1331.486 697.534 C 1320.556 690.280, 1305.203 687.396, 1294.112 690.514 M 435.798 691.931 C 406.419 701.324, 387.439 739.025, 394.584 773.792 C 399.245 796.470, 412.976 813.785, 431.854 820.790 C 439.777 823.729, 455.209 824.825, 464.500 823.108 C 482.029 819.869, 496.462 806.707, 503.427 787.612 C 506.090 780.310, 506.274 777, 504.017 777 C 502.469 777, 499.211 782.797, 497.542 788.520 C 494.449 799.124, 486.612 807.636, 474.500 813.546 C 455.973 822.585, 436.631 819.160, 428.897 805.469 C 423.881 796.592, 422.595 789.407, 422.634 770.500 C 422.653 761.150, 422.989 751.813, 423.380 749.750 L 424.091 746 458.795 745.956 C 491.873 745.915, 501.029 745.371, 503.074 743.326 C 504.310 742.090, 500.697 729.323, 497.085 722.169 C 491.109 710.329, 481.841 700.487, 471.950 695.475 C 461.103 689.978, 446.409 688.538, 435.798 691.931 M 900 690.941 C 882.354 693.486, 866.976 702.657, 857.687 716.176 C 853.075 722.888, 848.541 735.254, 846.399 746.963 C 842.592 767.771, 849.519 789.418, 865 805.095 C 877.674 817.930, 891.806 824.084, 909 824.256 C 927.516 824.441, 939.861 819.361, 953.100 806.109 C 966.743 792.452, 973.057 777.553, 973.065 759 C 973.073 739.929, 965.234 718.465, 954.281 707.571 C 947.884 701.207, 934.345 693.953, 925.500 692.148 C 917.956 690.610, 906.169 690.051, 900 690.941 M 182 692.024 C 177.558 694.967, 169.038 696.356, 154.743 696.470 C 142.349 696.568, 139.715 696.856, 138.302 698.269 C 137.376 699.195, 136.966 700.301, 137.391 700.726 C 137.815 701.152, 143.189 701.725, 149.331 702 L 160.500 702.500 160.852 738.500 C 161.225 776.560, 160.345 811.824, 158.967 814.053 C 158.360 815.035, 155.812 815.322, 149.321 815.140 C 143.133 814.966, 139.951 815.297, 138.660 816.249 C 137.028 817.451, 136.992 817.748, 138.339 818.867 C 140.607 820.749, 207.321 820.808, 209.584 818.930 C 212.758 816.296, 208.545 815, 196.809 815 L 186 815 185.995 764.250 C 185.991 715.399, 185.358 690.983, 184.097 691.015 C 183.769 691.024, 182.825 691.478, 182 692.024 M 442.634 695.031 C 435.440 697.185, 429.364 703.489, 424.828 713.500 C 422.945 717.656, 422.558 720.273, 422.531 729 L 422.500 739.500 448.250 739.767 L 474 740.034 473.992 732.267 C 473.977 716.131, 470.246 703.776, 463.992 699.152 C 457.805 694.578, 449.496 692.975, 442.634 695.031 M 1297.137 695.279 C 1291.646 697.034, 1283.682 705.106, 1280.432 712.209 C 1277.851 717.849, 1277.550 719.587, 1277.526 729 L 1277.500 739.500 1295 739.811 C 1304.625 739.982, 1316.277 739.824, 1320.892 739.459 L 1329.285 738.797 1328.736 727.148 C 1328.095 713.549, 1325.676 705.742, 1320.497 700.564 C 1314.854 694.921, 1305.136 692.722, 1297.137 695.279 M 899.205 696.469 C 887.417 699.135, 880.443 705.588, 876.792 717.206 C 874.619 724.121, 874.502 726.009, 874.532 753.500 C 874.557 776.638, 874.913 784.385, 876.294 791.824 C 878.397 803.150, 879.591 805.590, 885.632 810.907 C 898.765 822.467, 925.785 821.544, 936.009 809.186 C 940.749 803.458, 942.980 794.638, 944.150 777 C 945.215 760.938, 944.624 736.304, 942.902 725 C 940.534 709.451, 936.116 702.041, 926.794 697.976 C 920.182 695.093, 908.184 694.438, 899.205 696.469" stroke="none" fill="black" fill-rule="evenodd"/>
</svg>