<svg xmlns="http://www.w3.org/2000/svg" width="450" height="99" viewBox="0 0 450 99" version="1.1">
	<path d="M 390.225 8.274 C 386.251 12.274, 383 16.230, 383 17.065 C 383 18.678, 412.990 49, 414.585 49 C 416.168 49, 446 18.578, 446 16.963 C 446 15.034, 431.935 1, 430.002 1 C 429.203 1, 425.501 4.025, 421.775 7.723 L 415 14.446 408.225 7.723 C 404.398 3.925, 400.580 1, 399.450 1 C 398.295 1, 394.395 4.075, 390.225 8.274 M 392.998 10.502 L 386.533 17.025 400.680 31.172 L 414.827 45.318 429.164 31.195 L 443.500 17.072 436.760 10.305 L 430.020 3.538 423.516 9.984 L 417.013 16.429 420.507 20.007 C 422.428 21.974, 424 24.259, 424 25.084 C 424 26.691, 416.040 35, 414.500 35 C 413.241 35, 405 26.832, 405 25.584 C 405 25.034, 406.675 22.869, 408.722 20.773 L 412.443 16.962 405.953 10.471 L 399.462 3.980 392.998 10.502 M 411.486 22.015 L 408.583 25.045 411.792 28.253 L 415 31.462 418.018 28.444 L 421.035 25.426 417.712 22.206 L 414.389 18.985 411.486 22.015 M 310.613 25.817 C 309.668 27.346, 298.050 95.272, 298.585 96.138 C 298.878 96.612, 301.783 97, 305.040 97 C 311.988 97, 310.911 99.444, 314.482 75.576 C 315.875 66.267, 317.157 58.509, 317.331 58.335 C 317.505 58.162, 321.405 66.452, 325.999 76.760 C 330.592 87.067, 334.795 96.084, 335.338 96.798 C 335.881 97.512, 337.246 97.962, 338.371 97.798 C 340.345 97.511, 343.294 91.624, 355.497 63.614 C 356.907 60.376, 358.231 57.901, 358.438 58.114 C 358.646 58.326, 359.984 66.150, 361.412 75.500 C 365.061 99.392, 363.999 97, 370.960 97 C 374.217 97, 377.139 96.584, 377.453 96.077 C 378.172 94.913, 366.168 26.801, 365.042 25.656 C 362.371 22.939, 360.289 26.105, 349.532 49.242 C 343.464 62.292, 338.275 72.976, 338 72.983 C 337.725 72.991, 332.810 62.760, 327.077 50.249 C 321.344 37.737, 316.226 26.938, 315.704 26.250 C 314.637 24.845, 311.385 24.568, 310.613 25.817 M 2.034 27.250 C 2.052 27.938, 10.085 44.025, 19.885 63 C 35.788 93.793, 37.960 97.500, 40.101 97.500 C 42.244 97.500, 44.391 93.819, 60.222 63 C 69.969 44.025, 77.957 27.919, 77.972 27.208 C 77.993 26.236, 76.079 25.988, 70.250 26.208 L 62.500 26.500 51.500 48.249 C 45.450 60.211, 40.267 69.998, 39.982 69.999 C 39.697 69.999, 34.530 60.100, 28.500 48 L 17.536 26 9.768 26 C 4.202 26, 2.010 26.354, 2.034 27.250 M 91.237 61.250 L 91.500 96.500 113.750 96.769 L 136 97.038 136 91.045 L 136 85.051 120.250 84.775 L 104.500 84.500 104.500 76 L 104.500 67.500 117.750 67.221 L 131 66.942 131 61.078 C 131 56.653, 130.612 55.065, 129.418 54.607 C 128.548 54.273, 122.454 54, 115.876 54 L 103.916 54 104.208 46.250 L 104.500 38.500 120.250 38.225 L 136 37.949 136 31.975 L 136 26 113.487 26 L 90.974 26 91.237 61.250 M 154.237 61.169 L 154.500 96.500 172 96.500 C 189.395 96.500, 189.535 96.482, 195.328 93.550 C 198.795 91.794, 203.345 88.235, 206.561 84.761 C 222.641 67.392, 217.054 40.031, 195.239 29.318 C 189.704 26.600, 188.868 26.488, 171.737 26.169 L 153.974 25.838 154.237 61.169 M 229.709 26.624 C 229.319 27.014, 229 37.978, 229 50.989 C 229 77.830, 229.588 80.978, 235.948 88.204 C 249.180 103.236, 272.749 100.520, 282.546 82.833 L 285.500 77.500 285.500 52 L 285.500 26.500 279 26.500 L 272.500 26.500 272 51 C 271.553 72.914, 271.300 75.796, 269.602 78.301 C 264.188 86.289, 250.812 86.289, 245.398 78.301 C 243.700 75.796, 243.447 72.914, 243 51 L 242.500 26.500 236.459 26.208 C 233.136 26.047, 230.099 26.234, 229.709 26.624 M 167.750 38.552 C 167.338 38.982, 167 49.383, 167 61.667 L 167 84 175.750 83.978 C 182.124 83.962, 185.586 83.453, 188.500 82.104 C 196.585 78.361, 201.200 70.657, 201.200 60.905 C 201.200 51.923, 196.416 44.323, 188.353 40.497 C 184.705 38.766, 168.970 37.280, 167.750 38.552" stroke="none" fill="black" fill-rule="evenodd"/>
</svg>