<svg xmlns="http://www.w3.org/2000/svg" width="1400" height="486" viewBox="0 0 1400 486" version="1.1">
	<path d="M 14 243 L 14 472 700 472 L 1386 472 1386 243 L 1386 14 700 14 L 14 14 14 243 M 131 142.500 L 131 163 143.893 163 C 153.287 163, 156.915 163.339, 157.262 164.250 C 157.523 164.938, 166.549 192.050, 177.320 224.500 C 188.090 256.950, 202.887 301.500, 210.201 323.500 L 223.500 363.500 249.114 363.767 C 277.022 364.057, 275.668 364.330, 277.714 358 C 279.351 352.938, 307.887 263.409, 316.122 237.500 C 319.968 225.400, 323.513 214.375, 324 213 C 324.487 211.625, 328.088 200.375, 332.003 188 C 335.917 175.625, 339.303 164.938, 339.528 164.250 C 339.821 163.355, 342.928 163, 350.469 163 L 361 163 361 142.500 L 361 122 315 122 L 269 122 269 142.500 L 269 163 281 163 C 287.600 163, 293 163.215, 293 163.478 C 293 163.742, 287.843 179.604, 281.539 198.728 C 275.235 217.853, 266.405 244.750, 261.916 258.500 C 257.426 272.250, 253.516 283.904, 253.226 284.398 C 252.936 284.892, 251.033 279.717, 248.996 272.898 C 241.657 248.326, 219.804 176.370, 217.923 170.585 C 216.865 167.332, 216 164.294, 216 163.835 C 216 163.376, 221.625 163, 228.500 163 L 241 163 241 142.500 L 241 122 186 122 L 131 122 131 142.500 M 380.667 122.667 C 380.300 123.033, 380 132.258, 380 143.167 L 380 163 392 163 L 404 163 404 242.500 L 404 322 390.980 322 L 377.959 322 378.230 342.750 L 378.500 363.500 476.250 363.755 L 574 364.010 574 325.505 L 574 287 552.750 287 L 531.500 287 531.705 304.500 L 531.911 322 497.455 322 L 463 322 463 290.500 C 463 273.175, 463.337 259.053, 463.750 259.118 C 464.163 259.184, 476.772 259.184, 491.771 259.118 L 519.041 259 518.771 238.750 L 518.500 218.500 490.750 218.234 L 463 217.968 463 190.471 L 463 162.974 497.250 163.237 L 531.500 163.500 531.711 181 L 531.922 198.500 552.961 198.770 L 574 199.040 574 160.520 L 574 122 477.667 122 C 424.683 122, 381.033 122.300, 380.667 122.667 M 601.667 122.667 C 601.300 123.033, 601 132.258, 601 143.167 L 601 163 617 163 L 633 163 633 242.475 L 633 321.949 617.250 322.225 L 601.500 322.500 601.500 343 L 601.500 363.500 696.250 363.755 L 791 364.010 791 325.505 L 791 287 770 287 C 758.450 287, 748.663 286.887, 748.250 286.750 C 747.837 286.613, 747.377 294.488, 747.227 304.250 L 746.954 322 718.971 322 L 690.988 322 691.244 242.750 L 691.500 163.500 707.750 163.225 L 724 162.950 724 142.475 L 724 122 663.167 122 C 629.708 122, 602.033 122.300, 601.667 122.667 M 789 142.491 L 789 163 801.951 163 L 814.903 163 815.244 235.250 C 815.576 305.661, 815.639 307.671, 817.711 314.212 C 828.766 349.112, 856.636 365.982, 903.261 365.996 C 943.673 366.008, 973.700 351.886, 985.114 327.500 C 991.597 313.650, 991.376 316.686, 991.759 236.250 L 992.107 163 1003.054 163 L 1014 163 1014 142.489 L 1014 121.978 971.750 122.239 L 929.500 122.500 929.229 142.750 L 928.959 163 939.019 163 L 949.079 163 948.789 230.750 L 948.500 298.500 946.099 304.462 C 943.002 312.152, 936.045 319.045, 928.262 322.135 C 923.339 324.090, 920.681 324.423, 910 324.422 C 899.350 324.421, 896.809 324.104, 892.830 322.280 C 882.661 317.619, 876.077 308.372, 874.055 295.910 C 873.414 291.960, 873.012 265.228, 873.008 226.250 L 873 163 883.021 163 L 893.041 163 892.771 142.750 L 892.500 122.500 840.750 122.241 L 789 121.982 789 142.491 M 1033 142.491 L 1033 163 1042.916 163 L 1052.832 163 1055.733 166.750 C 1066.154 180.219, 1107.084 239.317, 1106.672 240.298 C 1106.394 240.959, 1094.286 259.500, 1079.764 281.500 L 1053.360 321.500 1040.430 322 L 1027.500 322.500 1027.500 343 L 1027.500 363.500 1075.250 363.760 L 1123 364.019 1123 344.542 L 1123 325.066 1111.999 324.783 L 1100.999 324.500 1116.997 300.501 C 1125.796 287.301, 1133.334 276.400, 1133.748 276.277 C 1134.161 276.153, 1141.981 286.952, 1151.124 300.276 L 1167.748 324.500 1156.353 324.782 L 1144.957 325.064 1145.229 344.282 L 1145.500 363.500 1201.750 363.758 L 1258 364.017 1258 343.037 L 1258 322.056 1244.340 321.778 L 1230.680 321.500 1202.840 282.223 C 1187.528 260.621, 1175 242.476, 1175 241.901 C 1175 241.326, 1186.750 223.338, 1201.112 201.928 L 1227.224 163 1242.612 163 L 1258 163 1258 142.500 L 1258 122 1208.500 122 L 1159 122 1159 141.500 L 1159 161 1169.002 161 L 1179.005 161 1164.342 183 C 1156.278 195.100, 1149.414 204.973, 1149.090 204.941 C 1148.765 204.908, 1141.385 195.121, 1132.689 183.191 L 1116.878 161.500 1127.461 161.216 L 1138.043 160.932 1137.771 141.716 L 1137.500 122.500 1085.250 122.241 L 1033 121.982 1033 142.491 M 1277.355 205.979 C 1253.791 210.986, 1241.150 238.360, 1252.229 260.392 C 1255.254 266.408, 1262.670 273.690, 1268.875 276.738 C 1273.982 279.246, 1275.512 279.500, 1285.500 279.500 C 1295.331 279.500, 1297.105 279.216, 1302.196 276.830 C 1309.501 273.406, 1316.457 266.427, 1319.770 259.196 C 1323.161 251.797, 1323.970 239.848, 1321.626 231.785 C 1318.479 220.961, 1309.172 210.956, 1299.033 207.497 C 1293.398 205.575, 1282.763 204.830, 1277.355 205.979 M 1274.385 214.617 C 1258.490 220.255, 1250.979 240.486, 1258.717 256.824 C 1264.751 269.564, 1282.020 276.279, 1296.266 271.425 C 1302.365 269.347, 1309.456 262.979, 1312.749 256.623 C 1316.326 249.720, 1316.625 236.948, 1313.375 229.911 C 1310.601 223.906, 1304.945 218.349, 1298.602 215.395 C 1292.576 212.589, 1281.139 212.222, 1274.385 214.617 M 1273 242.500 L 1273 263 1277 263 L 1281 263 1281 254.500 C 1281 243.897, 1282.396 243.401, 1287.747 252.107 C 1294.067 262.392, 1294.699 263, 1299.073 263 C 1301.233 263, 1303 262.689, 1303 262.308 C 1303 261.927, 1300.684 258.088, 1297.853 253.776 C 1292.920 246.263, 1292.785 245.876, 1294.603 244.500 C 1295.646 243.710, 1296.826 243.049, 1297.224 243.032 C 1298.559 242.973, 1301 237.133, 1301 234 C 1301 225.465, 1295.542 222, 1282.099 222 L 1273 222 1273 242.500 M 1281 234.243 L 1281 240 1284.777 240 C 1289.770 240, 1293 237.669, 1293 234.066 C 1293 230.369, 1291.503 229.292, 1285.750 228.850 L 1281 228.486 1281 234.243" stroke="none" fill="black" fill-rule="evenodd"/>
</svg>