<svg xmlns="http://www.w3.org/2000/svg" width="1200" height="782" viewBox="0 0 1200 782" version="1.1">
	<path d="M 812.330 3.750 C 811.467 5.813, 805.383 21.900, 798.809 39.500 C 756.976 151.500, 759.918 144.107, 755.114 149.277 C 748.120 156.805, 731.722 170.005, 722.202 175.771 C 709.750 183.312, 697.727 186.961, 682.871 187.708 C 665.476 188.583, 663.764 187.426, 662.592 174 C 662.279 170.425, 661.990 132.791, 661.949 90.368 C 661.869 7.616, 661.862 7.750, 666.850 5.080 C 667.960 4.486, 672.948 4, 677.934 4 C 683.311 4, 687 3.593, 687 3 C 687 2.450, 686.663 1.931, 686.250 1.847 C 684.307 1.449, 614.346 1.371, 613.250 1.765 C 609.739 3.027, 612.924 4, 620.566 4 C 625.277 4, 629.987 4.458, 631.032 5.017 C 632.077 5.576, 633.374 7.714, 633.915 9.767 C 635.474 15.688, 636.559 171.152, 635.090 178.138 C 633.345 186.440, 631.795 187.431, 619.897 187.844 C 614.454 188.033, 610 188.595, 610 189.094 C 610 189.622, 628.374 190, 654.018 190 C 694.904 190, 698.587 189.857, 705.768 187.987 C 716.336 185.236, 732.348 177.185, 742.535 169.502 C 747.191 165.990, 751 163.327, 751 163.584 C 751 165.003, 743.727 178.171, 741.446 180.882 C 737.549 185.513, 733.974 186.987, 724.953 187.683 C 706.726 189.089, 718.152 190, 754 190 C 779.157 190, 791.908 189.660, 791.500 189 C 791.144 188.423, 785.812 188, 778.909 188 C 765.617 188, 761.249 186.835, 758.435 182.541 C 756.245 179.198, 756.251 171.802, 758.452 162.345 L 760.117 155.190 774.809 141.775 C 805.892 113.391, 816.852 104.125, 830.306 94.857 C 834.198 92.176, 837.715 90.324, 838.121 90.741 C 839.263 91.914, 862.370 152.276, 865.869 163.226 C 867.578 168.575, 869.262 175.382, 869.612 178.353 C 870.160 183.022, 869.959 184.041, 868.123 185.877 C 866.195 187.805, 864.899 188, 854 188 C 846.667 188, 842 188.389, 842 189 C 842 189.651, 856.667 190, 884 190 C 911.333 190, 926 189.651, 926 189 C 926 188.440, 923.249 187.999, 919.750 187.998 C 904.534 187.995, 901.714 183.266, 874.476 112.099 C 859.748 73.618, 859.796 77.388, 873.999 74.054 C 894.581 69.222, 906.604 70.257, 938.500 79.609 C 960.644 86.101, 967.001 89.177, 976.230 97.867 C 986.352 107.398, 988.182 115.235, 983.500 129 C 980.598 137.531, 980.400 140.939, 982.562 145.119 C 984.052 148.002, 983.984 148.437, 981.062 154.682 C 977.704 161.857, 977.435 163.797, 979.145 168.524 C 980.143 171.285, 980.005 172.074, 978.064 174.699 C 976.653 176.608, 975.960 178.768, 976.170 180.604 C 976.460 183.146, 976.950 183.537, 980.180 183.806 C 985.017 184.209, 990.513 181.337, 995.724 175.684 C 1008.837 161.457, 1010.568 140.368, 1000.245 120.603 C 993.164 107.047, 970.445 86.312, 953.837 78.248 C 945.814 74.353, 944.924 73, 950.383 73 C 956.542 73, 974.068 69.946, 979.436 67.938 C 989.022 64.352, 995.906 57.921, 1001.315 47.500 C 1010.123 30.531, 1003.649 14.963, 994.023 29.965 C 992.138 32.902, 989.153 35.880, 986.750 37.223 C 983.754 38.897, 982.317 40.543, 981.326 43.434 C 979.732 48.085, 977.320 51, 975.068 51 C 972.120 51, 968.995 54.067, 966.078 59.822 C 961.336 69.179, 959.955 70.003, 947.884 70.677 C 938.733 71.188, 936.016 70.915, 925 68.378 C 913.563 65.745, 910.969 65.508, 894.500 65.598 C 878.437 65.685, 875.547 65.967, 867.645 68.219 L 858.791 70.743 857.356 67.310 C 856.567 65.422, 850.723 50.298, 844.369 33.702 C 838.015 17.105, 832.392 2.733, 831.873 1.763 C 831.085 0.291, 829.525 0, 822.414 0 L 813.898 0 812.330 3.750 M 192.246 2.250 C 192.529 3.106, 196.104 3.658, 203.580 4 C 209.843 4.287, 215.482 5.060, 216.803 5.814 C 222.300 8.949, 227.948 20.961, 242.043 59.500 C 247.072 73.250, 258.751 105.200, 267.997 130.500 C 292.690 198.069, 289.837 191.157, 292.886 190.803 C 295.788 190.467, 294.790 193.129, 330.884 89.500 C 346.616 44.333, 355.845 20.790, 361.016 12.635 C 365.797 5.098, 368.485 4.008, 382.316 4.004 C 388.875 4.002, 395.030 4.481, 396.150 5.080 C 397.261 5.675, 398.908 7.812, 399.810 9.830 C 401.296 13.151, 401.423 21.007, 401.152 92.500 C 400.988 135.950, 400.456 174.425, 399.970 178 C 398.746 187, 397.339 188, 385.889 188 C 380.630 188, 377 188.408, 377 189 C 377 189.649, 390.333 190, 415 190 C 437.047 190, 453 189.620, 453 189.094 C 453 188.595, 448.512 188.033, 443.026 187.844 C 431.167 187.435, 429.618 186.422, 427.959 177.992 C 426.858 172.395, 427.444 24.447, 428.612 13.168 C 429.449 5.084, 431.042 4, 442.083 4 C 448.906 4, 451.063 3.689, 450.750 2.750 C 450.424 1.770, 435.598 1.436, 382.167 1.203 C 341.426 1.025, 314 1.274, 314 1.820 C 314 2.323, 319.787 2.944, 326.860 3.199 C 337.884 3.597, 340.229 3.979, 343.296 5.874 C 349.950 9.986, 350.468 18.503, 345.164 36.576 C 340.182 53.552, 307.504 146.970, 306.643 146.699 C 305.447 146.322, 267.607 49.181, 260.628 28.569 C 256.862 17.449, 255.003 10.429, 255.200 8.077 L 255.500 4.500 267.250 4.218 C 276.787 3.990, 279 3.660, 279 2.468 C 279 1.200, 273.072 1, 235.417 1 C 200.996 1, 191.920 1.263, 192.246 2.250 M 465.496 1.837 C 463.932 3.401, 465.949 3.955, 474.146 4.212 C 488.847 4.675, 487.354 -3.890, 488.284 85.323 C 489.100 163.530, 488.864 176.997, 486.581 182.461 C 484.824 186.665, 481.033 188, 470.851 188 C 466.248 188, 463 188.417, 463 189.007 C 463 189.675, 486.100 189.927, 531.750 189.757 L 600.500 189.500 600.766 161.250 C 600.996 136.716, 600.834 133, 599.535 133 C 598.712 133, 597.823 134.013, 597.560 135.250 C 593.491 154.396, 589.004 167.142, 583.318 175.709 C 578.466 183.018, 574.448 185.868, 567.360 187.029 C 559.769 188.272, 523.884 188.287, 520.626 187.048 C 515.473 185.089, 515.606 187.001, 514.716 102 C 513.809 15.471, 514.021 10.124, 518.506 6.250 C 520.815 4.256, 522.197 4, 530.639 4 C 537.817 4, 540.064 3.692, 539.750 2.750 C 539.427 1.782, 531.053 1.482, 502.663 1.420 C 482.495 1.376, 465.770 1.564, 465.496 1.837 M 809.216 21.699 C 808.658 23.240, 800.245 45.875, 790.521 72 C 767.410 134.087, 765.993 138, 766.605 138 C 766.890 138, 771.483 133.786, 776.812 128.634 C 796.734 109.376, 818.439 91.515, 830.533 84.428 L 834.927 81.853 832.584 75.676 C 829.699 68.074, 820.489 44.079, 815.103 30.133 C 812.901 24.431, 810.904 19.571, 810.665 19.332 C 810.427 19.093, 809.775 20.158, 809.216 21.699 M 416.095 215.574 C 409.842 220.835, 409.553 230.753, 415.479 236.679 C 418.249 239.449, 419.541 240, 423.265 240 C 430.520 240, 436 234.191, 436 226.500 C 436 215.436, 424.053 208.878, 416.095 215.574 M 463.526 216.274 C 454.852 224.948, 460.034 240, 471.694 240 C 475.636 240, 476.748 239.487, 480.118 236.118 C 483.518 232.717, 484 231.656, 484 227.568 C 484 218.811, 478.920 213, 471.265 213 C 467.554 213, 466.247 213.553, 463.526 216.274 M 435.258 274.027 C 392.855 278.347, 354.444 305.197, 334.259 344.625 C 309.450 393.084, 311.694 454.192, 339.933 499.144 C 371.640 549.616, 431.328 571.679, 485 552.765 C 530.306 536.800, 563.328 497.897, 574.192 447.688 C 577.220 433.692, 577.450 401.583, 574.630 386.500 C 566.401 342.486, 540.783 306.035, 505.140 287.626 C 483.683 276.544, 458.551 271.653, 435.258 274.027 M 81.137 275.083 C 37.593 279.937, 6.785 306.463, 0.899 344.170 C -0.659 354.147, 0.292 370.839, 2.883 379 C 8.761 397.512, 22.940 412.118, 47.471 424.932 C 51.856 427.222, 64.681 433.187, 75.971 438.187 C 113.336 454.734, 123.797 460.742, 133.672 471.323 C 143.142 481.472, 146.930 491.079, 146.976 505.066 C 147.085 538.792, 126.353 557.525, 91 555.645 C 71.304 554.598, 55.916 547.872, 42.486 534.442 C 25.496 517.453, 14.593 489.177, 12.243 456.012 C 11.593 446.841, 11.262 445.478, 9.607 445.161 C 7.765 444.808, 7.731 445.908, 8.371 485.149 C 8.733 507.342, 9.303 530.297, 9.637 536.160 L 10.246 546.819 13.873 547.792 C 51.627 557.922, 57.546 558.915, 84.500 559.641 C 107.226 560.254, 117.754 558.823, 132.530 553.116 C 154.868 544.488, 172.231 527.755, 180.272 507.103 C 188.200 486.744, 187.866 462.535, 179.428 445.846 C 169.640 426.488, 152.613 414.396, 107.584 394.824 C 64.617 376.149, 49.378 365.710, 41.435 349.511 C 35.935 338.293, 34.844 329.119, 37.514 316.517 C 41.533 297.543, 54.280 285.239, 74.697 280.626 C 85.146 278.265, 105.204 278.452, 115.333 281.004 C 136.682 286.384, 154.317 302.640, 162.874 324.830 C 168.515 339.456, 169.952 346.657, 173.635 378.750 C 174.032 382.207, 174.505 383, 176.169 383 C 178.132 383, 178.192 382.599, 177.628 373.250 C 177.304 367.887, 176.796 350.450, 176.499 334.500 C 176.202 318.550, 175.689 300.894, 175.361 295.264 L 174.763 285.029 171.132 283.990 C 163.219 281.726, 137.924 277.119, 128 276.134 C 111.855 274.531, 90.402 274.050, 81.137 275.083 M 544 278.912 C 544 280.700, 545.027 280.846, 559.838 281.162 C 575.372 281.493, 575.756 281.555, 579.786 284.350 C 587.322 289.576, 594.030 302.153, 605.470 332.500 C 611.429 348.309, 623.573 381.438, 660.453 482.500 C 674.502 521, 686.384 553.175, 686.858 554 C 687.381 554.912, 689.182 555.500, 691.454 555.500 L 695.191 555.500 701.507 537.500 C 704.981 527.600, 717.570 491.600, 729.482 457.500 C 774.646 328.219, 774.436 328.789, 785.335 305.704 C 792.175 291.217, 795.546 286.832, 802.292 283.646 C 807.006 281.420, 809.147 281.135, 824.880 280.634 C 845.976 279.963, 848.003 280.508, 851.213 287.716 C 852.726 291.116, 853.527 295.538, 853.978 303 C 854.740 315.582, 853.376 526.911, 852.477 535.500 C 851.738 542.565, 849.865 546.966, 846.750 548.957 C 845.204 549.945, 840.509 550.527, 831.750 550.816 C 821.771 551.145, 819 551.537, 819 552.618 C 819 553.777, 827.870 554, 874 554 C 919.849 554, 929 553.773, 929 552.633 C 929 551.571, 926.121 551.162, 916.130 550.801 C 898.214 550.154, 895.334 548.307, 892.993 535.963 C 891.859 529.984, 891.809 425.251, 892.900 343.500 C 893.504 298.304, 893.842 289.967, 895.198 286.881 C 897.922 280.683, 899.810 280, 914.223 280 C 924.914 280, 927 279.755, 927 278.500 C 927 277.176, 915 277, 825 277 C 723.667 277, 723 277.013, 723 279 C 723 280.926, 723.674 281.001, 741.250 281.022 C 764.396 281.050, 768.379 282.483, 772.462 292.254 C 776.779 302.586, 773.100 317.570, 749.691 385 C 731.192 438.286, 721.744 465.637, 717.308 478.750 C 714.842 486.038, 712.430 492, 711.948 492 C 710.597 492, 710.630 492.079, 687.005 431.500 C 674.779 400.150, 661.521 366.175, 657.543 356 C 648.404 332.626, 636.093 295.585, 635.334 289.174 C 634.433 281.565, 635.807 281, 655.223 281 C 670.333 281, 671 280.915, 671 279 C 671 277.021, 670.333 277, 607.500 277 C 545.639 277, 544 277.049, 544 278.912 M 938.496 278.007 C 937.527 279.574, 939.549 279.872, 953.500 280.221 C 970.523 280.646, 972.619 282.038, 974.906 294.434 C 976.134 301.091, 976.217 364.809, 975.139 472.500 C 974.498 536.577, 974.382 539.675, 972.484 543.500 C 969.447 549.623, 965.740 550.997, 952.250 550.998 C 942.917 551, 941 551.256, 941 552.500 C 941 553.815, 947.778 554, 996 554 C 1041.894 554, 1051 553.773, 1051 552.630 C 1051 551.561, 1048.034 551.160, 1037.468 550.802 C 1026.007 550.413, 1023.521 550.039, 1021.218 548.357 C 1014.130 543.178, 1012.768 532.715, 1013.617 490 L 1014.204 460.500 1028.682 438.688 L 1043.160 416.876 1048.830 417.551 C 1057.196 418.546, 1060.602 420.563, 1066.032 427.736 C 1072.799 436.675, 1079.292 449.765, 1089.972 476 C 1104.992 512.895, 1120.765 543.953, 1127.475 549.844 C 1129.390 551.525, 1132.429 553.166, 1134.229 553.490 C 1139.895 554.509, 1199.524 553.602, 1199.265 552.500 C 1199.135 551.950, 1194.387 551.257, 1188.714 550.959 C 1175.271 550.254, 1169.938 547.528, 1162.220 537.417 C 1156.416 529.812, 1143.820 505.082, 1133.484 481 C 1115.072 438.097, 1103.600 421.738, 1085.224 412.177 C 1077.006 407.902, 1063.424 404.019, 1056.643 404.007 C 1053.672 404.002, 1052.915 403.664, 1053.347 402.538 C 1054.223 400.256, 1097.434 335.789, 1106.325 323.500 C 1117.255 308.393, 1130.051 292.961, 1134.395 289.648 C 1136.384 288.131, 1141.046 285.463, 1144.756 283.720 C 1151.108 280.735, 1152.299 280.528, 1165.250 280.162 C 1176.118 279.854, 1179 279.482, 1179 278.387 C 1179 277.222, 1170.443 277, 1125.500 277 C 1078.611 277, 1072 277.185, 1072 278.500 C 1072 279.755, 1074.086 280.001, 1084.750 280.006 C 1091.763 280.009, 1099.167 280.474, 1101.205 281.040 C 1111.525 283.906, 1111.779 295.158, 1101.983 315.500 C 1096.172 327.567, 1089.270 338.593, 1050.277 398.098 L 1014.500 452.696 1014.244 414.598 C 1013.893 362.411, 1015.377 290.359, 1016.882 286.449 C 1018.948 281.084, 1022.230 280, 1036.404 280 C 1046.934 280, 1049 279.754, 1049 278.500 C 1049 277.185, 1042.229 277, 994.059 277 C 958.254 277, 938.901 277.351, 938.496 278.007 M 437.500 278.559 C 436.400 278.812, 433.025 279.510, 430 280.109 C 394.413 287.159, 371.017 319.189, 362.389 372.672 C 360.233 386.040, 359.358 431.833, 360.936 448.770 C 366.431 507.744, 386.821 541.967, 422.535 552.162 C 433.200 555.206, 454.863 555.437, 465.500 552.619 C 502.162 542.907, 523.965 511.979, 532.553 457.500 C 534.750 443.559, 535.564 406.046, 534.070 387.536 C 532.041 362.388, 527.604 342.127, 520.526 325.681 C 515.273 313.477, 511.143 307.260, 502.487 298.529 C 496.160 292.146, 492.689 289.570, 485.987 286.283 C 481.319 283.994, 474.800 281.394, 471.500 280.505 C 465.710 278.945, 441.769 277.575, 437.500 278.559 M 202 280.376 C 202 281.475, 204.794 281.857, 215.250 282.188 C 234.286 282.791, 237 284.683, 238.927 298.691 C 240.280 308.527, 239.441 610.483, 238.036 619.274 C 236.185 630.861, 233.481 636.488, 225.958 644.407 C 222.213 648.349, 216.429 653.133, 213.105 655.037 C 209.387 657.167, 207.048 659.174, 207.030 660.250 C 206.987 662.773, 208.294 662.472, 216.847 657.988 C 235.499 648.209, 250.413 631.374, 262.458 606.500 C 268.868 593.263, 272.261 582.043, 274.962 565.148 C 276.878 553.166, 277.031 545.730, 277.864 424 C 278.818 284.414, 278.611 288.876, 284.336 284.596 C 286.778 282.769, 288.808 282.457, 300.126 282.169 C 309.473 281.931, 313.004 281.511, 312.723 280.669 C 312.434 279.800, 298.186 279.434, 257.167 279.242 C 210.563 279.023, 202 279.199, 202 280.376 M 489.271 617.964 C 486.829 619.072, 484.189 621.282, 483.024 623.192 C 480.620 627.135, 480.332 634.807, 482.435 638.875 C 484.007 641.913, 489.490 646.941, 495.975 651.288 C 505.093 657.401, 504.753 668.830, 495.400 670.585 C 490.727 671.461, 486.020 668.291, 482.562 661.936 C 478.959 655.316, 477.273 656.474, 478.583 664.671 C 479.396 669.757, 479.897 670.640, 483 672.454 C 485.553 673.947, 488.258 674.500, 493 674.500 C 500.605 674.500, 505.188 672.314, 508.834 666.946 C 510.815 664.030, 511.116 662.540, 510.791 657.261 C 510.312 649.493, 508.590 646.994, 499.465 640.833 C 490.790 634.976, 489 632.774, 489 627.962 C 489 623.416, 492.533 620, 497.235 620 C 500.511 620, 507 625.582, 507 628.400 C 507 629.280, 507.675 630, 508.500 630 C 510.085 630, 510.561 624.695, 509.374 620.266 C 508.218 615.955, 496.621 614.627, 489.271 617.964 M 581.500 617.523 C 578.750 618.287, 576.199 618.932, 575.831 618.956 C 575.462 618.980, 572.673 621.274, 569.633 624.053 C 563.008 630.107, 560 636.961, 560 646 C 560 665.788, 576.130 677.627, 598.225 674.056 C 607.319 672.587, 610.671 671.271, 609.163 669.763 C 608.508 669.108, 608 665.643, 608 661.835 C 608 656.094, 608.303 654.908, 610 654 C 611.100 653.411, 612 652.328, 612 651.593 C 612 650.554, 609.628 650.284, 601.333 650.379 C 589.714 650.511, 586.627 652.015, 593.935 653.983 L 598 655.077 598 662.003 C 598 667.828, 597.692 669.094, 596.066 669.965 C 591.477 672.420, 582.896 670.131, 577.877 665.113 C 569.381 656.616, 568.663 635.496, 576.553 626.119 C 579.921 622.117, 586.745 619.598, 592.474 620.244 C 598.373 620.909, 601.861 623.311, 603.867 628.089 C 604.765 630.229, 606.063 631.984, 606.750 631.990 C 608.105 632.001, 608.437 626.433, 607.392 621.209 C 606.824 618.370, 606.370 618.096, 600.560 617.084 C 592.551 615.689, 587.703 615.801, 581.500 617.523 M 363 617.664 C 358.272 618.310, 357.069 619.695, 360.201 620.886 C 361.590 621.415, 363.014 622.593, 363.364 623.505 C 363.714 624.417, 364 634.315, 364 645.500 C 364 656.685, 363.714 666.583, 363.364 667.495 C 363.014 668.407, 361.664 669.558, 360.364 670.052 C 359.064 670.546, 358 671.585, 358 672.361 C 358 673.524, 360.855 673.745, 374.250 673.616 C 388.394 673.480, 391.090 673.190, 395.051 671.374 C 406.030 666.343, 411.973 657.396, 411.990 645.876 C 412.008 633.526, 407.556 625.876, 397.457 620.904 C 391.587 618.015, 390.270 617.773, 378.820 617.490 C 372.044 617.323, 364.925 617.401, 363 617.664 M 426.417 617.917 C 425.508 618.826, 426.078 620, 427.429 620 C 428.214 620, 429.564 620.707, 430.429 621.571 C 431.764 622.907, 431.998 626.479, 431.985 645.321 C 431.976 657.520, 431.639 668.017, 431.235 668.649 C 430.831 669.281, 429.380 669.956, 428.010 670.149 C 426.641 670.342, 425.392 671.175, 425.236 672 C 424.990 673.293, 427.722 673.501, 445.002 673.510 L 465.052 673.519 466.112 669.584 C 467.594 664.081, 467.692 660.787, 466.387 660.322 C 465.775 660.103, 464.693 661.326, 463.984 663.040 C 461.992 667.848, 458.948 669.285, 450.858 669.234 C 446.971 669.210, 443.300 668.700, 442.701 668.101 C 442.065 667.465, 441.588 662.750, 441.556 656.780 C 441.493 645.217, 441.472 645.244, 449.604 646.463 C 453.441 647.039, 454.072 647.499, 454.783 650.241 C 455.228 651.959, 456.134 653.545, 456.796 653.765 C 457.676 654.059, 458 651.721, 458 645.083 C 458 637.676, 457.723 636, 456.500 636 C 455.675 636, 455 636.810, 455 637.800 C 455 640.880, 452.814 642, 446.800 642 L 441 642 441 633.082 C 441 621.490, 441.222 621, 446.482 621 C 454.613 621, 456.935 621.953, 459.087 626.170 C 461.428 630.758, 463.005 630.362, 462.986 625.191 C 462.956 617.070, 463.999 617.500, 444.365 617.500 C 434.723 617.500, 426.646 617.688, 426.417 617.917 M 525 618.517 C 525 619.213, 526.071 620.052, 527.381 620.381 C 528.707 620.714, 530.029 621.979, 530.367 623.239 C 531.146 626.146, 531.161 664.798, 530.384 667.694 C 530.053 668.929, 528.858 670.021, 527.648 670.194 C 526.467 670.362, 525.500 671.159, 525.500 671.965 C 525.500 673.150, 527.465 673.452, 535.750 673.544 C 543.757 673.633, 546 673.361, 546 672.304 C 546 671.560, 544.936 670.546, 543.636 670.052 C 542.336 669.558, 540.986 668.407, 540.636 667.495 C 539.827 665.385, 539.824 626.259, 540.633 623.239 C 540.971 621.979, 542.293 620.714, 543.619 620.381 C 544.929 620.052, 546 619.213, 546 618.517 C 546 617.575, 543.307 617.250, 535.500 617.250 C 527.693 617.250, 525 617.575, 525 618.517 M 623 618.619 C 623 619.358, 624.135 620.247, 625.523 620.595 C 630.529 621.852, 631 623.872, 631 644.098 C 631 665.988, 630.603 668.820, 627.359 670.053 C 626.062 670.547, 625 671.524, 625 672.225 C 625 673.154, 627.310 673.516, 633.500 673.559 C 642.599 673.622, 644.561 672.336, 639.250 669.792 C 637.061 668.743, 636.362 667.558, 635.824 663.987 C 634.854 657.546, 634.846 632, 635.815 632 C 636.263 632, 644.362 641.661, 653.814 653.469 C 665.963 668.648, 671.438 674.769, 672.499 674.362 C 673.778 673.871, 674.002 670.069, 674.015 648.643 C 674.024 634.814, 674.361 622.998, 674.765 622.385 C 675.169 621.771, 676.513 620.954, 677.750 620.567 C 678.987 620.181, 680 619.270, 680 618.542 C 680 617.545, 677.785 617.212, 671 617.190 C 664.230 617.169, 662 617.487, 662 618.473 C 662 619.193, 663.112 620.062, 664.471 620.403 C 668.551 621.427, 669.071 623.852, 668.775 640.482 L 668.500 656.001 657.393 642.751 C 651.284 635.463, 644.403 626.811, 642.101 623.524 L 637.916 617.548 630.458 617.412 C 624.815 617.309, 623 617.603, 623 618.619 M 723.750 617.669 C 719.599 618.169, 718.538 620.653, 722.250 621.180 L 724.500 621.500 724.768 645.296 L 725.036 669.091 721.973 670.159 C 720.288 670.747, 719.080 671.739, 719.288 672.364 C 719.549 673.146, 724.316 673.492, 734.584 673.476 C 748.565 673.453, 749.782 673.296, 754 670.970 C 759.848 667.746, 762.239 663.245, 761.736 656.408 C 761.282 650.228, 758.260 645.585, 753.593 643.897 L 750.245 642.687 754.123 638.998 C 757.426 635.856, 758 634.687, 758 631.105 C 758 621.240, 752.804 617.775, 737.500 617.437 C 732 617.316, 725.813 617.420, 723.750 617.669 M 771.596 617.737 C 770.385 618.948, 771.076 619.831, 774.041 620.865 C 776.676 621.783, 777.967 623.772, 783.682 635.712 C 789.762 648.415, 790.319 650.137, 790.758 657.596 C 791.286 666.562, 790.294 669.677, 786.752 670.180 C 785.513 670.356, 784.500 671.175, 784.500 672 C 784.500 673.236, 786.435 673.517, 795.500 673.601 C 801.550 673.657, 806.859 673.504, 807.299 673.262 C 808.581 672.555, 805.930 670, 803.913 670 C 800.791 670, 799.738 666.357, 800.183 657.101 C 800.579 648.875, 800.852 648.020, 806.444 637.500 C 813.877 623.514, 815.408 621.365, 818.489 620.592 C 819.870 620.246, 821 619.351, 821 618.604 C 821 617.575, 819.056 617.237, 813 617.210 C 806.948 617.184, 805 617.503, 805 618.520 C 805 619.260, 805.900 620.151, 807 620.500 C 808.100 620.849, 809 621.707, 809 622.406 C 809 624.434, 799.158 644, 798.138 644 C 796.814 644, 787.791 622.987, 788.416 621.359 C 788.703 620.612, 789.664 620, 790.552 620 C 791.440 620, 791.980 619.438, 791.751 618.750 C 791.320 617.454, 772.809 616.524, 771.596 617.737 M 374.153 622.316 C 373.196 623.468, 372.962 629.024, 373.193 645.011 C 373.496 665.880, 373.534 666.207, 375.861 668.090 C 377.287 669.244, 379.774 670, 382.143 670 C 394.699 670, 401.865 659.387, 400.776 642.407 C 399.933 629.279, 393.224 622.078, 381.012 621.195 C 376.844 620.893, 375.097 621.179, 374.153 622.316 M 735 631.031 C 735 642.296, 735.452 642.996, 741.456 641.015 C 746.058 639.496, 748 636.583, 748 631.201 C 748 625.429, 743.909 621, 738.577 621 L 735 621 735 631.031 M 735 655.364 C 735 664.856, 735.227 666.227, 737.113 668.113 C 738.762 669.762, 739.998 670.100, 742.756 669.652 C 750.262 668.434, 753.615 661.517, 750.568 653.538 C 748.592 648.364, 745.654 646.189, 739.508 645.346 L 735 644.728 735 655.364 M 267.800 724.187 C 261.179 725.033, 253.629 728.598, 249.860 732.657 C 242.859 740.197, 240.368 751.872, 243.477 762.572 C 245.817 770.627, 253.117 778.079, 260.932 780.392 C 267.337 782.288, 275.858 782.459, 282.905 780.833 C 287.547 779.761, 288.084 779.330, 289.445 775.583 C 292.687 766.654, 291.181 763.468, 286.795 769.976 C 285.507 771.888, 282.888 774.515, 280.976 775.815 C 275.923 779.248, 267.533 778.591, 262.294 774.350 C 251.189 765.362, 249.877 742.887, 259.874 732.891 C 268.530 724.235, 282.423 726.231, 286.198 736.672 C 288.500 743.038, 290.366 740.360, 289.425 732.040 C 288.875 727.183, 288.355 725.930, 286.665 725.394 C 282.465 724.061, 273.351 723.478, 267.800 724.187 M 637.723 724.140 C 623.558 726.221, 614.057 739.647, 615.230 755.925 C 616.312 770.938, 625.754 780.749, 640.108 781.776 C 652.366 782.653, 662.394 776.901, 667.338 766.156 C 670.440 759.414, 670.368 746.437, 667.189 739.500 C 664.622 733.898, 659.958 728.592, 655.591 726.307 C 651.689 724.265, 643.576 723.281, 637.723 724.140 M 931.800 724.091 C 921.240 725.618, 913.624 730.901, 908.867 740 C 906.907 743.750, 906.513 746.001, 906.507 753.500 C 906.501 761.635, 906.788 763.021, 909.500 767.923 C 915.198 778.224, 925.139 782.709, 939.967 781.670 C 944.660 781.342, 950.191 780.584, 952.259 779.987 C 955.518 779.045, 955.883 778.651, 955.009 777.016 C 954.454 775.980, 954 772.166, 954 768.541 C 954 762.390, 954.171 761.886, 956.560 760.977 C 961.490 759.103, 957.895 758, 946.858 758 C 935.332 758, 933.063 759.127, 940.044 761.383 C 943.499 762.500, 943.500 762.502, 943.799 769.410 C 944.010 774.263, 943.712 776.566, 942.799 777.145 C 940.777 778.428, 933.281 778.144, 929.702 776.649 C 913.826 770.015, 912.495 737.440, 927.782 729.630 C 937.162 724.837, 947.510 728.246, 950.912 737.250 C 951.483 738.763, 952.412 740, 952.975 740 C 954.102 740, 954.350 732.998, 953.392 728.211 C 952.813 725.317, 952.490 725.140, 946.642 724.514 C 943.264 724.152, 939.825 723.724, 939 723.562 C 938.175 723.400, 934.935 723.638, 931.800 724.091 M 322.750 726.324 C 321.238 727.562, 320 729.108, 320 729.758 C 320 731.813, 305.153 773.118, 303.517 775.615 C 302.657 776.927, 301.064 778, 299.977 778 C 298.886 778, 298 778.672, 298 779.500 C 298 780.716, 299.611 781, 306.500 781 C 313.389 781, 315 780.716, 315 779.500 C 315 778.659, 314.108 778, 312.969 778 C 309.826 778, 309.626 775.714, 312.053 767.538 L 314.291 760 321.087 760 C 325.433 760, 328.168 760.451, 328.676 761.250 C 330.113 763.512, 333.909 776.338, 333.390 777.178 C 333.111 777.630, 332.234 778, 331.441 778 C 330.648 778, 330 778.675, 330 779.500 C 330 780.728, 331.722 781, 339.500 781 C 347.278 781, 349 780.728, 349 779.500 C 349 778.675, 348.395 778, 347.655 778 C 344.357 778, 343.351 775.402, 330.714 734.250 C 328.983 728.612, 327.102 724.016, 326.533 724.036 C 325.965 724.056, 324.262 725.085, 322.750 726.324 M 360 726.339 C 360 727.076, 361.133 728.195, 362.518 728.826 L 365.037 729.974 364.768 753.224 L 364.500 776.474 361.750 777.792 C 356.730 780.196, 358.797 781, 370 781 C 381.202 781, 383.271 780.196, 378.250 777.793 C 375.546 776.500, 375.495 776.306, 375.215 766.239 C 374.957 756.967, 375.099 756.001, 376.715 756.015 C 379.541 756.040, 380.440 757.050, 384.414 764.659 C 389.832 775.035, 393.982 779.506, 399.479 780.890 C 403.990 782.026, 409 781.536, 409 779.959 C 409 779.506, 408.113 778.853, 407.028 778.509 C 404.017 777.553, 398.969 771.103, 394.146 762.047 C 389.989 754.242, 389.876 753.809, 391.646 752.468 C 392.666 751.696, 393.801 751.049, 394.168 751.032 C 394.536 751.014, 395.774 749.484, 396.918 747.632 C 399.623 743.255, 399.648 736.575, 396.976 732.192 C 393.537 726.551, 388.561 725.047, 373.250 725.022 C 362.834 725.005, 360 725.286, 360 726.339 M 418 726.430 C 418 727.217, 419.010 728.005, 420.244 728.180 C 423.376 728.627, 423.763 731.355, 423.763 753 C 423.763 774.645, 423.376 777.373, 420.244 777.820 C 419.010 777.995, 418 778.783, 418 779.570 C 418 780.719, 420.060 781, 428.500 781 C 437.167 781, 439 780.738, 439 779.500 C 439 778.675, 438.116 778, 437.035 778 C 433.390 778, 432.951 774.975, 433.231 751.793 L 433.500 729.526 436.250 728.208 C 441.220 725.828, 439.221 725, 428.500 725 C 420.060 725, 418 725.281, 418 726.430 M 451.022 726.250 C 451.034 726.938, 452.496 728.175, 454.272 729 L 457.500 730.500 457.769 753.263 L 458.038 776.026 455.519 777.173 C 454.133 777.805, 453 778.924, 453 779.661 C 453 780.675, 455.064 781, 461.500 781 C 468.205 781, 470 780.698, 470 779.570 C 470 778.783, 468.992 777.995, 467.759 777.820 C 463.676 777.237, 462.928 773.524, 463.226 755.313 L 463.500 738.500 480.982 760.279 C 490.834 772.552, 499.067 781.936, 499.846 781.779 C 500.972 781.551, 501.215 777.528, 501.163 760 C 501.084 733.460, 501.532 729.989, 505.270 728.199 C 509.734 726.060, 507.472 725, 498.441 725 C 491.605 725, 490 725.285, 490 726.500 C 490 727.325, 490.845 728, 491.878 728 C 495.824 728, 496.484 730.562, 496.840 747.265 C 497.046 756.943, 496.810 763.084, 496.242 762.863 C 494.942 762.360, 474.811 738.053, 469.749 730.875 L 465.606 725 458.303 725 C 453.116 725, 451.006 725.362, 451.022 726.250 M 545 726.025 C 545 726.588, 546.080 727.460, 547.399 727.962 C 552.532 729.913, 553 731.929, 553 752.098 C 553 774.187, 552.628 776.804, 549.372 777.621 C 548.068 777.949, 547 778.843, 547 779.608 C 547 780.688, 548.905 781, 555.500 781 C 562.095 781, 564 780.688, 564 779.608 C 564 778.843, 562.925 777.947, 561.610 777.617 C 560.296 777.287, 558.885 776.226, 558.474 775.259 C 557.380 772.681, 556.590 738.998, 557.624 739.011 C 558.106 739.018, 566.150 748.678, 575.500 760.480 C 585.699 773.352, 593.100 781.844, 594 781.706 C 595.273 781.510, 595.576 777.614, 596 755.987 C 596.275 741.969, 596.864 729.938, 597.309 729.250 C 597.754 728.563, 598.991 728, 600.059 728 C 601.139 728, 602 727.318, 602 726.461 C 602 725.174, 600.609 724.969, 593.494 725.211 C 588.816 725.370, 584.878 725.950, 584.744 726.500 C 584.610 727.050, 585.513 727.644, 586.752 727.820 C 590.525 728.356, 591.067 731.032, 590.775 747.667 L 590.500 763.371 578.475 748.910 C 571.861 740.957, 565.111 732.340, 563.475 729.761 L 560.500 725.073 552.750 725.037 C 548.101 725.015, 545 725.410, 545 726.025 M 684 726.481 C 684 727.295, 685.082 728.234, 686.406 728.566 C 687.729 728.898, 689.072 730.144, 689.392 731.335 C 690.199 734.345, 689.956 771.937, 689.109 775 C 688.685 776.535, 687.565 777.623, 686.209 777.820 C 684.994 777.995, 684 778.783, 684 779.570 C 684 780.719, 686.060 781, 694.500 781 C 703.167 781, 705 780.738, 705 779.500 C 705 778.675, 704.116 778, 703.035 778 C 699.970 778, 699 774.876, 699 764.999 L 699 755.867 701.750 756.184 C 704.037 756.447, 705.180 757.772, 708.549 764.064 C 715.893 777.780, 718.300 780.103, 726.500 781.392 C 731.467 782.173, 734.538 780.553, 731.606 778.698 C 727.085 775.838, 724.712 772.938, 719.575 764 L 714.116 754.500 718.037 751.184 C 724.677 745.570, 725.571 737.209, 720.212 730.840 C 716.033 725.873, 712.641 725, 697.532 725 C 686.248 725, 684 725.246, 684 726.481 M 742 726.433 C 742 727.221, 743.013 728.181, 744.250 728.567 C 745.487 728.954, 746.831 729.771, 747.235 730.385 C 748.395 732.146, 748.148 773.854, 746.965 776.066 C 746.395 777.130, 745.045 778, 743.965 778 C 742.837 778, 742 778.676, 742 779.588 C 742 781.991, 772.048 781.268, 776.671 778.754 C 781.897 775.913, 784.467 771.379, 784.467 765 C 784.467 758.403, 781.928 754.143, 776.447 751.542 L 772.855 749.837 776.471 746.669 C 780.862 742.822, 781.921 738.139, 779.636 732.670 C 777.077 726.548, 772.396 725.049, 755.750 725.022 C 744.472 725.004, 742 725.258, 742 726.433 M 798.540 725.936 C 798.221 726.451, 799.207 727.469, 800.730 728.199 L 803.500 729.526 803.769 751.793 C 804.057 775.619, 803.666 778, 799.465 778 C 797.941 778, 797 778.572, 797 779.500 C 797 780.783, 799.885 781, 816.961 781 L 836.923 781 838.461 775.818 C 839.308 772.969, 840 770.044, 840 769.318 C 840 766.949, 837.543 768.008, 835.498 771.260 C 832.827 775.506, 829.622 776.968, 822.941 776.985 C 814.235 777.008, 813.515 776.042, 813.507 764.336 L 813.500 754.500 818.831 754.195 C 824.798 753.853, 827 755.047, 827 758.622 C 827 760.069, 827.587 761, 828.500 761 C 829.723 761, 830 759.324, 830 751.917 C 830 745.097, 829.688 742.936, 828.750 743.245 C 828.063 743.471, 827.356 744.635, 827.180 745.831 C 826.737 748.844, 823.766 750.160, 818.216 749.803 L 813.500 749.500 813.500 739.500 L 813.500 729.500 820.645 729.208 C 827.363 728.934, 827.915 729.076, 829.895 731.593 C 831.053 733.065, 832 734.884, 832 735.635 C 832 736.386, 832.675 737, 833.500 737 C 834.607 737, 835 735.842, 835 732.582 C 835 724.647, 835.863 725, 816.452 725 C 806.764 725, 798.863 725.413, 798.540 725.936 M 851 726.339 C 851 727.076, 852.133 728.195, 853.518 728.826 L 856.037 729.974 855.768 753.224 L 855.500 776.474 852.730 777.801 C 848.041 780.048, 850.669 781, 861.559 781 C 870.173 781, 872 780.738, 872 779.500 C 872 778.675, 871.190 778, 870.200 778 C 866.720 778, 866 775.908, 866 765.800 C 866 757.127, 866.201 756.002, 867.750 756.015 C 870.550 756.040, 871.450 757.069, 875.565 764.947 C 880.537 774.465, 885.274 779.463, 890.713 780.925 C 894.801 782.024, 900 781.535, 900 780.052 C 900 779.650, 898.890 778.815, 897.533 778.197 C 894.581 776.852, 890.345 771.183, 884.841 761.213 C 880.970 754.200, 880.873 753.811, 882.645 752.469 C 883.665 751.696, 884.844 751.049, 885.265 751.032 C 885.685 751.014, 886.921 749.538, 888.011 747.750 C 890.802 743.172, 890.712 735.175, 887.829 731.509 C 883.785 726.368, 878.981 725.046, 864.250 725.022 C 853.834 725.005, 851 725.286, 851 726.339 M 637.122 728.374 C 629.509 731.129, 625.329 741.024, 626.321 753.950 C 627.109 764.224, 628.750 768.704, 633.568 773.732 C 637.299 777.626, 638.089 778, 642.579 777.996 C 652.516 777.989, 657.892 771.181, 658.779 757.480 C 659.632 744.304, 655.012 732.703, 647.434 728.991 C 642.818 726.730, 641.830 726.671, 637.122 728.374 M 376.750 728.785 C 375.208 729.104, 375 730.490, 375 740.466 C 375 752.984, 375.338 753.624, 381.080 751.977 C 385.493 750.711, 387.849 748.324, 388.592 744.363 C 390.318 735.160, 384.287 727.226, 376.750 728.785 M 758.420 729.435 C 757.233 730.303, 756.977 732.430, 757.208 739.518 L 757.500 748.500 761.132 748.803 C 766.867 749.282, 770.326 745.720, 770.424 739.234 C 770.484 735.236, 770.008 733.640, 768.171 731.684 C 765.554 728.896, 760.690 727.775, 758.420 729.435 M 867.750 728.763 C 866.208 729.101, 866 730.504, 866 740.573 C 866 752.996, 865.751 752.521, 872 752.022 C 879.402 751.431, 882.720 738.735, 877.218 732.058 C 875.366 729.809, 870.578 728.144, 867.750 728.763 M 699 740.500 C 699 753.429, 698.953 753.370, 707.732 751.457 C 712.431 750.433, 714.653 740.098, 711.490 733.980 C 709.619 730.363, 707.177 729, 702.566 729 L 699 729 699 740.500 M 318.582 746.753 C 317.162 751.018, 316 754.843, 316 755.253 C 316 755.664, 318.475 756, 321.500 756 C 324.770 756, 327 755.562, 327 754.920 C 327 752.876, 322.499 739.019, 321.832 739.009 C 321.465 739.004, 320.002 742.489, 318.582 746.753 M 757.348 754.536 C 756.294 757.282, 757.538 773.739, 758.926 775.411 C 759.724 776.373, 761.806 777, 764.199 777 C 770.048 777, 774 772.777, 774 766.527 C 774 760.791, 771.868 756.500, 768.033 754.517 C 764.158 752.513, 758.120 752.524, 757.348 754.536" stroke="none" fill="black" fill-rule="evenodd"/>
</svg>